G04*
G04 #@! TF.GenerationSoftware,Altium Limited,Altium Designer,26.9.1 (10)*
G04*
G04 Layer_Physical_Order=2*
G04 Layer_Color=36540*
G04 Board_Origin=29100000|24250000*
%FSLAX42Y42*%
%MOMM*%
G71*
G04*
G04 #@! TF.SameCoordinates,235BE614-6657-4A18-9899-98A75802AEB3*
G04*
G04*
G04 #@! TF.FilePolarity,Positive*
G04*
G01*
G75*
%ADD72C,0.61*%
%ADD73C,1.27*%
G36*
X4890Y0D02*
X4889Y0D01*
X0D01*
Y5702D01*
X4890D01*
Y0D01*
D02*
G37*
%LPC*%
G36*
X1166Y4959D02*
X1149D01*
X1133Y4953D01*
X1121Y4941D01*
X1114Y4925D01*
Y4908D01*
X1121Y4892D01*
X1133Y4880D01*
X1149Y4873D01*
X1166D01*
X1182Y4880D01*
X1194Y4892D01*
X1200Y4908D01*
Y4925D01*
X1194Y4941D01*
X1182Y4953D01*
X1166Y4959D01*
D02*
G37*
G36*
X1964Y4958D02*
X1947D01*
X1931Y4952D01*
X1919Y4939D01*
X1913Y4923D01*
Y4906D01*
X1919Y4890D01*
X1931Y4878D01*
X1947Y4872D01*
X1964D01*
X1980Y4878D01*
X1992Y4890D01*
X1999Y4906D01*
Y4923D01*
X1992Y4939D01*
X1980Y4952D01*
X1964Y4958D01*
D02*
G37*
G36*
X3615Y4933D02*
X3598D01*
X3582Y4926D01*
X3570Y4914D01*
X3564Y4898D01*
Y4881D01*
X3570Y4865D01*
X3582Y4853D01*
X3598Y4846D01*
X3615D01*
X3631Y4853D01*
X3643Y4865D01*
X3650Y4881D01*
Y4898D01*
X3643Y4914D01*
X3631Y4926D01*
X3615Y4933D01*
D02*
G37*
G36*
X2790Y4920D02*
X2773D01*
X2757Y4913D01*
X2745Y4901D01*
X2738Y4885D01*
Y4868D01*
X2745Y4852D01*
X2757Y4840D01*
X2773Y4834D01*
X2790D01*
X2806Y4840D01*
X2818Y4852D01*
X2824Y4868D01*
Y4885D01*
X2818Y4901D01*
X2806Y4913D01*
X2790Y4920D01*
D02*
G37*
G36*
X3234Y4907D02*
X3217D01*
X3201Y4901D01*
X3189Y4889D01*
X3183Y4873D01*
Y4856D01*
X3189Y4840D01*
X3201Y4827D01*
X3217Y4821D01*
X3234D01*
X3250Y4827D01*
X3262Y4840D01*
X3269Y4856D01*
Y4873D01*
X3262Y4889D01*
X3250Y4901D01*
X3234Y4907D01*
D02*
G37*
G36*
X986Y4793D02*
X969D01*
X953Y4786D01*
X941Y4774D01*
X935Y4758D01*
Y4741D01*
X941Y4725D01*
X953Y4713D01*
X969Y4707D01*
X986D01*
X1002Y4713D01*
X1015Y4725D01*
X1021Y4741D01*
Y4758D01*
X1015Y4774D01*
X1002Y4786D01*
X986Y4793D01*
D02*
G37*
G36*
X2752Y4729D02*
X2735D01*
X2719Y4723D01*
X2707Y4711D01*
X2700Y4695D01*
Y4678D01*
X2707Y4662D01*
X2719Y4650D01*
X2735Y4643D01*
X2752D01*
X2768Y4650D01*
X2780Y4662D01*
X2786Y4678D01*
Y4695D01*
X2780Y4711D01*
X2768Y4723D01*
X2752Y4729D01*
D02*
G37*
G36*
X834Y4679D02*
X817D01*
X801Y4672D01*
X789Y4660D01*
X782Y4644D01*
Y4627D01*
X789Y4611D01*
X801Y4599D01*
X817Y4592D01*
X834D01*
X850Y4599D01*
X862Y4611D01*
X869Y4627D01*
Y4644D01*
X862Y4660D01*
X850Y4672D01*
X834Y4679D01*
D02*
G37*
G36*
X1527Y4178D02*
X1510D01*
X1494Y4171D01*
X1482Y4159D01*
X1475Y4143D01*
Y4126D01*
X1475Y4125D01*
X1458Y4101D01*
X1454D01*
X1438Y4095D01*
X1426Y4083D01*
X1419Y4067D01*
Y4050D01*
X1426Y4034D01*
X1438Y4022D01*
X1454Y4015D01*
X1471D01*
X1487Y4022D01*
X1499Y4034D01*
X1506Y4050D01*
Y4067D01*
X1505Y4068D01*
X1523Y4091D01*
X1527D01*
X1543Y4098D01*
X1555Y4110D01*
X1561Y4126D01*
Y4143D01*
X1555Y4159D01*
X1543Y4171D01*
X1527Y4178D01*
D02*
G37*
G36*
X2866Y4006D02*
X2849D01*
X2833Y3999D01*
X2821Y3987D01*
X2814Y3971D01*
Y3954D01*
X2821Y3938D01*
X2833Y3926D01*
X2849Y3919D01*
X2866D01*
X2882Y3926D01*
X2894Y3938D01*
X2901Y3954D01*
Y3971D01*
X2894Y3987D01*
X2882Y3999D01*
X2866Y4006D01*
D02*
G37*
G36*
X3399Y3891D02*
X3382D01*
X3366Y3885D01*
X3354Y3873D01*
X3354Y3871D01*
X3326D01*
X3326Y3873D01*
X3314Y3885D01*
X3298Y3891D01*
X3281D01*
X3265Y3885D01*
X3253Y3873D01*
X3252Y3871D01*
X3225D01*
X3224Y3873D01*
X3212Y3885D01*
X3196Y3891D01*
X3179D01*
X3163Y3885D01*
X3151Y3873D01*
X3145Y3857D01*
Y3840D01*
X3151Y3824D01*
X3163Y3811D01*
X3179Y3805D01*
X3196D01*
X3212Y3811D01*
X3224Y3824D01*
X3225Y3825D01*
X3252D01*
X3253Y3824D01*
X3265Y3811D01*
X3281Y3805D01*
X3298D01*
X3314Y3811D01*
X3326Y3824D01*
X3326Y3825D01*
X3354D01*
X3354Y3824D01*
X3366Y3811D01*
X3382Y3805D01*
X3399D01*
X3415Y3811D01*
X3428Y3824D01*
X3434Y3840D01*
Y3857D01*
X3428Y3873D01*
X3415Y3885D01*
X3399Y3891D01*
D02*
G37*
G36*
X2320Y3942D02*
X2303D01*
X2287Y3936D01*
X2275Y3923D01*
X2268Y3907D01*
Y3890D01*
X2275Y3874D01*
X2287Y3862D01*
X2303Y3856D01*
X2320D01*
X2336Y3862D01*
X2348Y3874D01*
X2355Y3890D01*
Y3907D01*
X2348Y3923D01*
X2336Y3936D01*
X2320Y3942D01*
D02*
G37*
G36*
X2104D02*
X2087D01*
X2071Y3936D01*
X2059Y3923D01*
X2052Y3907D01*
Y3890D01*
X2059Y3874D01*
X2071Y3862D01*
X2087Y3856D01*
X2104D01*
X2120Y3862D01*
X2132Y3874D01*
X2139Y3890D01*
Y3907D01*
X2132Y3923D01*
X2120Y3936D01*
X2104Y3942D01*
D02*
G37*
G36*
X859Y3866D02*
X842D01*
X826Y3859D01*
X814Y3847D01*
X808Y3831D01*
Y3814D01*
X814Y3798D01*
X826Y3786D01*
X842Y3780D01*
X859D01*
X875Y3786D01*
X888Y3798D01*
X894Y3814D01*
Y3831D01*
X888Y3847D01*
X875Y3859D01*
X859Y3866D01*
D02*
G37*
G36*
X3069Y3726D02*
X3052D01*
X3036Y3720D01*
X3024Y3707D01*
X3018Y3692D01*
Y3674D01*
X3024Y3659D01*
X3036Y3646D01*
X3052Y3640D01*
X3069D01*
X3085Y3646D01*
X3097Y3659D01*
X3104Y3674D01*
Y3692D01*
X3097Y3707D01*
X3085Y3720D01*
X3069Y3726D01*
D02*
G37*
G36*
X378Y3391D02*
X358D01*
X339Y3386D01*
X322Y3376D01*
X307Y3361D01*
X297Y3344D01*
X292Y3325D01*
Y3305D01*
X297Y3285D01*
X307Y3268D01*
X322Y3254D01*
X339Y3244D01*
X358Y3238D01*
X378D01*
X398Y3244D01*
X415Y3254D01*
X429Y3268D01*
X439Y3285D01*
X445Y3305D01*
Y3325D01*
X439Y3344D01*
X429Y3361D01*
X415Y3376D01*
X398Y3386D01*
X378Y3391D01*
D02*
G37*
G36*
X2561Y3129D02*
X2544D01*
X2528Y3123D01*
X2515Y3112D01*
X2501Y3123D01*
X2485Y3129D01*
X2468D01*
X2452Y3123D01*
X2440Y3111D01*
X2433Y3095D01*
Y3078D01*
X2440Y3062D01*
X2452Y3049D01*
X2468Y3043D01*
X2485D01*
X2501Y3049D01*
X2515Y3060D01*
X2528Y3049D01*
X2544Y3043D01*
X2561D01*
X2577Y3049D01*
X2589Y3062D01*
X2596Y3078D01*
Y3095D01*
X2589Y3111D01*
X2577Y3123D01*
X2561Y3129D01*
D02*
G37*
G36*
X2129Y2837D02*
X2112D01*
X2096Y2831D01*
X2084Y2818D01*
X2078Y2803D01*
Y2785D01*
X2084Y2770D01*
X2096Y2757D01*
X2112Y2751D01*
X2129D01*
X2145Y2757D01*
X2158Y2770D01*
X2164Y2785D01*
Y2803D01*
X2158Y2818D01*
X2145Y2831D01*
X2129Y2837D01*
D02*
G37*
G36*
X3069Y2774D02*
X3052D01*
X3036Y2767D01*
X3024Y2755D01*
X3018Y2739D01*
Y2722D01*
X3024Y2706D01*
X3028Y2702D01*
X3034Y2686D01*
X3028Y2670D01*
X3024Y2666D01*
X3018Y2650D01*
Y2633D01*
X3024Y2617D01*
X3036Y2605D01*
X3052Y2598D01*
X3069D01*
X3085Y2605D01*
X3097Y2617D01*
X3104Y2633D01*
Y2650D01*
X3097Y2666D01*
X3094Y2670D01*
X3088Y2686D01*
X3094Y2702D01*
X3097Y2706D01*
X3104Y2722D01*
Y2739D01*
X3097Y2755D01*
X3085Y2767D01*
X3069Y2774D01*
D02*
G37*
G36*
X750Y2240D02*
X733D01*
X717Y2234D01*
X705Y2222D01*
X699Y2206D01*
Y2189D01*
X705Y2173D01*
X717Y2160D01*
X733Y2154D01*
X750D01*
X766Y2160D01*
X778Y2173D01*
X785Y2189D01*
Y2206D01*
X778Y2222D01*
X766Y2234D01*
X750Y2240D01*
D02*
G37*
G36*
X1215Y2139D02*
X1198D01*
X1182Y2132D01*
X1170Y2120D01*
X1163Y2104D01*
Y2087D01*
X1170Y2071D01*
X1182Y2059D01*
X1198Y2052D01*
X1215D01*
X1231Y2059D01*
X1243Y2071D01*
X1250Y2087D01*
Y2104D01*
X1243Y2120D01*
X1231Y2132D01*
X1215Y2139D01*
D02*
G37*
G36*
X1914Y2113D02*
X1896D01*
X1881Y2107D01*
X1868Y2095D01*
X1862Y2079D01*
Y2062D01*
X1868Y2046D01*
X1881Y2033D01*
X1896Y2027D01*
X1914D01*
X1929Y2033D01*
X1942Y2046D01*
X1948Y2062D01*
Y2079D01*
X1942Y2095D01*
X1929Y2107D01*
X1914Y2113D01*
D02*
G37*
G36*
X1533Y1974D02*
X1515D01*
X1500Y1967D01*
X1487Y1955D01*
X1481Y1939D01*
Y1922D01*
X1487Y1906D01*
X1500Y1894D01*
X1515Y1887D01*
X1533D01*
X1548Y1894D01*
X1561Y1906D01*
X1567Y1922D01*
Y1939D01*
X1561Y1955D01*
X1548Y1967D01*
X1533Y1974D01*
D02*
G37*
G36*
X4403Y1923D02*
X4386D01*
X4370Y1916D01*
X4358Y1904D01*
X4351Y1888D01*
Y1871D01*
X4358Y1855D01*
X4370Y1843D01*
X4386Y1836D01*
X4403D01*
X4419Y1843D01*
X4431Y1855D01*
X4437Y1871D01*
Y1888D01*
X4431Y1904D01*
X4419Y1916D01*
X4403Y1923D01*
D02*
G37*
G36*
X4276D02*
X4259D01*
X4243Y1916D01*
X4231Y1904D01*
X4224Y1888D01*
Y1871D01*
X4231Y1855D01*
X4243Y1843D01*
X4259Y1836D01*
X4276D01*
X4292Y1843D01*
X4304Y1855D01*
X4310Y1871D01*
Y1888D01*
X4304Y1904D01*
X4292Y1916D01*
X4276Y1923D01*
D02*
G37*
G36*
X4149D02*
X4132D01*
X4116Y1916D01*
X4104Y1904D01*
X4097Y1888D01*
Y1871D01*
X4104Y1855D01*
X4116Y1843D01*
X4132Y1836D01*
X4149D01*
X4165Y1843D01*
X4177Y1855D01*
X4183Y1871D01*
Y1888D01*
X4177Y1904D01*
X4165Y1916D01*
X4149Y1923D01*
D02*
G37*
G36*
X4022D02*
X4005D01*
X3989Y1916D01*
X3977Y1904D01*
X3970Y1888D01*
Y1871D01*
X3977Y1855D01*
X3989Y1843D01*
X4005Y1836D01*
X4022D01*
X4038Y1843D01*
X4050Y1855D01*
X4056Y1871D01*
Y1888D01*
X4050Y1904D01*
X4038Y1916D01*
X4022Y1923D01*
D02*
G37*
G36*
X3895D02*
X3878D01*
X3862Y1916D01*
X3850Y1904D01*
X3843Y1888D01*
Y1871D01*
X3850Y1855D01*
X3862Y1843D01*
X3878Y1836D01*
X3895D01*
X3911Y1843D01*
X3923Y1855D01*
X3929Y1871D01*
Y1888D01*
X3923Y1904D01*
X3911Y1916D01*
X3895Y1923D01*
D02*
G37*
G36*
X3768D02*
X3751D01*
X3735Y1916D01*
X3723Y1904D01*
X3716Y1888D01*
Y1871D01*
X3723Y1855D01*
X3735Y1843D01*
X3751Y1836D01*
X3768D01*
X3784Y1843D01*
X3796Y1855D01*
X3802Y1871D01*
Y1888D01*
X3796Y1904D01*
X3784Y1916D01*
X3768Y1923D01*
D02*
G37*
G36*
X3641D02*
X3624D01*
X3608Y1916D01*
X3596Y1904D01*
X3589Y1888D01*
Y1871D01*
X3596Y1855D01*
X3608Y1843D01*
X3624Y1836D01*
X3641D01*
X3657Y1843D01*
X3669Y1855D01*
X3675Y1871D01*
Y1888D01*
X3669Y1904D01*
X3657Y1916D01*
X3641Y1923D01*
D02*
G37*
G36*
X3514D02*
X3497D01*
X3481Y1916D01*
X3469Y1904D01*
X3462Y1888D01*
Y1871D01*
X3469Y1855D01*
X3481Y1843D01*
X3497Y1836D01*
X3514D01*
X3530Y1843D01*
X3542Y1855D01*
X3548Y1871D01*
Y1888D01*
X3542Y1904D01*
X3530Y1916D01*
X3514Y1923D01*
D02*
G37*
G36*
X3387D02*
X3370D01*
X3354Y1916D01*
X3342Y1904D01*
X3335Y1888D01*
Y1871D01*
X3342Y1855D01*
X3354Y1843D01*
X3370Y1836D01*
X3387D01*
X3403Y1843D01*
X3415Y1855D01*
X3421Y1871D01*
Y1888D01*
X3415Y1904D01*
X3403Y1916D01*
X3387Y1923D01*
D02*
G37*
G36*
X301D02*
X284D01*
X268Y1916D01*
X255Y1904D01*
X249Y1888D01*
Y1871D01*
X255Y1855D01*
X268Y1843D01*
X284Y1836D01*
X301D01*
X317Y1843D01*
X329Y1855D01*
X335Y1871D01*
Y1888D01*
X329Y1904D01*
X317Y1916D01*
X301Y1923D01*
D02*
G37*
G36*
X3145Y1872D02*
X3128D01*
X3112Y1865D01*
X3100Y1853D01*
X3094Y1837D01*
Y1820D01*
X3100Y1804D01*
X3112Y1792D01*
X3128Y1786D01*
X3145D01*
X3161Y1792D01*
X3174Y1804D01*
X3180Y1820D01*
Y1837D01*
X3174Y1853D01*
X3161Y1865D01*
X3145Y1872D01*
D02*
G37*
G36*
Y1618D02*
X3128D01*
X3112Y1611D01*
X3100Y1599D01*
X3094Y1583D01*
Y1566D01*
X3100Y1550D01*
X3112Y1538D01*
X3128Y1532D01*
X3145D01*
X3161Y1538D01*
X3174Y1550D01*
X3180Y1566D01*
Y1583D01*
X3174Y1599D01*
X3161Y1611D01*
X3145Y1618D01*
D02*
G37*
G36*
Y1364D02*
X3128D01*
X3112Y1357D01*
X3100Y1345D01*
X3094Y1329D01*
Y1312D01*
X3100Y1296D01*
X3112Y1284D01*
X3128Y1278D01*
X3145D01*
X3161Y1284D01*
X3174Y1296D01*
X3180Y1312D01*
Y1329D01*
X3174Y1345D01*
X3161Y1357D01*
X3145Y1364D01*
D02*
G37*
G36*
Y1237D02*
X3128D01*
X3112Y1230D01*
X3100Y1218D01*
X3094Y1202D01*
Y1185D01*
X3100Y1169D01*
X3112Y1157D01*
X3128Y1151D01*
X3145D01*
X3161Y1157D01*
X3174Y1169D01*
X3180Y1185D01*
Y1202D01*
X3174Y1218D01*
X3161Y1230D01*
X3145Y1237D01*
D02*
G37*
G36*
Y1110D02*
X3128D01*
X3112Y1103D01*
X3100Y1091D01*
X3094Y1075D01*
Y1058D01*
X3100Y1042D01*
X3112Y1030D01*
X3128Y1024D01*
X3145D01*
X3161Y1030D01*
X3174Y1042D01*
X3180Y1058D01*
Y1075D01*
X3174Y1091D01*
X3161Y1103D01*
X3145Y1110D01*
D02*
G37*
G36*
X1901Y1021D02*
X1884D01*
X1868Y1015D01*
X1854Y1004D01*
X1841Y1015D01*
X1825Y1021D01*
X1808D01*
X1792Y1015D01*
X1779Y1002D01*
X1773Y986D01*
Y969D01*
X1779Y953D01*
X1792Y941D01*
X1808Y935D01*
X1825D01*
X1841Y941D01*
X1854Y952D01*
X1868Y941D01*
X1884Y935D01*
X1901D01*
X1917Y941D01*
X1929Y953D01*
X1935Y969D01*
Y986D01*
X1929Y1002D01*
X1917Y1015D01*
X1901Y1021D01*
D02*
G37*
G36*
X1698Y945D02*
X1681D01*
X1665Y938D01*
X1661Y935D01*
X1645Y929D01*
X1628Y935D01*
X1625Y938D01*
X1609Y945D01*
X1592D01*
X1576Y938D01*
X1564Y926D01*
X1557Y910D01*
Y893D01*
X1564Y877D01*
X1576Y865D01*
X1592Y859D01*
X1609D01*
X1625Y865D01*
X1628Y869D01*
X1645Y875D01*
X1661Y869D01*
X1665Y865D01*
X1681Y859D01*
X1698D01*
X1714Y865D01*
X1726Y877D01*
X1732Y893D01*
Y910D01*
X1726Y926D01*
X1714Y938D01*
X1698Y945D01*
D02*
G37*
G36*
X3145Y983D02*
X3128D01*
X3112Y976D01*
X3100Y964D01*
X3094Y948D01*
Y931D01*
X3100Y915D01*
X3112Y903D01*
X3128Y897D01*
X3145D01*
X3161Y903D01*
X3174Y915D01*
X3180Y931D01*
Y948D01*
X3174Y964D01*
X3161Y976D01*
X3145Y983D01*
D02*
G37*
G36*
X1126Y996D02*
X1109D01*
X1093Y989D01*
X1081Y977D01*
X1074Y961D01*
Y944D01*
X1081Y928D01*
X1092Y914D01*
X1081Y901D01*
X1074Y885D01*
Y868D01*
X1081Y852D01*
X1093Y840D01*
X1109Y833D01*
X1126D01*
X1142Y840D01*
X1154Y852D01*
X1161Y868D01*
Y885D01*
X1154Y901D01*
X1143Y914D01*
X1154Y928D01*
X1161Y944D01*
Y961D01*
X1154Y977D01*
X1142Y989D01*
X1126Y996D01*
D02*
G37*
G36*
X4657Y424D02*
X4640D01*
X4624Y418D01*
X4612Y405D01*
X4605Y390D01*
Y372D01*
X4612Y357D01*
X4624Y344D01*
X4640Y338D01*
X4657D01*
X4673Y344D01*
X4685Y357D01*
X4691Y372D01*
Y390D01*
X4685Y405D01*
X4673Y418D01*
X4657Y424D01*
D02*
G37*
G36*
X4530D02*
X4513D01*
X4497Y418D01*
X4485Y405D01*
X4478Y390D01*
Y372D01*
X4485Y357D01*
X4497Y344D01*
X4513Y338D01*
X4530D01*
X4546Y344D01*
X4558Y357D01*
X4564Y372D01*
Y390D01*
X4558Y405D01*
X4546Y418D01*
X4530Y424D01*
D02*
G37*
G36*
X4403D02*
X4386D01*
X4370Y418D01*
X4358Y405D01*
X4351Y390D01*
Y372D01*
X4358Y357D01*
X4370Y344D01*
X4386Y338D01*
X4403D01*
X4419Y344D01*
X4431Y357D01*
X4437Y372D01*
Y390D01*
X4431Y405D01*
X4419Y418D01*
X4403Y424D01*
D02*
G37*
G36*
X4276D02*
X4259D01*
X4243Y418D01*
X4231Y405D01*
X4224Y390D01*
Y372D01*
X4231Y357D01*
X4243Y344D01*
X4259Y338D01*
X4276D01*
X4292Y344D01*
X4304Y357D01*
X4310Y372D01*
Y390D01*
X4304Y405D01*
X4292Y418D01*
X4276Y424D01*
D02*
G37*
G36*
X2764Y246D02*
X2747D01*
X2731Y240D01*
X2719Y228D01*
X2713Y212D01*
Y195D01*
X2719Y179D01*
X2731Y167D01*
X2747Y160D01*
X2764D01*
X2780Y167D01*
X2793Y179D01*
X2799Y195D01*
Y212D01*
X2793Y228D01*
X2780Y240D01*
X2764Y246D01*
D02*
G37*
G36*
X2296Y241D02*
X2276D01*
X2257Y236D01*
X2239Y226D01*
X2225Y212D01*
X2215Y195D01*
X2210Y175D01*
Y155D01*
X2215Y136D01*
X2225Y118D01*
X2239Y104D01*
X2257Y94D01*
X2276Y89D01*
X2296D01*
X2315Y94D01*
X2333Y104D01*
X2347Y118D01*
X2357Y136D01*
X2362Y155D01*
Y175D01*
X2357Y195D01*
X2347Y212D01*
X2333Y226D01*
X2315Y236D01*
X2296Y241D01*
D02*
G37*
%LPD*%
D72*
X3061Y3683D02*
D03*
X4547Y5524D02*
D03*
Y5017D02*
D03*
Y4508D02*
D03*
Y4254D02*
D03*
Y3747D02*
D03*
Y3492D02*
D03*
Y2984D02*
D03*
Y2476D02*
D03*
Y1715D02*
D03*
Y1460D02*
D03*
Y1206D02*
D03*
Y952D02*
D03*
Y699D02*
D03*
X4293Y5017D02*
D03*
Y4508D02*
D03*
Y4254D02*
D03*
Y3747D02*
D03*
Y3492D02*
D03*
Y3238D02*
D03*
Y1715D02*
D03*
Y952D02*
D03*
Y699D02*
D03*
X4039Y5524D02*
D03*
Y5271D02*
D03*
Y4762D02*
D03*
Y4508D02*
D03*
Y4254D02*
D03*
Y3747D02*
D03*
Y3492D02*
D03*
Y2984D02*
D03*
Y2731D02*
D03*
Y1715D02*
D03*
Y952D02*
D03*
Y699D02*
D03*
Y445D02*
D03*
X3785Y5524D02*
D03*
Y5017D02*
D03*
Y4762D02*
D03*
Y4508D02*
D03*
Y4254D02*
D03*
Y3747D02*
D03*
Y2984D02*
D03*
Y1715D02*
D03*
Y1460D02*
D03*
Y1206D02*
D03*
Y952D02*
D03*
Y699D02*
D03*
Y445D02*
D03*
X3531Y5524D02*
D03*
Y5017D02*
D03*
Y4508D02*
D03*
Y4254D02*
D03*
Y1715D02*
D03*
Y1460D02*
D03*
Y1206D02*
D03*
Y952D02*
D03*
Y699D02*
D03*
Y445D02*
D03*
X3277Y5524D02*
D03*
Y5271D02*
D03*
Y5017D02*
D03*
Y4254D02*
D03*
Y1206D02*
D03*
Y952D02*
D03*
Y699D02*
D03*
Y445D02*
D03*
X3023Y5271D02*
D03*
Y5017D02*
D03*
Y4762D02*
D03*
Y4508D02*
D03*
Y2984D02*
D03*
Y2476D02*
D03*
X2769Y5524D02*
D03*
Y4762D02*
D03*
Y3492D02*
D03*
Y1206D02*
D03*
Y952D02*
D03*
Y699D02*
D03*
X2515Y5271D02*
D03*
Y5017D02*
D03*
Y4001D02*
D03*
Y3747D02*
D03*
Y1460D02*
D03*
Y190D02*
D03*
X2261Y5271D02*
D03*
Y5017D02*
D03*
Y4001D02*
D03*
Y1460D02*
D03*
X2007Y5524D02*
D03*
Y4001D02*
D03*
Y952D02*
D03*
Y699D02*
D03*
Y445D02*
D03*
X1753Y5271D02*
D03*
Y5017D02*
D03*
Y4254D02*
D03*
Y2731D02*
D03*
Y1460D02*
D03*
Y699D02*
D03*
X1499Y5271D02*
D03*
Y5017D02*
D03*
Y4762D02*
D03*
Y2476D02*
D03*
Y699D02*
D03*
X1245Y5524D02*
D03*
Y5017D02*
D03*
Y4001D02*
D03*
Y2731D02*
D03*
Y445D02*
D03*
X991Y5271D02*
D03*
Y3492D02*
D03*
Y2731D02*
D03*
Y2476D02*
D03*
Y699D02*
D03*
Y445D02*
D03*
X737Y5271D02*
D03*
Y5017D02*
D03*
Y4508D02*
D03*
Y4254D02*
D03*
Y4001D02*
D03*
Y3747D02*
D03*
Y3492D02*
D03*
Y2731D02*
D03*
Y2476D02*
D03*
X483Y5524D02*
D03*
Y4508D02*
D03*
Y4254D02*
D03*
Y3747D02*
D03*
Y3492D02*
D03*
Y1715D02*
D03*
Y1460D02*
D03*
Y952D02*
D03*
X229Y5271D02*
D03*
Y4762D02*
D03*
Y4254D02*
D03*
Y4001D02*
D03*
Y3747D02*
D03*
Y3492D02*
D03*
Y3238D02*
D03*
Y1206D02*
D03*
Y445D02*
D03*
X292Y1880D02*
D03*
X1892Y978D02*
D03*
X1816D02*
D03*
X1689Y902D02*
D03*
X1905Y2070D02*
D03*
X742Y2197D02*
D03*
X1524Y1930D02*
D03*
X3607Y4890D02*
D03*
X2858Y3962D02*
D03*
X3226Y4864D02*
D03*
X3188Y3848D02*
D03*
X3289D02*
D03*
X2781Y4877D02*
D03*
X2743Y4686D02*
D03*
X2311Y3899D02*
D03*
X2553Y3086D02*
D03*
X2476D02*
D03*
X2095Y3899D02*
D03*
X826Y4635D02*
D03*
X851Y3823D02*
D03*
X978Y4750D02*
D03*
X1157Y4916D02*
D03*
X1518Y4134D02*
D03*
X1462Y4058D02*
D03*
X2756Y203D02*
D03*
X4267Y381D02*
D03*
X4394D02*
D03*
X3391Y3848D02*
D03*
X4267Y1880D02*
D03*
X3378D02*
D03*
X3137Y1575D02*
D03*
Y1829D02*
D03*
X3505Y1880D02*
D03*
X3632D02*
D03*
X3759D02*
D03*
X1956Y4915D02*
D03*
X1118Y876D02*
D03*
Y952D02*
D03*
X1600Y902D02*
D03*
X4394Y1880D02*
D03*
X4140D02*
D03*
X4013D02*
D03*
X3886D02*
D03*
X3137Y1321D02*
D03*
Y1194D02*
D03*
Y1067D02*
D03*
Y940D02*
D03*
X4521Y381D02*
D03*
X4648D02*
D03*
X3061Y2731D02*
D03*
Y2642D02*
D03*
X1206Y2095D02*
D03*
X2121Y2794D02*
D03*
D73*
X2286Y165D02*
D03*
X368Y3315D02*
D03*
M02*
