M48
;Layer_Color=9474304
;FILE_FORMAT=2:5
INCH
;TYPE=PLATED
T01F00S00C0.01200
T02F00S00C0.02800
%
T01
X0469000Y0257500
X0474000
X0470000Y0270000
Y0280000
Y0290000
Y0300000
Y0310000
X0460000
X0450000
X0440000
Y0300000
Y0290000
Y0280000
X0450000
X0460000
Y0270000
X0450000
Y0260000
X0440000
Y0270000
X0430000
Y0280000
Y0290000
Y0300000
Y0310000
X0414500Y0304500
Y0294500
Y0289500
Y0284500
Y0279500
X0420000Y0280000
Y0290000
Y0270000
Y0260000
X0430000
X0459000Y0257500
X0464000
X0399500Y0250500
X0390000Y0250000
X0400000Y0270000
Y0280000
Y0290000
X0390000Y0300000
X0380000
X0360000
X0362500Y0281000
X0365500
X0370000Y0280000
Y0270000
Y0260000
X0360000Y0270000
X0350000
X0354000Y0278000
X0357500
X0335000Y0277000
Y0280000
X0330000Y0270000
Y0260000
X0340000
X0300000
X0310000Y0280000
Y0300000
Y0310000
X0300000Y0290000
X0302500Y0316500
X0300000Y0370000
Y0380000
X0310000
Y0390000
X0300000
Y0400000
Y0410000
X0310000
Y0420000
X0300000Y0430000
Y0450000
X0310000Y0460000
X0320000Y0450000
X0330000
X0350000
X0360000
Y0440000
X0350000
Y0430000
X0336556Y0436056
X0340000Y0440000
Y0460000
X0370000
X0380000Y0450000
X0390000
Y0440000
X0380000
X0368000Y0436000
X0360000Y0410000
X0350776Y0405272
X0348576Y0402272
X0340000Y0400000
X0320000
Y0410000
Y0420000
X0323500Y0425000
X0329500Y0429500
X0320000Y0440000
Y0390000
X0324500Y0393000
X0320000Y0380000
X0330000
Y0350000
X0340000
X0360000
X0374500Y0352500
X0388500Y0364000
X0391500
X0410000Y0360000
X0411500Y0350000
Y0346500
X0410000Y0340000
X0414500Y0314500
X0424000Y0316500
X0429000
X0434000
X0439000
X0444000
X0449000
X0454000
X0459000
X0464000
X0450000Y0350000
Y0360000
X0440000
X0460000Y0370000
Y0380000
Y0390000
X0450000
Y0380000
X0440000Y0390000
X0424500Y0394000
X0420500
X0416500
X0411500Y0387500
X0400000Y0380000
X0390000Y0390000
Y0400000
X0380000
X0382000Y0396000
X0373500
X0370000Y0400000
X0403500Y0398500
X0420000Y0410000
X0430000
X0440000
X0450000
X0460000
Y0420000
X0450000
Y0430000
X0440000
Y0440000
X0430000
X0433000Y0435000
X0418000Y0434000
X0420000Y0440000
Y0450000
Y0460000
X0430000
X0440000
X0450000
Y0450000
X0460000Y0440000
X0440000Y0420000
X0430000
X0410000
Y0430000
Y0440000
Y0450000
X0400000Y0460000
X0400500Y0434500
X0400000Y0430000
X0399000Y0427000
X0350000Y0340000
X0330000
X0320000
Y0350000
X0320205Y0329000
X0338500Y0325000
X0351000Y0318500
X0366000Y0324000
X0470000Y0340000
Y0360000
Y0380000
Y0390000
Y0410000
Y0420000
Y0440000
Y0460000
T02
X0381000Y0249000
X0305500Y0373000
M30
