G04*
G04 #@! TF.GenerationSoftware,Altium Limited,Altium Designer,26.9.1 (10)*
G04*
G04 Layer_Color=65535*
G04 Board_Origin=29100000|24250000*
%FSLAX42Y42*%
%MOMM*%
G71*
G04*
G04 #@! TF.SameCoordinates,235BE614-6657-4A18-9899-98A75802AEB3*
G04*
G04*
G04 #@! TF.FilePolarity,Positive*
G04*
G01*
G75*
%ADD10C,0.20*%
%ADD11C,0.25*%
%ADD12C,0.10*%
%ADD13C,0.13*%
%ADD14C,0.40*%
D10*
X2028Y989D02*
G03*
X2008Y989I-10J0D01*
G01*
D02*
G03*
X2028Y989I10J0D01*
G01*
X1255Y650D02*
G03*
X1255Y650I-10J0D01*
G01*
X1659Y762D02*
G03*
X1659Y762I-10J0D01*
G01*
X1651D02*
G03*
X1651Y762I-10J0D01*
G01*
X302Y650D02*
G03*
X302Y650I-10J0D01*
G01*
X706Y762D02*
G03*
X706Y762I-10J0D01*
G01*
X711D02*
G03*
X711Y762I-10J0D01*
G01*
X600Y4756D02*
G03*
X600Y4776I0J10D01*
G01*
D02*
G03*
X600Y4756I0J-10D01*
G01*
Y3945D02*
G03*
X600Y3965I0J10D01*
G01*
D02*
G03*
X600Y3945I0J-10D01*
G01*
X1270Y5113D02*
G03*
X1290Y5113I10J0D01*
G01*
D02*
G03*
X1270Y5113I-10J0D01*
G01*
X463Y5115D02*
G03*
X483Y5115I10J0D01*
G01*
D02*
G03*
X463Y5115I-10J0D01*
G01*
X2901D02*
G03*
X2921Y5115I10J0D01*
G01*
D02*
G03*
X2901Y5115I-10J0D01*
G01*
X2083Y5113D02*
G03*
X2103Y5113I10J0D01*
G01*
D02*
G03*
X2083Y5113I-10J0D01*
G01*
X4527Y5115D02*
G03*
X4547Y5115I10J0D01*
G01*
D02*
G03*
X4527Y5115I-10J0D01*
G01*
X3714D02*
G03*
X3734Y5115I10J0D01*
G01*
D02*
G03*
X3714Y5115I-10J0D01*
G01*
X4290Y3842D02*
G03*
X4290Y3822I0J-10D01*
G01*
D02*
G03*
X4290Y3842I0J10D01*
G01*
Y4653D02*
G03*
X4290Y4633I0J-10D01*
G01*
D02*
G03*
X4290Y4653I0J10D01*
G01*
X4851Y2032D02*
X5526D01*
Y232D02*
Y2032D01*
X4851Y232D02*
X5526D01*
X2976D02*
Y347D01*
Y232D02*
X3051D01*
X2976Y2032D02*
X3051D01*
X2976Y1907D02*
Y2032D01*
X803Y3411D02*
X1153D01*
Y2761D02*
Y3411D01*
X803Y2761D02*
X1153D01*
X803D02*
Y3411D01*
X575Y3399D02*
X750D01*
X379Y1415D02*
X619D01*
X379Y1735D02*
X619D01*
X709Y1535D02*
Y1615D01*
X289Y1535D02*
Y1615D01*
X1613Y1415D02*
X1853D01*
X1613Y1735D02*
X1853D01*
X1943Y1535D02*
Y1615D01*
X1523Y1535D02*
Y1615D01*
X1874Y3372D02*
X2014D01*
X1874Y3537D02*
X2014D01*
X3696Y3582D02*
Y3682D01*
X3569Y3582D02*
Y3682D01*
X194Y-110D02*
X1000D01*
X194Y450D02*
X407D01*
X1000Y-110D02*
Y30D01*
X194Y300D02*
Y450D01*
X1000Y300D02*
Y450D01*
X194Y-110D02*
Y30D01*
X787Y450D02*
X1000D01*
X2353Y4354D02*
Y4419D01*
X2514Y4354D02*
Y4419D01*
X1614Y4022D02*
Y4552D01*
X2064Y4022D02*
Y4552D01*
X1424Y4321D02*
X1551D01*
X1424Y4456D02*
X1551D01*
X1874Y4773D02*
X2001D01*
X1874Y4638D02*
X2001D01*
X2705Y2897D02*
X2758D01*
X2248D02*
X2300D01*
X2248Y2387D02*
Y2439D01*
Y2844D02*
Y2897D01*
X2705Y2387D02*
X2758D01*
X2248D02*
X2300D01*
X2758D02*
Y2439D01*
Y2844D02*
Y2897D01*
X3456Y2726D02*
X3583D01*
X3456Y2861D02*
X3583D01*
X2662Y1746D02*
Y1988D01*
X2491Y1746D02*
Y1988D01*
X3385Y2465D02*
X3676D01*
X3385Y2691D02*
X3676D01*
X281Y2801D02*
Y3092D01*
X507Y2801D02*
Y3092D01*
X98Y2870D02*
Y2997D01*
X233Y2870D02*
Y2997D01*
X1833Y2857D02*
Y2985D01*
X1698Y2857D02*
Y2985D01*
X1662Y2763D02*
Y3054D01*
X1437Y2763D02*
Y3054D01*
X2412Y3131D02*
Y3422D01*
X2186Y3131D02*
Y3422D01*
X1895Y2812D02*
Y2979D01*
X2042Y2812D02*
Y2979D01*
X3214Y3113D02*
X3504D01*
X3214Y3339D02*
X3504D01*
X3289Y2942D02*
X3416D01*
X3289Y3077D02*
X3416D01*
X3696Y3381D02*
Y3481D01*
X3569Y3381D02*
Y3481D01*
X4147Y2372D02*
X4388D01*
X4147Y2200D02*
X4388D01*
X1640Y1998D02*
X1767D01*
X1640Y1863D02*
X1767D01*
X136Y1943D02*
Y2070D01*
X271Y1943D02*
Y2070D01*
X1290Y1246D02*
X1555D01*
Y1091D02*
Y1094D01*
Y1243D02*
Y1246D01*
X1290Y1091D02*
X1555D01*
X1290D02*
Y1094D01*
Y1243D02*
Y1246D01*
X1024Y1865D02*
X1314D01*
X1024Y1640D02*
X1314D01*
X1024Y1611D02*
X1314D01*
X1024Y1386D02*
X1314D01*
X464Y1091D02*
X729D01*
X464Y1243D02*
Y1246D01*
Y1091D02*
Y1094D01*
Y1246D02*
X729D01*
Y1243D02*
Y1246D01*
Y1091D02*
Y1094D01*
X1802Y450D02*
X2015D01*
X1209Y-110D02*
Y30D01*
X2015Y300D02*
Y450D01*
X1209Y300D02*
Y450D01*
X2015Y-110D02*
Y30D01*
X1209Y450D02*
X1422D01*
X1209Y-110D02*
X2015D01*
D11*
X3140Y3731D02*
G03*
X3140Y3731I-12J0D01*
G01*
X2126Y3454D02*
G03*
X2126Y3454I-12J0D01*
G01*
X479Y575D02*
G03*
X479Y575I-12J0D01*
G01*
X2126Y4512D02*
G03*
X2126Y4512I-12J0D01*
G01*
X2665Y2992D02*
G03*
X2665Y2992I-12J0D01*
G01*
X1108Y1171D02*
G03*
X1108Y1171I-12J0D01*
G01*
X936Y1166D02*
G03*
X936Y1166I-12J0D01*
G01*
X1495Y575D02*
G03*
X1495Y575I-12J0D01*
G01*
D12*
X4777Y2132D02*
G03*
X4777Y2122I0J-5D01*
G01*
D02*
G03*
X4777Y2132I0J5D01*
G01*
X819Y1467D02*
G03*
X809Y1467I-5J0D01*
G01*
D02*
G03*
X819Y1467I5J0D01*
G01*
X2053D02*
G03*
X2043Y1467I-5J0D01*
G01*
D02*
G03*
X2053Y1467I5J0D01*
G01*
X3937Y2800D02*
G03*
X3937Y2810I0J5D01*
G01*
D02*
G03*
X3937Y2800I0J-5D01*
G01*
X2523Y817D02*
Y855D01*
X2092Y817D02*
Y855D01*
X2208Y658D02*
X2408D01*
X2206Y1014D02*
X2406D01*
X762Y2419D02*
Y2508D01*
X972D02*
X1060D01*
X762D02*
X851D01*
X1060Y2419D02*
Y2508D01*
X876Y2394D02*
X946D01*
X1372D02*
X1441D01*
X1556Y2419D02*
Y2508D01*
X1257D02*
X1346D01*
X1467D02*
X1556D01*
X1257Y2419D02*
Y2508D01*
X40Y4535D02*
Y4876D01*
X320Y4410D02*
X445D01*
Y4576D01*
X320Y4985D02*
X445D01*
Y4815D02*
Y4985D01*
X40Y3725D02*
Y4065D01*
X320Y3600D02*
X445D01*
Y3765D01*
X320Y4175D02*
X445D01*
Y4005D02*
Y4175D01*
X1050Y5673D02*
X1390D01*
X925Y5268D02*
Y5393D01*
Y5268D02*
X1090D01*
X1500D02*
Y5393D01*
X1330Y5268D02*
X1500D01*
X243Y5675D02*
X583D01*
X118Y5270D02*
Y5395D01*
Y5270D02*
X283D01*
X693D02*
Y5395D01*
X523Y5270D02*
X693D01*
X2681Y5675D02*
X3021D01*
X2556Y5270D02*
Y5395D01*
Y5270D02*
X2721D01*
X3131D02*
Y5395D01*
X2961Y5270D02*
X3131D01*
X1863Y5673D02*
X2203D01*
X1738Y5268D02*
Y5393D01*
Y5268D02*
X1903D01*
X2313D02*
Y5393D01*
X2143Y5268D02*
X2313D01*
X4307Y5675D02*
X4647D01*
X4182Y5270D02*
Y5395D01*
Y5270D02*
X4347D01*
X4757D02*
Y5395D01*
X4587Y5270D02*
X4757D01*
X3494Y5675D02*
X3834D01*
X3369Y5270D02*
Y5395D01*
Y5270D02*
X3534D01*
X3944D02*
Y5395D01*
X3774Y5270D02*
X3944D01*
X4850Y3722D02*
Y4062D01*
X4445Y4187D02*
X4570D01*
X4445Y4022D02*
Y4187D01*
Y3612D02*
X4570D01*
X4445D02*
Y3782D01*
X4850Y4533D02*
Y4873D01*
X4445Y4998D02*
X4570D01*
X4445Y4833D02*
Y4998D01*
Y4423D02*
X4570D01*
X4445D02*
Y4593D01*
X4078Y2590D02*
X4498D01*
X4078D02*
Y2784D01*
Y3184D02*
Y3379D01*
X4498D01*
X4838Y2765D02*
Y3184D01*
D13*
X1297Y740D02*
Y860D01*
X1193Y740D02*
Y860D01*
X1439Y814D02*
X1559D01*
X1439Y710D02*
X1559D01*
X1731D02*
X1851D01*
X1731Y814D02*
X1851D01*
X344Y740D02*
Y860D01*
X240Y740D02*
Y860D01*
X486Y814D02*
X606D01*
X486Y710D02*
X606D01*
X791D02*
X911D01*
X791Y814D02*
X911D01*
X2913Y3562D02*
Y3626D01*
X2944D01*
X2955Y3615D01*
Y3594D01*
X2944Y3584D01*
X2913D01*
X2934D02*
X2955Y3562D01*
X3018D02*
X2976D01*
X3018Y3605D01*
Y3615D01*
X3008Y3626D01*
X2987D01*
X2976Y3615D01*
X3082Y3562D02*
X3040D01*
X3082Y3605D01*
Y3615D01*
X3071Y3626D01*
X3050D01*
X3040Y3615D01*
X3900Y3473D02*
X3879D01*
X3889D01*
Y3421D01*
X3879Y3410D01*
X3868D01*
X3858Y3421D01*
X3921Y3410D02*
X3942D01*
X3932D01*
Y3473D01*
X3921Y3463D01*
X4006Y3410D02*
Y3473D01*
X3974Y3442D01*
X4016D01*
X2941Y3816D02*
X2962D01*
X2952D01*
Y3753D01*
X2941D01*
X2962D01*
X3036Y3806D02*
X3026Y3816D01*
X3005D01*
X2994Y3806D01*
Y3763D01*
X3005Y3753D01*
X3026D01*
X3036Y3763D01*
X3058Y3753D02*
X3079D01*
X3068D01*
Y3816D01*
X3058Y3806D01*
X3499Y3031D02*
X3488Y3042D01*
X3467D01*
X3457Y3031D01*
Y2989D01*
X3467Y2978D01*
X3488D01*
X3499Y2989D01*
X3562Y2978D02*
X3520D01*
X3562Y3020D01*
Y3031D01*
X3552Y3042D01*
X3531D01*
X3520Y3031D01*
X3583Y2978D02*
X3605D01*
X3594D01*
Y3042D01*
X3583Y3031D01*
X3603Y3183D02*
X3592Y3194D01*
X3571D01*
X3560Y3183D01*
Y3141D01*
X3571Y3131D01*
X3592D01*
X3603Y3141D01*
X3666Y3131D02*
X3624D01*
X3666Y3173D01*
Y3183D01*
X3655Y3194D01*
X3634D01*
X3624Y3183D01*
X3687D02*
X3698Y3194D01*
X3719D01*
X3730Y3183D01*
Y3141D01*
X3719Y3131D01*
X3698D01*
X3687Y3141D01*
Y3183D01*
X3646Y3312D02*
X3635Y3323D01*
X3614D01*
X3604Y3312D01*
Y3270D01*
X3614Y3259D01*
X3635D01*
X3646Y3270D01*
X3667Y3259D02*
X3688D01*
X3678D01*
Y3323D01*
X3667Y3312D01*
X3720Y3270D02*
X3731Y3259D01*
X3752D01*
X3762Y3270D01*
Y3312D01*
X3752Y3323D01*
X3731D01*
X3720Y3312D01*
Y3302D01*
X3731Y3291D01*
X3762D01*
X3633Y3795D02*
X3623Y3806D01*
X3602D01*
X3591Y3795D01*
Y3753D01*
X3602Y3742D01*
X3623D01*
X3633Y3753D01*
X3654Y3742D02*
X3676D01*
X3665D01*
Y3806D01*
X3654Y3795D01*
X3707D02*
X3718Y3806D01*
X3739D01*
X3750Y3795D01*
Y3784D01*
X3739Y3774D01*
X3750Y3763D01*
Y3753D01*
X3739Y3742D01*
X3718D01*
X3707Y3753D01*
Y3763D01*
X3718Y3774D01*
X3707Y3784D01*
Y3795D01*
X3718Y3774D02*
X3739D01*
X2573Y4566D02*
Y4555D01*
X2594Y4534D01*
X2616Y4555D01*
Y4566D01*
X2594Y4534D02*
Y4502D01*
X2637D02*
X2658D01*
X2647D01*
Y4566D01*
X2637Y4555D01*
X1592Y4687D02*
Y4634D01*
X1603Y4623D01*
X1624D01*
X1635Y4634D01*
Y4687D01*
X1688Y4623D02*
Y4687D01*
X1656Y4655D01*
X1698D01*
X2221Y3029D02*
Y2976D01*
X2232Y2965D01*
X2253D01*
X2264Y2976D01*
Y3029D01*
X2285Y3018D02*
X2295Y3029D01*
X2316D01*
X2327Y3018D01*
Y3008D01*
X2316Y2997D01*
X2306D01*
X2316D01*
X2327Y2987D01*
Y2976D01*
X2316Y2965D01*
X2295D01*
X2285Y2976D01*
X1268Y3537D02*
Y3484D01*
X1278Y3473D01*
X1300D01*
X1310Y3484D01*
Y3537D01*
X1374Y3473D02*
X1331D01*
X1374Y3516D01*
Y3526D01*
X1363Y3537D01*
X1342D01*
X1331Y3526D01*
X2843Y2277D02*
Y2224D01*
X2854Y2214D01*
X2875D01*
X2885Y2224D01*
Y2277D01*
X2906Y2214D02*
X2928D01*
X2917D01*
Y2277D01*
X2906Y2267D01*
X1425Y1812D02*
X1414Y1822D01*
X1393D01*
X1382Y1812D01*
Y1801D01*
X1393Y1791D01*
X1414D01*
X1425Y1780D01*
Y1770D01*
X1414Y1759D01*
X1393D01*
X1382Y1770D01*
X1488Y1759D02*
X1446D01*
X1488Y1801D01*
Y1812D01*
X1477Y1822D01*
X1456D01*
X1446Y1812D01*
X190D02*
X180Y1822D01*
X159D01*
X148Y1812D01*
Y1801D01*
X159Y1791D01*
X180D01*
X190Y1780D01*
Y1770D01*
X180Y1759D01*
X159D01*
X148Y1770D01*
X212Y1759D02*
X233D01*
X222D01*
Y1822D01*
X212Y1812D01*
X1590Y4832D02*
Y4896D01*
X1621D01*
X1632Y4885D01*
Y4864D01*
X1621Y4854D01*
X1590D01*
X1611D02*
X1632Y4832D01*
X1695D02*
X1653D01*
X1695Y4875D01*
Y4885D01*
X1685Y4896D01*
X1664D01*
X1653Y4885D01*
X1717Y4832D02*
X1738D01*
X1727D01*
Y4896D01*
X1717Y4885D01*
X1643Y3667D02*
Y3731D01*
X1674D01*
X1685Y3720D01*
Y3699D01*
X1674Y3688D01*
X1643D01*
X1664D02*
X1685Y3667D01*
X1748D02*
X1706D01*
X1748Y3710D01*
Y3720D01*
X1738Y3731D01*
X1717D01*
X1706Y3720D01*
X1770D02*
X1780Y3731D01*
X1801D01*
X1812Y3720D01*
Y3678D01*
X1801Y3667D01*
X1780D01*
X1770Y3678D01*
Y3720D01*
X1167Y4509D02*
Y4573D01*
X1199D01*
X1209Y4562D01*
Y4541D01*
X1199Y4530D01*
X1167D01*
X1188D02*
X1209Y4509D01*
X1230D02*
X1251D01*
X1241D01*
Y4573D01*
X1230Y4562D01*
X1283Y4520D02*
X1294Y4509D01*
X1315D01*
X1326Y4520D01*
Y4562D01*
X1315Y4573D01*
X1294D01*
X1283Y4562D01*
Y4551D01*
X1294Y4541D01*
X1326D01*
X1902Y3664D02*
Y3727D01*
X1934D01*
X1944Y3717D01*
Y3696D01*
X1934Y3685D01*
X1902D01*
X1923D02*
X1944Y3664D01*
X1965D02*
X1986D01*
X1976D01*
Y3727D01*
X1965Y3717D01*
X2018D02*
X2029Y3727D01*
X2050D01*
X2061Y3717D01*
Y3706D01*
X2050Y3696D01*
X2061Y3685D01*
Y3675D01*
X2050Y3664D01*
X2029D01*
X2018Y3675D01*
Y3685D01*
X2029Y3696D01*
X2018Y3706D01*
Y3717D01*
X2029Y3696D02*
X2050D01*
X2169Y3664D02*
Y3727D01*
X2200D01*
X2211Y3717D01*
Y3696D01*
X2200Y3685D01*
X2169D01*
X2190D02*
X2211Y3664D01*
X2232D02*
X2253D01*
X2243D01*
Y3727D01*
X2232Y3717D01*
X2285Y3727D02*
X2327D01*
Y3717D01*
X2285Y3675D01*
Y3664D01*
X1176Y4204D02*
Y4268D01*
X1208D01*
X1219Y4257D01*
Y4236D01*
X1208Y4225D01*
X1176D01*
X1197D02*
X1219Y4204D01*
X1240D02*
X1261D01*
X1250D01*
Y4268D01*
X1240Y4257D01*
X1335Y4268D02*
X1314Y4257D01*
X1293Y4236D01*
Y4215D01*
X1303Y4204D01*
X1324D01*
X1335Y4215D01*
Y4225D01*
X1324Y4236D01*
X1293D01*
X2194Y387D02*
Y451D01*
X2226D01*
X2236Y440D01*
Y419D01*
X2226Y409D01*
X2194D01*
X2215D02*
X2236Y387D01*
X2257D02*
X2279D01*
X2268D01*
Y451D01*
X2257Y440D01*
X2353Y451D02*
X2310D01*
Y419D01*
X2331Y430D01*
X2342D01*
X2353Y419D01*
Y398D01*
X2342Y387D01*
X2321D01*
X2310Y398D01*
X2881Y2788D02*
Y2851D01*
X2912D01*
X2923Y2841D01*
Y2819D01*
X2912Y2809D01*
X2881D01*
X2902D02*
X2923Y2788D01*
X2944D02*
X2965D01*
X2955D01*
Y2851D01*
X2944Y2841D01*
X3029Y2788D02*
Y2851D01*
X2997Y2819D01*
X3039D01*
X2881Y2521D02*
Y2584D01*
X2912D01*
X2923Y2574D01*
Y2553D01*
X2912Y2542D01*
X2881D01*
X2902D02*
X2923Y2521D01*
X2944D02*
X2965D01*
X2955D01*
Y2584D01*
X2944Y2574D01*
X2997D02*
X3008Y2584D01*
X3029D01*
X3039Y2574D01*
Y2563D01*
X3029Y2553D01*
X3018D01*
X3029D01*
X3039Y2542D01*
Y2532D01*
X3029Y2521D01*
X3008D01*
X2997Y2532D01*
X2626Y984D02*
Y1048D01*
X2657D01*
X2668Y1037D01*
Y1016D01*
X2657Y1005D01*
X2626D01*
X2647D02*
X2668Y984D01*
X2689D02*
X2710D01*
X2700D01*
Y1048D01*
X2689Y1037D01*
X2784Y984D02*
X2742D01*
X2784Y1027D01*
Y1037D01*
X2774Y1048D01*
X2753D01*
X2742Y1037D01*
X1900Y3042D02*
Y3105D01*
X1931D01*
X1942Y3095D01*
Y3073D01*
X1931Y3063D01*
X1900D01*
X1921D02*
X1942Y3042D01*
X1963D02*
X1984D01*
X1974D01*
Y3105D01*
X1963Y3095D01*
X2016Y3042D02*
X2037D01*
X2027D01*
Y3105D01*
X2016Y3095D01*
X2003Y2356D02*
Y2419D01*
X2035D01*
X2046Y2409D01*
Y2388D01*
X2035Y2377D01*
X2003D01*
X2025D02*
X2046Y2356D01*
X2067D02*
X2088D01*
X2078D01*
Y2419D01*
X2067Y2409D01*
X2120D02*
X2130Y2419D01*
X2152D01*
X2162Y2409D01*
Y2366D01*
X2152Y2356D01*
X2130D01*
X2120Y2366D01*
Y2409D01*
X1268Y2076D02*
Y2140D01*
X1300D01*
X1310Y2129D01*
Y2108D01*
X1300Y2098D01*
X1268D01*
X1289D02*
X1310Y2076D01*
X1331Y2087D02*
X1342Y2076D01*
X1363D01*
X1374Y2087D01*
Y2129D01*
X1363Y2140D01*
X1342D01*
X1331Y2129D01*
Y2119D01*
X1342Y2108D01*
X1374D01*
X1001Y2064D02*
Y2127D01*
X1033D01*
X1044Y2117D01*
Y2095D01*
X1033Y2085D01*
X1001D01*
X1022D02*
X1044Y2064D01*
X1065Y2117D02*
X1075Y2127D01*
X1096D01*
X1107Y2117D01*
Y2106D01*
X1096Y2095D01*
X1107Y2085D01*
Y2074D01*
X1096Y2064D01*
X1075D01*
X1065Y2074D01*
Y2085D01*
X1075Y2095D01*
X1065Y2106D01*
Y2117D01*
X1075Y2095D02*
X1096D01*
X2335Y1708D02*
Y1772D01*
X2366D01*
X2377Y1761D01*
Y1740D01*
X2366Y1729D01*
X2335D01*
X2356D02*
X2377Y1708D01*
X2398Y1772D02*
X2441D01*
Y1761D01*
X2398Y1719D01*
Y1708D01*
X1929Y3270D02*
Y3334D01*
X1961D01*
X1971Y3323D01*
Y3302D01*
X1961Y3291D01*
X1929D01*
X1950D02*
X1971Y3270D01*
X2035Y3334D02*
X2014Y3323D01*
X1993Y3302D01*
Y3281D01*
X2003Y3270D01*
X2024D01*
X2035Y3281D01*
Y3291D01*
X2024Y3302D01*
X1993D01*
X1458Y2076D02*
Y2140D01*
X1490D01*
X1501Y2129D01*
Y2108D01*
X1490Y2098D01*
X1458D01*
X1480D02*
X1501Y2076D01*
X1564Y2140D02*
X1522D01*
Y2108D01*
X1543Y2119D01*
X1554D01*
X1564Y2108D01*
Y2087D01*
X1554Y2076D01*
X1532D01*
X1522Y2087D01*
X823Y2076D02*
Y2140D01*
X855D01*
X866Y2129D01*
Y2108D01*
X855Y2098D01*
X823D01*
X845D02*
X866Y2076D01*
X919D02*
Y2140D01*
X887Y2108D01*
X929D01*
X2182Y1670D02*
Y1734D01*
X2214D01*
X2225Y1723D01*
Y1702D01*
X2214Y1691D01*
X2182D01*
X2203D02*
X2225Y1670D01*
X2246Y1723D02*
X2256Y1734D01*
X2278D01*
X2288Y1723D01*
Y1712D01*
X2278Y1702D01*
X2267D01*
X2278D01*
X2288Y1691D01*
Y1681D01*
X2278Y1670D01*
X2256D01*
X2246Y1681D01*
X4694Y2254D02*
Y2318D01*
X4725D01*
X4736Y2307D01*
Y2286D01*
X4725Y2275D01*
X4694D01*
X4715D02*
X4736Y2254D01*
X4799D02*
X4757D01*
X4799Y2297D01*
Y2307D01*
X4789Y2318D01*
X4768D01*
X4757Y2307D01*
X3488Y2280D02*
Y2343D01*
X3520D01*
X3531Y2333D01*
Y2311D01*
X3520Y2301D01*
X3488D01*
X3509D02*
X3531Y2280D01*
X3552D02*
X3573D01*
X3562D01*
Y2343D01*
X3552Y2333D01*
X1158Y2430D02*
Y2472D01*
X1147Y2483D01*
X1126D01*
X1115Y2472D01*
Y2430D01*
X1126Y2419D01*
X1147D01*
X1137Y2441D02*
X1158Y2419D01*
X1147D02*
X1158Y2430D01*
X1221Y2419D02*
X1179D01*
X1221Y2462D01*
Y2472D01*
X1211Y2483D01*
X1190D01*
X1179Y2472D01*
X686Y2430D02*
Y2472D01*
X675Y2483D01*
X654D01*
X643Y2472D01*
Y2430D01*
X654Y2419D01*
X675D01*
X665Y2441D02*
X686Y2419D01*
X675D02*
X686Y2430D01*
X707Y2419D02*
X728D01*
X718D01*
Y2483D01*
X707Y2472D01*
X1977Y1137D02*
Y1073D01*
X2019D01*
X2083Y1137D02*
X2040D01*
Y1073D01*
X2083D01*
X2040Y1105D02*
X2062D01*
X2104Y1137D02*
Y1073D01*
X2136D01*
X2146Y1084D01*
Y1126D01*
X2136Y1137D01*
X2104D01*
X2167Y1073D02*
X2189D01*
X2178D01*
Y1137D01*
X2167Y1126D01*
X153Y616D02*
X132D01*
X143D01*
Y563D01*
X132Y552D01*
X122D01*
X111Y563D01*
X175Y552D02*
X196D01*
X185D01*
Y616D01*
X175Y605D01*
X270Y552D02*
X228D01*
X270Y595D01*
Y605D01*
X259Y616D01*
X238D01*
X228Y605D01*
X4253Y4972D02*
X4232D01*
X4243D01*
Y4919D01*
X4232Y4909D01*
X4222D01*
X4211Y4919D01*
X4275Y4909D02*
X4296D01*
X4285D01*
Y4972D01*
X4275Y4961D01*
X4328Y4909D02*
X4349D01*
X4338D01*
Y4972D01*
X4328Y4961D01*
X4230Y4159D02*
X4209D01*
X4220D01*
Y4106D01*
X4209Y4096D01*
X4198D01*
X4188Y4106D01*
X4251Y4096D02*
X4272D01*
X4262D01*
Y4159D01*
X4251Y4149D01*
X4304D02*
X4315Y4159D01*
X4336D01*
X4347Y4149D01*
Y4106D01*
X4336Y4096D01*
X4315D01*
X4304Y4106D01*
Y4149D01*
X3876Y5175D02*
X3854D01*
X3865D01*
Y5122D01*
X3854Y5112D01*
X3844D01*
X3833Y5122D01*
X3897D02*
X3907Y5112D01*
X3929D01*
X3939Y5122D01*
Y5165D01*
X3929Y5175D01*
X3907D01*
X3897Y5165D01*
Y5154D01*
X3907Y5144D01*
X3939D01*
X4688Y5163D02*
X4667D01*
X4678D01*
Y5110D01*
X4667Y5099D01*
X4657D01*
X4646Y5110D01*
X4710Y5152D02*
X4720Y5163D01*
X4741D01*
X4752Y5152D01*
Y5141D01*
X4741Y5131D01*
X4752Y5120D01*
Y5110D01*
X4741Y5099D01*
X4720D01*
X4710Y5110D01*
Y5120D01*
X4720Y5131D01*
X4710Y5141D01*
Y5152D01*
X4720Y5131D02*
X4741D01*
X2237Y5163D02*
X2216D01*
X2227D01*
Y5110D01*
X2216Y5099D01*
X2206D01*
X2195Y5110D01*
X2258Y5163D02*
X2301D01*
Y5152D01*
X2258Y5110D01*
Y5099D01*
X3050Y5163D02*
X3029D01*
X3040D01*
Y5110D01*
X3029Y5099D01*
X3018D01*
X3008Y5110D01*
X3114Y5163D02*
X3092Y5152D01*
X3071Y5131D01*
Y5110D01*
X3082Y5099D01*
X3103D01*
X3114Y5110D01*
Y5120D01*
X3103Y5131D01*
X3071D01*
X624Y5163D02*
X603D01*
X614D01*
Y5110D01*
X603Y5099D01*
X593D01*
X582Y5110D01*
X688Y5163D02*
X646D01*
Y5131D01*
X667Y5141D01*
X677D01*
X688Y5131D01*
Y5110D01*
X677Y5099D01*
X656D01*
X646Y5110D01*
X1437Y5163D02*
X1416D01*
X1427D01*
Y5110D01*
X1416Y5099D01*
X1405D01*
X1395Y5110D01*
X1490Y5099D02*
Y5163D01*
X1458Y5131D01*
X1501D01*
X1171Y616D02*
X1149D01*
X1160D01*
Y563D01*
X1149Y552D01*
X1139D01*
X1128Y563D01*
X1192Y605D02*
X1202Y616D01*
X1223D01*
X1234Y605D01*
Y595D01*
X1223Y584D01*
X1213D01*
X1223D01*
X1234Y574D01*
Y563D01*
X1223Y552D01*
X1202D01*
X1192Y563D01*
X612Y4159D02*
X591D01*
X601D01*
Y4106D01*
X591Y4096D01*
X580D01*
X569Y4106D01*
X675Y4096D02*
X633D01*
X675Y4138D01*
Y4149D01*
X665Y4159D01*
X643D01*
X633Y4149D01*
X635Y4959D02*
X614D01*
X624D01*
Y4906D01*
X614Y4896D01*
X603D01*
X593Y4906D01*
X656Y4896D02*
X677D01*
X667D01*
Y4959D01*
X656Y4949D01*
X2428Y438D02*
Y375D01*
X2460D01*
X2470Y385D01*
Y428D01*
X2460Y438D01*
X2428D01*
X2534Y428D02*
X2523Y438D01*
X2502D01*
X2491Y428D01*
Y417D01*
X2502Y406D01*
X2523D01*
X2534Y396D01*
Y385D01*
X2523Y375D01*
X2502D01*
X2491Y385D01*
X2555Y375D02*
X2576D01*
X2565D01*
Y438D01*
X2555Y428D01*
X1688Y3486D02*
Y3423D01*
X1720D01*
X1730Y3433D01*
Y3476D01*
X1720Y3486D01*
X1688D01*
X1751Y3433D02*
X1762Y3423D01*
X1783D01*
X1794Y3433D01*
Y3476D01*
X1783Y3486D01*
X1762D01*
X1751Y3476D01*
Y3465D01*
X1762Y3454D01*
X1794D01*
X861Y908D02*
Y845D01*
X893D01*
X904Y855D01*
Y897D01*
X893Y908D01*
X861D01*
X925Y897D02*
X936Y908D01*
X957D01*
X967Y897D01*
Y887D01*
X957Y876D01*
X967Y866D01*
Y855D01*
X957Y845D01*
X936D01*
X925Y855D01*
Y866D01*
X936Y876D01*
X925Y887D01*
Y897D01*
X936Y876D02*
X957D01*
X442Y908D02*
Y845D01*
X474D01*
X485Y855D01*
Y897D01*
X474Y908D01*
X442D01*
X506D02*
X548D01*
Y897D01*
X506Y855D01*
Y845D01*
X247Y999D02*
Y936D01*
X279D01*
X289Y947D01*
Y989D01*
X279Y999D01*
X247D01*
X353D02*
X332Y989D01*
X311Y968D01*
Y947D01*
X321Y936D01*
X342D01*
X353Y947D01*
Y957D01*
X342Y968D01*
X311D01*
X163Y1289D02*
Y1226D01*
X195D01*
X205Y1236D01*
Y1278D01*
X195Y1289D01*
X163D01*
X269D02*
X226D01*
Y1257D01*
X248Y1268D01*
X258D01*
X269Y1257D01*
Y1236D01*
X258Y1226D01*
X237D01*
X226Y1236D01*
X1801Y908D02*
Y845D01*
X1833D01*
X1844Y855D01*
Y897D01*
X1833Y908D01*
X1801D01*
X1897Y845D02*
Y908D01*
X1865Y876D01*
X1907D01*
X1395Y908D02*
Y845D01*
X1427D01*
X1437Y855D01*
Y897D01*
X1427Y908D01*
X1395D01*
X1458Y897D02*
X1469Y908D01*
X1490D01*
X1501Y897D01*
Y887D01*
X1490Y876D01*
X1480D01*
X1490D01*
X1501Y866D01*
Y855D01*
X1490Y845D01*
X1469D01*
X1458Y855D01*
X1200Y999D02*
Y936D01*
X1232D01*
X1242Y947D01*
Y989D01*
X1232Y999D01*
X1200D01*
X1306Y936D02*
X1263D01*
X1306Y978D01*
Y989D01*
X1295Y999D01*
X1274D01*
X1263Y989D01*
X1761Y1289D02*
Y1226D01*
X1793D01*
X1803Y1236D01*
Y1278D01*
X1793Y1289D01*
X1761D01*
X1825Y1226D02*
X1846D01*
X1835D01*
Y1289D01*
X1825Y1278D01*
X2205Y4130D02*
X2195Y4141D01*
X2173D01*
X2163Y4130D01*
Y4088D01*
X2173Y4077D01*
X2195D01*
X2205Y4088D01*
X2226Y4077D02*
X2247D01*
X2237D01*
Y4141D01*
X2226Y4130D01*
X2279Y4141D02*
X2322D01*
Y4130D01*
X2279Y4088D01*
Y4077D01*
X2209Y4684D02*
X2199Y4694D01*
X2178D01*
X2167Y4684D01*
Y4641D01*
X2178Y4631D01*
X2199D01*
X2209Y4641D01*
X2231Y4631D02*
X2252D01*
X2241D01*
Y4694D01*
X2231Y4684D01*
X2326Y4694D02*
X2305Y4684D01*
X2283Y4662D01*
Y4641D01*
X2294Y4631D01*
X2315D01*
X2326Y4641D01*
Y4652D01*
X2315Y4662D01*
X2283D01*
X1926Y4867D02*
X1915Y4877D01*
X1894D01*
X1883Y4867D01*
Y4824D01*
X1894Y4814D01*
X1915D01*
X1926Y4824D01*
X1947Y4814D02*
X1968D01*
X1958D01*
Y4877D01*
X1947Y4867D01*
X2042Y4877D02*
X2000D01*
Y4846D01*
X2021Y4856D01*
X2032D01*
X2042Y4846D01*
Y4824D01*
X2032Y4814D01*
X2010D01*
X2000Y4824D01*
X1259Y4410D02*
X1248Y4420D01*
X1227D01*
X1216Y4410D01*
Y4367D01*
X1227Y4357D01*
X1248D01*
X1259Y4367D01*
X1280Y4357D02*
X1301D01*
X1290D01*
Y4420D01*
X1280Y4410D01*
X1364Y4357D02*
Y4420D01*
X1333Y4388D01*
X1375D01*
X1855Y1952D02*
X1845Y1962D01*
X1824D01*
X1813Y1952D01*
Y1909D01*
X1824Y1899D01*
X1845D01*
X1855Y1909D01*
X1876Y1899D02*
X1898D01*
X1887D01*
Y1962D01*
X1876Y1952D01*
X1929D02*
X1940Y1962D01*
X1961D01*
X1972Y1952D01*
Y1941D01*
X1961Y1930D01*
X1950D01*
X1961D01*
X1972Y1920D01*
Y1909D01*
X1961Y1899D01*
X1940D01*
X1929Y1909D01*
X166Y2155D02*
X156Y2165D01*
X134D01*
X124Y2155D01*
Y2112D01*
X134Y2102D01*
X156D01*
X166Y2112D01*
X187Y2102D02*
X208D01*
X198D01*
Y2165D01*
X187Y2155D01*
X283Y2102D02*
X240D01*
X283Y2144D01*
Y2155D01*
X272Y2165D01*
X251D01*
X240Y2155D01*
X2234Y3539D02*
X2224Y3550D01*
X2202D01*
X2192Y3539D01*
Y3497D01*
X2202Y3486D01*
X2224D01*
X2234Y3497D01*
X2255Y3486D02*
X2276D01*
X2266D01*
Y3550D01*
X2255Y3539D01*
X2308Y3486D02*
X2329D01*
X2319D01*
Y3550D01*
X2308Y3539D01*
X1741Y3095D02*
X1730Y3105D01*
X1709D01*
X1699Y3095D01*
Y3052D01*
X1709Y3042D01*
X1730D01*
X1741Y3052D01*
X1762Y3042D02*
X1783D01*
X1773D01*
Y3105D01*
X1762Y3095D01*
X1815D02*
X1826Y3105D01*
X1847D01*
X1857Y3095D01*
Y3052D01*
X1847Y3042D01*
X1826D01*
X1815Y3052D01*
Y3095D01*
X1501Y3171D02*
X1490Y3181D01*
X1469D01*
X1458Y3171D01*
Y3128D01*
X1469Y3118D01*
X1490D01*
X1501Y3128D01*
X1522D02*
X1532Y3118D01*
X1554D01*
X1564Y3128D01*
Y3171D01*
X1554Y3181D01*
X1532D01*
X1522Y3171D01*
Y3160D01*
X1532Y3150D01*
X1564D01*
X155Y3107D02*
X144Y3118D01*
X123D01*
X112Y3107D01*
Y3065D01*
X123Y3054D01*
X144D01*
X155Y3065D01*
X176Y3107D02*
X186Y3118D01*
X207D01*
X218Y3107D01*
Y3097D01*
X207Y3086D01*
X218Y3076D01*
Y3065D01*
X207Y3054D01*
X186D01*
X176Y3065D01*
Y3076D01*
X186Y3086D01*
X176Y3097D01*
Y3107D01*
X186Y3086D02*
X207D01*
X345Y3209D02*
X334Y3219D01*
X313D01*
X303Y3209D01*
Y3167D01*
X313Y3156D01*
X334D01*
X345Y3167D01*
X366Y3219D02*
X409D01*
Y3209D01*
X366Y3167D01*
Y3156D01*
X2568Y1685D02*
X2557Y1695D01*
X2536D01*
X2525Y1685D01*
Y1643D01*
X2536Y1632D01*
X2557D01*
X2568Y1643D01*
X2631Y1695D02*
X2610Y1685D01*
X2589Y1664D01*
Y1643D01*
X2599Y1632D01*
X2620D01*
X2631Y1643D01*
Y1653D01*
X2620Y1664D01*
X2589D01*
X4028Y2358D02*
X4017Y2369D01*
X3996D01*
X3986Y2358D01*
Y2316D01*
X3996Y2305D01*
X4017D01*
X4028Y2316D01*
X4092Y2369D02*
X4049D01*
Y2337D01*
X4070Y2347D01*
X4081D01*
X4092Y2337D01*
Y2316D01*
X4081Y2305D01*
X4060D01*
X4049Y2316D01*
X917Y1571D02*
X906Y1581D01*
X885D01*
X874Y1571D01*
Y1528D01*
X885Y1518D01*
X906D01*
X917Y1528D01*
X969Y1518D02*
Y1581D01*
X938Y1549D01*
X980D01*
X917Y1825D02*
X906Y1835D01*
X885D01*
X874Y1825D01*
Y1782D01*
X885Y1772D01*
X906D01*
X917Y1782D01*
X938Y1825D02*
X948Y1835D01*
X969D01*
X980Y1825D01*
Y1814D01*
X969Y1803D01*
X959D01*
X969D01*
X980Y1793D01*
Y1782D01*
X969Y1772D01*
X948D01*
X938Y1782D01*
X3660Y2815D02*
X3649Y2826D01*
X3628D01*
X3617Y2815D01*
Y2773D01*
X3628Y2762D01*
X3649D01*
X3660Y2773D01*
X3723Y2762D02*
X3681D01*
X3723Y2805D01*
Y2815D01*
X3713Y2826D01*
X3691D01*
X3681Y2815D01*
X3772Y2612D02*
X3761Y2623D01*
X3740D01*
X3730Y2612D01*
Y2570D01*
X3740Y2559D01*
X3761D01*
X3772Y2570D01*
X3793Y2559D02*
X3814D01*
X3804D01*
Y2623D01*
X3793Y2612D01*
D14*
X2667Y468D02*
Y548D01*
M02*
