G04*
G04 #@! TF.GenerationSoftware,Altium Limited,Altium Designer,26.9.1 (10)*
G04*
G04 Layer_Physical_Order=1*
G04 Layer_Color=255*
G04 Board_Origin=29100000|24250000*
%FSLAX42Y42*%
%MOMM*%
G71*
G04*
G04 #@! TF.SameCoordinates,235BE614-6657-4A18-9899-98A75802AEB3*
G04*
G04*
G04 #@! TF.FilePolarity,Positive*
G04*
G01*
G75*
%ADD19R,1.50X1.00*%
%ADD20R,0.79X0.89*%
%ADD21R,0.85X0.30*%
%ADD22R,0.30X0.85*%
%ADD23R,1.25X1.25*%
%ADD24R,0.90X1.50*%
%ADD25R,1.50X0.90*%
%ADD26R,1.00X1.00*%
%ADD27R,0.40X0.48*%
%ADD28R,0.48X0.40*%
%ADD29R,1.75X0.95*%
%ADD30R,1.75X3.20*%
%ADD31R,0.50X0.48*%
%ADD32R,1.05X0.65*%
%ADD33R,2.70X1.00*%
%ADD34R,1.70X0.60*%
%ADD35R,1.00X2.70*%
%ADD36R,0.60X1.70*%
%ADD37R,3.50X1.00*%
%ADD38R,3.40X1.50*%
%ADD39R,1.25X1.46*%
%ADD40R,0.80X0.80*%
%ADD41R,1.46X1.25*%
%ADD42R,0.47X0.54*%
%ADD43C,0.27*%
%ADD44R,0.45X0.45*%
%ADD45R,0.91X1.13*%
%ADD46R,0.54X0.47*%
%ADD47R,0.52X0.52*%
%ADD48R,1.80X1.90*%
%ADD49R,2.30X1.90*%
%ADD50R,0.40X1.40*%
%ADD51R,0.70X0.65*%
%ADD52R,0.65X0.70*%
%ADD53R,0.48X0.35*%
%ADD54R,0.25X0.48*%
%ADD55R,1.13X0.91*%
%ADD56R,0.72X0.72*%
%ADD57R,0.45X0.45*%
%ADD58R,1.56X0.74*%
%ADD59R,0.60X0.55*%
%ADD60R,0.67X0.67*%
%ADD61R,0.55X0.60*%
G04:AMPARAMS|DCode=62|XSize=1.56mm|YSize=0.74mm|CornerRadius=0.37mm|HoleSize=0mm|Usage=FLASHONLY|Rotation=180.000|XOffset=0mm|YOffset=0mm|HoleType=Round|Shape=RoundedRectangle|*
%AMROUNDEDRECTD62*
21,1,1.56,0.00,0,0,180.0*
21,1,0.82,0.74,0,0,180.0*
1,1,0.74,-0.41,0.00*
1,1,0.74,0.41,0.00*
1,1,0.74,0.41,0.00*
1,1,0.74,-0.41,0.00*
%
%ADD62ROUNDEDRECTD62*%
%ADD63R,1.90X1.10*%
%ADD69C,3.02*%
%ADD70C,0.25*%
%ADD71C,0.51*%
%ADD72C,0.61*%
%ADD73C,1.27*%
G36*
X4890Y0D02*
X0D01*
Y5702D01*
X4890D01*
Y0D01*
D02*
G37*
%LPC*%
G36*
X1193Y5340D02*
X1107D01*
Y5145D01*
X1128D01*
Y4948D01*
X1121Y4941D01*
X1114Y4925D01*
Y4908D01*
X1121Y4892D01*
X1133Y4880D01*
X1149Y4873D01*
X1166D01*
X1182Y4880D01*
X1194Y4892D01*
X1200Y4908D01*
Y4925D01*
X1194Y4941D01*
X1182Y4953D01*
X1180Y4954D01*
Y5145D01*
X1193D01*
Y5340D01*
D02*
G37*
G36*
X2006D02*
X1920D01*
Y5145D01*
X1934D01*
Y4952D01*
X1931Y4952D01*
X1919Y4939D01*
X1913Y4923D01*
Y4906D01*
X1919Y4890D01*
X1931Y4878D01*
X1947Y4872D01*
X1964D01*
X1980Y4878D01*
X1992Y4890D01*
X1999Y4906D01*
Y4923D01*
X1992Y4939D01*
X1985Y4946D01*
Y5145D01*
X2006D01*
Y5340D01*
D02*
G37*
G36*
X4450Y5343D02*
X4364D01*
Y5271D01*
X4192D01*
X4182Y5269D01*
X4174Y5263D01*
X3770Y4860D01*
X3638D01*
X3643Y4865D01*
X3650Y4881D01*
Y4898D01*
X3643Y4914D01*
X3631Y4926D01*
X3626Y4928D01*
Y5147D01*
X3637D01*
Y5343D01*
X3551D01*
Y5147D01*
X3575D01*
Y4918D01*
X3570Y4914D01*
X3564Y4898D01*
Y4881D01*
X3570Y4865D01*
X3576Y4860D01*
X3277D01*
X3269Y4867D01*
Y4873D01*
X3262Y4889D01*
X3250Y4901D01*
X3234Y4907D01*
X3217D01*
X3201Y4901D01*
X3189Y4889D01*
X3183Y4873D01*
Y4856D01*
X3189Y4840D01*
X3201Y4827D01*
X3217Y4821D01*
X3234D01*
X3240Y4823D01*
X3248Y4815D01*
X3256Y4810D01*
X3266Y4808D01*
X3781D01*
X3791Y4810D01*
X3799Y4815D01*
X4203Y5219D01*
X4364D01*
Y5147D01*
X4450D01*
Y5343D01*
D02*
G37*
G36*
X2824D02*
X2739D01*
Y5147D01*
X2755D01*
Y4912D01*
X2745Y4901D01*
X2738Y4885D01*
Y4868D01*
X2745Y4852D01*
X2757Y4840D01*
X2773Y4834D01*
X2790D01*
X2806Y4840D01*
X2818Y4852D01*
X2824Y4868D01*
Y4885D01*
X2818Y4901D01*
X2807Y4912D01*
Y5147D01*
X2824D01*
Y5343D01*
D02*
G37*
G36*
X4517Y4816D02*
X4322D01*
Y4767D01*
X4267Y4712D01*
X2778D01*
X2768Y4723D01*
X2752Y4729D01*
X2735D01*
X2719Y4723D01*
X2707Y4711D01*
X2700Y4695D01*
Y4678D01*
X2707Y4662D01*
X2719Y4650D01*
X2735Y4643D01*
X2752D01*
X2768Y4650D01*
X2778Y4660D01*
X4278D01*
X4288Y4662D01*
X4296Y4668D01*
X4359Y4731D01*
X4517D01*
Y4816D01*
D02*
G37*
G36*
X386Y5343D02*
X300D01*
Y5147D01*
X349D01*
X765Y4731D01*
X773Y4726D01*
X783Y4724D01*
X943D01*
X953Y4713D01*
X969Y4707D01*
X986D01*
X1002Y4713D01*
X1015Y4725D01*
X1021Y4741D01*
Y4758D01*
X1015Y4774D01*
X1002Y4786D01*
X986Y4793D01*
X969D01*
X953Y4786D01*
X943Y4776D01*
X794D01*
X386Y5184D01*
Y5343D01*
D02*
G37*
G36*
X834Y4679D02*
X817D01*
X801Y4672D01*
X790Y4661D01*
X568D01*
Y4678D01*
X372D01*
Y4593D01*
X568D01*
Y4610D01*
X790D01*
X801Y4599D01*
X817Y4592D01*
X834D01*
X850Y4599D01*
X862Y4611D01*
X869Y4627D01*
Y4644D01*
X862Y4660D01*
X850Y4672D01*
X834Y4679D01*
D02*
G37*
G36*
X1561Y4586D02*
X1465D01*
Y4496D01*
X1561D01*
Y4515D01*
X1636D01*
X1646Y4505D01*
Y4482D01*
Y4432D01*
Y4392D01*
Y4388D01*
X1631D01*
X1612Y4407D01*
X1604Y4412D01*
X1594Y4414D01*
X1564D01*
Y4425D01*
X1484D01*
Y4352D01*
X1564D01*
Y4363D01*
X1583D01*
X1602Y4344D01*
X1610Y4338D01*
X1620Y4336D01*
X1646D01*
Y4332D01*
X1719D01*
Y4382D01*
Y4432D01*
Y4482D01*
Y4542D01*
X1682D01*
X1665Y4559D01*
X1657Y4565D01*
X1647Y4567D01*
X1561D01*
Y4586D01*
D02*
G37*
G36*
X2866Y4006D02*
X2849D01*
X2833Y3999D01*
X2821Y3987D01*
X2814Y3971D01*
Y3954D01*
X2821Y3938D01*
X2833Y3926D01*
X2849Y3919D01*
X2866D01*
X2882Y3926D01*
X2893Y3937D01*
X4322D01*
Y3920D01*
X4517D01*
Y4005D01*
X4322D01*
Y3988D01*
X2893D01*
X2882Y3999D01*
X2866Y4006D01*
D02*
G37*
G36*
X1787Y4872D02*
X1468D01*
X1453Y4869D01*
X1440Y4861D01*
X1255Y4676D01*
X1247Y4663D01*
X1244Y4648D01*
Y4375D01*
X1247Y4360D01*
X1255Y4347D01*
X1376Y4226D01*
Y4191D01*
X1493D01*
Y4170D01*
X1482Y4159D01*
X1475Y4143D01*
Y4126D01*
X1482Y4110D01*
X1494Y4098D01*
X1510Y4091D01*
X1518D01*
X1517Y4091D01*
X1491D01*
X1487Y4095D01*
X1471Y4101D01*
X1454D01*
X1438Y4095D01*
X1426Y4083D01*
X1419Y4067D01*
Y4050D01*
X1426Y4034D01*
X1438Y4022D01*
X1454Y4015D01*
X1471D01*
X1487Y4022D01*
X1499Y4034D01*
X1501Y4039D01*
X1528D01*
X1538Y4041D01*
X1546Y4047D01*
X1585Y4086D01*
X1646D01*
Y4082D01*
X1719D01*
Y4132D01*
Y4182D01*
Y4232D01*
Y4292D01*
X1646D01*
Y4287D01*
X1620D01*
X1610Y4285D01*
X1602Y4279D01*
X1585Y4262D01*
X1567D01*
Y4281D01*
X1431D01*
X1322Y4391D01*
Y4632D01*
X1484Y4794D01*
X1689D01*
Y4717D01*
X1738D01*
Y4518D01*
X1738Y4515D01*
Y4482D01*
X1785D01*
Y4442D01*
X1789Y4432D01*
X1799Y4428D01*
X1958D01*
Y4382D01*
Y4332D01*
X2031D01*
Y4336D01*
X2144D01*
X2155Y4324D01*
Y4264D01*
X2253D01*
Y4287D01*
X2326D01*
Y4194D01*
X2541D01*
Y4330D01*
X2362D01*
X2361Y4331D01*
X2353Y4336D01*
X2343Y4338D01*
X2253D01*
Y4361D01*
X2192D01*
X2173Y4380D01*
X2165Y4386D01*
X2164Y4386D01*
X2164D01*
X2174Y4388D01*
X2183Y4393D01*
X2192Y4403D01*
X2253D01*
Y4426D01*
X2333D01*
X2343Y4428D01*
X2352Y4433D01*
X2362Y4444D01*
X2541D01*
Y4580D01*
X2326D01*
Y4481D01*
X2323Y4478D01*
X2253D01*
Y4500D01*
X2155D01*
Y4440D01*
X2153Y4438D01*
X2031D01*
Y4482D01*
Y4542D01*
X1958D01*
Y4494D01*
X1892D01*
Y4578D01*
X1937Y4622D01*
X1941Y4632D01*
X1941Y4632D01*
Y4695D01*
X1941Y4696D01*
X1944Y4710D01*
Y4725D01*
X1947Y4729D01*
X2519D01*
X2641Y4607D01*
Y3567D01*
X2371Y3297D01*
X2358Y3294D01*
X2346Y3286D01*
X2337Y3278D01*
X2190D01*
X2190Y3278D01*
X2190Y3278D01*
X2185Y3276D01*
X2181Y3274D01*
X2180Y3273D01*
X2180Y3273D01*
X2163Y3255D01*
X2163Y3255D01*
X2163Y3254D01*
X2161Y3250D01*
X2159Y3245D01*
X2159Y3245D01*
X2159Y3245D01*
X2161Y3218D01*
X1818Y3215D01*
X1818Y3262D01*
X1902D01*
Y3342D01*
X1885D01*
Y3402D01*
X1922D01*
Y3507D01*
X1816D01*
Y3402D01*
X1834D01*
Y3342D01*
X1817D01*
X1817Y3353D01*
X1815Y3358D01*
X1813Y3362D01*
Y3575D01*
X1991Y3753D01*
X2026D01*
Y3762D01*
X2165D01*
Y3753D01*
X2255D01*
Y3848D01*
Y3871D01*
X2278D01*
X2287Y3862D01*
X2303Y3856D01*
X2320D01*
X2336Y3862D01*
X2348Y3874D01*
X2355Y3890D01*
Y3907D01*
X2348Y3923D01*
X2336Y3936D01*
X2320Y3942D01*
X2303D01*
X2287Y3936D01*
X2275Y3923D01*
X2275Y3923D01*
X2255D01*
Y3943D01*
X2201D01*
X2069Y4075D01*
X2061Y4081D01*
X2051Y4083D01*
X2031D01*
Y4132D01*
Y4182D01*
Y4232D01*
Y4292D01*
X1958D01*
Y4232D01*
Y4182D01*
Y4132D01*
Y4082D01*
Y4032D01*
X1997D01*
X2000Y4031D01*
X2040D01*
X2165Y3907D01*
Y3848D01*
Y3839D01*
X2026D01*
Y3848D01*
Y3871D01*
X2062D01*
X2071Y3862D01*
X2087Y3856D01*
X2104D01*
X2120Y3862D01*
X2132Y3874D01*
X2139Y3890D01*
Y3907D01*
X2132Y3923D01*
X2120Y3936D01*
X2104Y3942D01*
X2087D01*
X2071Y3936D01*
X2059Y3923D01*
X2059Y3923D01*
X2026D01*
Y3943D01*
X1973D01*
X1939Y3977D01*
Y4056D01*
X1939Y4059D01*
Y4092D01*
X1888D01*
Y4059D01*
X1888Y4056D01*
Y3966D01*
X1890Y3956D01*
X1895Y3947D01*
X1936Y3907D01*
Y3848D01*
Y3808D01*
X1747Y3619D01*
X1739Y3606D01*
X1736Y3591D01*
Y3367D01*
X1209Y3367D01*
X1204Y3365D01*
X1199Y3363D01*
X1199Y3363D01*
X1199Y3362D01*
X1197Y3358D01*
X1195Y3353D01*
X1191Y3216D01*
X550Y3214D01*
X537Y3226D01*
X525Y3235D01*
X510Y3238D01*
X500D01*
X442Y3296D01*
X445Y3305D01*
Y3325D01*
X439Y3344D01*
X429Y3361D01*
X415Y3376D01*
X398Y3386D01*
X378Y3391D01*
X358D01*
X339Y3386D01*
X322Y3376D01*
X307Y3361D01*
X297Y3344D01*
X292Y3325D01*
Y3305D01*
X297Y3285D01*
X307Y3268D01*
X322Y3254D01*
X339Y3244D01*
X358Y3238D01*
X378D01*
X387Y3241D01*
X457Y3172D01*
X469Y3163D01*
X484Y3160D01*
X493D01*
Y2984D01*
X497Y2975D01*
X507Y2971D01*
X744D01*
X803Y2911D01*
X813Y2907D01*
X813Y2907D01*
X1729Y2907D01*
X1736Y2910D01*
X1794D01*
X1802Y2907D01*
X1853D01*
Y2896D01*
X1857Y2886D01*
X1867Y2882D01*
X1922D01*
Y2799D01*
X1978D01*
X2006Y2771D01*
Y2757D01*
X2008Y2747D01*
X2014Y2739D01*
X2066Y2687D01*
X2074Y2681D01*
X2084Y2679D01*
X2158D01*
X2168Y2681D01*
X2176Y2687D01*
X2205Y2716D01*
X2205D01*
X2201Y2707D01*
Y2677D01*
X2205Y2667D01*
X2111D01*
X2102Y2666D01*
X2093Y2660D01*
X2081Y2648D01*
X2025D01*
Y2552D01*
X2115D01*
Y2609D01*
X2122Y2616D01*
X2205D01*
X2201Y2607D01*
Y2577D01*
X2205Y2567D01*
X2206Y2567D01*
X2205Y2566D01*
X2201Y2557D01*
Y2527D01*
X2205Y2517D01*
X2206Y2517D01*
X2205Y2516D01*
X2201Y2507D01*
Y2477D01*
X2205Y2467D01*
X2215Y2463D01*
X2298D01*
X2301Y2464D01*
X2303D01*
X2309Y2466D01*
X2311Y2468D01*
X2313Y2469D01*
X2318Y2473D01*
X2319Y2476D01*
X2321Y2478D01*
X2323Y2483D01*
Y2486D01*
X2324Y2489D01*
Y2492D01*
Y2495D01*
X2323Y2497D01*
Y2500D01*
X2321Y2505D01*
X2319Y2507D01*
X2318Y2510D01*
X2313Y2514D01*
X2311Y2515D01*
X2309Y2517D01*
X2311Y2518D01*
X2313Y2519D01*
X2318Y2523D01*
X2319Y2526D01*
X2321Y2528D01*
X2323Y2533D01*
Y2536D01*
X2324Y2539D01*
Y2542D01*
Y2545D01*
X2323Y2547D01*
Y2550D01*
X2321Y2555D01*
X2319Y2557D01*
X2318Y2560D01*
X2313Y2564D01*
X2311Y2565D01*
X2309Y2567D01*
X2311Y2568D01*
X2313Y2569D01*
X2318Y2573D01*
X2319Y2576D01*
X2321Y2578D01*
X2323Y2583D01*
Y2586D01*
X2324Y2589D01*
Y2592D01*
Y2595D01*
X2323Y2597D01*
Y2600D01*
X2321Y2605D01*
X2319Y2607D01*
X2318Y2610D01*
X2313Y2614D01*
X2311Y2615D01*
X2309Y2617D01*
X2311Y2618D01*
X2313Y2619D01*
X2318Y2623D01*
X2319Y2626D01*
X2321Y2628D01*
X2323Y2633D01*
Y2636D01*
X2324Y2639D01*
Y2642D01*
Y2645D01*
X2323Y2647D01*
Y2650D01*
X2321Y2655D01*
X2319Y2657D01*
X2318Y2660D01*
X2313Y2664D01*
X2311Y2665D01*
X2309Y2667D01*
X2311Y2668D01*
X2313Y2669D01*
X2318Y2673D01*
X2319Y2676D01*
X2321Y2678D01*
X2323Y2683D01*
Y2686D01*
X2324Y2689D01*
Y2692D01*
Y2695D01*
X2323Y2697D01*
Y2700D01*
X2321Y2705D01*
X2319Y2707D01*
X2318Y2710D01*
X2313Y2714D01*
X2311Y2715D01*
X2309Y2717D01*
X2311Y2718D01*
X2313Y2719D01*
X2318Y2723D01*
X2319Y2726D01*
X2321Y2728D01*
X2323Y2733D01*
Y2736D01*
X2324Y2739D01*
Y2742D01*
Y2745D01*
X2323Y2747D01*
Y2750D01*
X2321Y2755D01*
X2319Y2757D01*
X2318Y2760D01*
X2313Y2764D01*
X2311Y2765D01*
X2309Y2767D01*
X2311Y2768D01*
X2313Y2769D01*
X2318Y2773D01*
X2319Y2776D01*
X2321Y2778D01*
X2323Y2783D01*
Y2786D01*
X2324Y2789D01*
Y2792D01*
Y2795D01*
X2323Y2797D01*
Y2800D01*
X2321Y2805D01*
X2320Y2806D01*
X2327D01*
X2329Y2807D01*
X2332D01*
X2335Y2808D01*
Y2809D01*
X2409D01*
X2409Y2809D01*
X2410Y2809D01*
X2414Y2811D01*
X2419Y2813D01*
X2419Y2813D01*
X2419Y2814D01*
X2427Y2823D01*
X2428Y2825D01*
X2429Y2826D01*
X2431Y2830D01*
X2434Y2827D01*
X2437Y2826D01*
X2439Y2824D01*
X2444Y2821D01*
X2447D01*
X2450Y2820D01*
X2456D01*
X2458Y2821D01*
X2461D01*
X2466Y2824D01*
X2468Y2826D01*
X2471Y2827D01*
X2475Y2831D01*
X2476Y2833D01*
X2478Y2835D01*
X2479Y2833D01*
X2480Y2831D01*
X2484Y2827D01*
X2487Y2826D01*
X2489Y2824D01*
X2494Y2821D01*
X2497D01*
X2500Y2820D01*
X2506D01*
X2508Y2821D01*
X2511D01*
X2516Y2824D01*
X2518Y2826D01*
X2521Y2827D01*
X2525Y2831D01*
X2526Y2833D01*
X2528Y2835D01*
X2530Y2841D01*
Y2844D01*
X2531Y2846D01*
Y2849D01*
Y2929D01*
X2527Y2939D01*
X2524Y2940D01*
Y2946D01*
X2556Y2978D01*
X2561Y2986D01*
X2563Y2996D01*
Y3044D01*
X2577Y3049D01*
X2589Y3062D01*
X2596Y3078D01*
Y3095D01*
X2589Y3111D01*
X2585Y3115D01*
X3197D01*
Y2351D01*
X3201Y2341D01*
X3211Y2337D01*
X3510D01*
X3515Y2339D01*
X3520Y2341D01*
X3520Y2341D01*
X3520Y2341D01*
X3522Y2346D01*
X3524Y2351D01*
X3524Y2365D01*
X3526D01*
Y2435D01*
X3525D01*
X3530Y2783D01*
X3530Y2783D01*
X3530Y2783D01*
Y2830D01*
X3529Y2834D01*
X3528Y2838D01*
X3527Y2839D01*
X3526Y2840D01*
X3522Y2842D01*
X3519Y2844D01*
X3495Y2848D01*
X3494Y2848D01*
X3493Y2848D01*
X3352D01*
Y2974D01*
X3356D01*
Y3046D01*
X3352D01*
Y3140D01*
X3352D01*
Y3310D01*
X3388D01*
X3388Y3310D01*
X3388Y3310D01*
X3393Y3312D01*
X3397Y3314D01*
X3397Y3314D01*
X3397Y3314D01*
X3415Y3332D01*
X3415Y3332D01*
X3415Y3332D01*
X3417Y3337D01*
X3419Y3342D01*
X3419Y3342D01*
X3419Y3342D01*
X3419Y3479D01*
X3515D01*
Y3481D01*
X3519D01*
X3521Y3480D01*
X3593D01*
X3594Y3480D01*
Y3432D01*
X3671D01*
Y3480D01*
X3671Y3480D01*
X3673D01*
X3755Y3398D01*
Y3093D01*
X3757Y3083D01*
X3763Y3074D01*
X3897Y2941D01*
X3905Y2935D01*
X3915Y2933D01*
X3945D01*
Y2822D01*
X4320D01*
Y2947D01*
X3997D01*
X3996Y2954D01*
X3990Y2963D01*
X3975Y2977D01*
X3967Y2983D01*
X3959Y2984D01*
X3967Y2986D01*
X3975Y2992D01*
X3990Y3006D01*
X3996Y3015D01*
X3997Y3022D01*
X4320D01*
Y3147D01*
X3945D01*
Y3037D01*
X3858Y3124D01*
Y3430D01*
X3856Y3439D01*
X3850Y3448D01*
X3723Y3575D01*
X3715Y3581D01*
X3705Y3583D01*
X3671D01*
X3671Y3583D01*
Y3631D01*
X3594D01*
Y3583D01*
X3593Y3583D01*
X3515D01*
Y3584D01*
X3404D01*
Y3529D01*
Y3493D01*
X3345Y3493D01*
X3345Y3493D01*
X3345Y3493D01*
X3341Y3492D01*
X3225D01*
Y3534D01*
X3115D01*
Y3523D01*
X3088D01*
Y3540D01*
X3008D01*
Y3459D01*
X3004Y3459D01*
X3004Y3459D01*
X3004Y3459D01*
X2999Y3457D01*
X2994Y3455D01*
X2994Y3455D01*
X2994Y3455D01*
X2975Y3438D01*
X2975Y3438D01*
X2975Y3438D01*
X2973Y3433D01*
X2971Y3428D01*
X2971Y3428D01*
X2971Y3428D01*
X2968Y3278D01*
X2462D01*
X2707Y3523D01*
X2716Y3536D01*
X2716Y3538D01*
X2719Y3551D01*
Y4623D01*
X2716Y4638D01*
X2707Y4650D01*
X2562Y4795D01*
X2550Y4804D01*
X2535Y4806D01*
X1931D01*
X1916Y4804D01*
X1904Y4795D01*
X1892Y4783D01*
X1815Y4861D01*
X1802Y4869D01*
X1787Y4872D01*
D02*
G37*
G36*
X1839Y4092D02*
X1788D01*
Y4060D01*
X1787Y4055D01*
Y4025D01*
X1747Y3984D01*
X1741Y3976D01*
X1739Y3966D01*
Y3947D01*
X1720D01*
Y3851D01*
X1810D01*
Y3947D01*
X1791D01*
Y3955D01*
X1832Y3996D01*
X1837Y4004D01*
X1839Y4014D01*
Y4055D01*
X1839Y4056D01*
X1839Y4059D01*
Y4092D01*
D02*
G37*
G36*
X3399Y3891D02*
X3382D01*
X3366Y3885D01*
X3354Y3873D01*
X3348Y3857D01*
Y3849D01*
X3328Y3829D01*
X3332Y3840D01*
Y3857D01*
X3326Y3873D01*
X3314Y3885D01*
X3298Y3891D01*
X3281D01*
X3265Y3885D01*
X3253Y3873D01*
X3246Y3857D01*
Y3840D01*
X3253Y3824D01*
X3264Y3813D01*
Y3806D01*
X3258Y3814D01*
X3231Y3842D01*
Y3857D01*
X3224Y3873D01*
X3212Y3885D01*
X3196Y3891D01*
X3179D01*
X3163Y3885D01*
X3151Y3873D01*
X3145Y3857D01*
Y3840D01*
X3151Y3824D01*
X3163Y3811D01*
X3179Y3805D01*
X3194D01*
X3214Y3785D01*
Y3782D01*
X3212D01*
Y3684D01*
X3170D01*
X3167Y3685D01*
X3105D01*
X3104Y3686D01*
Y3692D01*
X3097Y3707D01*
X3085Y3720D01*
X3069Y3726D01*
X3052D01*
X3036Y3720D01*
X3024Y3707D01*
X3018Y3692D01*
Y3674D01*
X3024Y3659D01*
X3036Y3646D01*
X3052Y3640D01*
X3069D01*
X3075Y3642D01*
X3076Y3640D01*
X3085Y3635D01*
X3095Y3633D01*
X3115D01*
Y3629D01*
Y3579D01*
X3225D01*
Y3629D01*
Y3671D01*
X3264D01*
Y3657D01*
X3240D01*
Y3506D01*
X3390D01*
Y3657D01*
X3316D01*
Y3671D01*
X3404D01*
Y3629D01*
X3515D01*
Y3684D01*
X3417D01*
Y3782D01*
X3366D01*
Y3793D01*
X3379Y3806D01*
X3382Y3805D01*
X3399D01*
X3415Y3811D01*
X3428Y3824D01*
X3434Y3840D01*
Y3857D01*
X3428Y3873D01*
X3415Y3885D01*
X3399Y3891D01*
D02*
G37*
G36*
X568Y3867D02*
X372D01*
Y3782D01*
X568D01*
Y3798D01*
X815D01*
X826Y3786D01*
X842Y3780D01*
X859D01*
X875Y3786D01*
X888Y3798D01*
X894Y3814D01*
Y3831D01*
X888Y3847D01*
X875Y3859D01*
X859Y3866D01*
X842D01*
X826Y3859D01*
X817Y3850D01*
X568D01*
Y3867D01*
D02*
G37*
G36*
X2668Y2943D02*
X2638D01*
X2628Y2939D01*
X2628Y2938D01*
X2627Y2939D01*
X2618Y2943D01*
X2588D01*
X2578Y2939D01*
X2574Y2929D01*
Y2849D01*
Y2846D01*
X2575Y2844D01*
Y2841D01*
X2577Y2835D01*
X2579Y2833D01*
X2580Y2831D01*
X2584Y2827D01*
X2587Y2826D01*
X2589Y2824D01*
X2594Y2821D01*
X2597D01*
X2600Y2820D01*
X2606D01*
X2608Y2821D01*
X2611D01*
X2616Y2824D01*
X2618Y2826D01*
X2621Y2827D01*
X2625Y2831D01*
X2626Y2833D01*
X2628Y2835D01*
X2629Y2833D01*
X2630Y2831D01*
X2634Y2827D01*
X2637Y2826D01*
X2639Y2824D01*
X2644Y2821D01*
X2647D01*
X2650Y2820D01*
X2656D01*
X2658Y2821D01*
X2661D01*
X2666Y2824D01*
X2668Y2826D01*
X2671Y2827D01*
X2675Y2831D01*
X2676Y2833D01*
X2678Y2835D01*
X2680Y2841D01*
Y2844D01*
X2681Y2846D01*
Y2849D01*
Y2929D01*
X2677Y2939D01*
X2668Y2943D01*
D02*
G37*
G36*
X2656Y2463D02*
X2650D01*
X2647Y2462D01*
X2644D01*
X2639Y2460D01*
X2637Y2458D01*
X2634Y2457D01*
X2630Y2452D01*
X2629Y2450D01*
X2628Y2448D01*
X2626Y2450D01*
X2625Y2452D01*
X2621Y2457D01*
X2618Y2458D01*
X2616Y2460D01*
X2611Y2462D01*
X2608D01*
X2606Y2463D01*
X2600D01*
X2597Y2462D01*
X2594D01*
X2589Y2460D01*
X2587Y2458D01*
X2584Y2457D01*
X2580Y2452D01*
X2579Y2450D01*
X2578Y2448D01*
X2576Y2450D01*
X2575Y2452D01*
X2571Y2457D01*
X2568Y2458D01*
X2566Y2460D01*
X2561Y2462D01*
X2558D01*
X2556Y2463D01*
X2550D01*
X2547Y2462D01*
X2544D01*
X2539Y2460D01*
X2537Y2458D01*
X2534Y2457D01*
X2530Y2452D01*
X2529Y2450D01*
X2528Y2448D01*
X2526Y2450D01*
X2525Y2452D01*
X2521Y2457D01*
X2518Y2458D01*
X2516Y2460D01*
X2511Y2462D01*
X2508D01*
X2506Y2463D01*
X2500D01*
X2497Y2462D01*
X2494D01*
X2489Y2460D01*
X2487Y2458D01*
X2484Y2457D01*
X2480Y2452D01*
X2479Y2450D01*
X2478Y2448D01*
X2476Y2450D01*
X2475Y2452D01*
X2471Y2457D01*
X2468Y2458D01*
X2466Y2460D01*
X2461Y2462D01*
X2458D01*
X2456Y2463D01*
X2450D01*
X2447Y2462D01*
X2444D01*
X2439Y2460D01*
X2437Y2458D01*
X2434Y2457D01*
X2430Y2452D01*
X2429Y2450D01*
X2428Y2448D01*
X2426Y2450D01*
X2425Y2452D01*
X2421Y2457D01*
X2418Y2458D01*
X2416Y2460D01*
X2411Y2462D01*
X2408D01*
X2406Y2463D01*
X2400D01*
X2397Y2462D01*
X2394D01*
X2389Y2460D01*
X2387Y2458D01*
X2384Y2457D01*
X2380Y2452D01*
X2379Y2450D01*
X2378Y2448D01*
X2376Y2450D01*
X2375Y2452D01*
X2371Y2457D01*
X2368Y2458D01*
X2366Y2460D01*
X2361Y2462D01*
X2358D01*
X2356Y2463D01*
X2350D01*
X2347Y2462D01*
X2344D01*
X2339Y2460D01*
X2337Y2458D01*
X2334Y2457D01*
X2330Y2452D01*
X2329Y2450D01*
X2327Y2448D01*
X2325Y2442D01*
Y2440D01*
X2324Y2437D01*
Y2434D01*
Y2354D01*
X2328Y2344D01*
X2338Y2340D01*
X2368D01*
X2377Y2344D01*
X2378Y2345D01*
X2378Y2344D01*
X2388Y2340D01*
X2418D01*
X2427Y2344D01*
X2428Y2345D01*
X2428Y2344D01*
X2438Y2340D01*
X2468D01*
X2477Y2344D01*
X2478Y2345D01*
X2478Y2344D01*
X2488Y2340D01*
X2518D01*
X2527Y2344D01*
X2528Y2345D01*
X2528Y2344D01*
X2538Y2340D01*
X2568D01*
X2577Y2344D01*
X2578Y2345D01*
X2578Y2344D01*
X2588Y2340D01*
X2618D01*
X2627Y2344D01*
X2628Y2345D01*
X2628Y2344D01*
X2638Y2340D01*
X2668D01*
X2677Y2344D01*
X2681Y2354D01*
Y2434D01*
Y2437D01*
X2680Y2440D01*
Y2442D01*
X2678Y2448D01*
X2676Y2450D01*
X2675Y2452D01*
X2671Y2457D01*
X2668Y2458D01*
X2666Y2460D01*
X2661Y2462D01*
X2658D01*
X2656Y2463D01*
D02*
G37*
G36*
X4528Y2439D02*
X3571D01*
X3556Y2436D01*
X3555Y2435D01*
X3535D01*
Y2416D01*
X3535Y2415D01*
X3532Y2400D01*
X3535Y2385D01*
X3535Y2384D01*
Y2365D01*
X3555D01*
X3556Y2364D01*
X3571Y2361D01*
X4512D01*
X4542Y2331D01*
X4474D01*
Y2312D01*
X4401D01*
Y2344D01*
X4262D01*
Y2256D01*
X4262Y2253D01*
Y2243D01*
X4254Y2236D01*
X1933D01*
X1923Y2234D01*
X1914Y2228D01*
X1663Y1976D01*
X1657Y1968D01*
X1657Y1967D01*
X1627D01*
Y1956D01*
X1559D01*
X1548Y1967D01*
X1533Y1974D01*
X1515D01*
X1500Y1967D01*
X1487Y1955D01*
X1481Y1939D01*
Y1922D01*
X1487Y1906D01*
X1498Y1895D01*
Y1727D01*
X1460D01*
Y1637D01*
X1591D01*
Y1727D01*
X1550D01*
Y1895D01*
X1559Y1905D01*
X1627D01*
Y1894D01*
X1706D01*
Y1939D01*
X1707Y1941D01*
Y1947D01*
X1944Y2184D01*
X4265D01*
X4275Y2186D01*
X4283Y2191D01*
X4306Y2214D01*
X4311Y2222D01*
X4312Y2228D01*
X4401D01*
Y2260D01*
X4474D01*
Y2241D01*
X4495D01*
Y2094D01*
X4465D01*
Y1919D01*
X4581D01*
Y2055D01*
X4589Y2043D01*
X4592Y2039D01*
Y1919D01*
X4708D01*
Y2094D01*
X4655D01*
Y2241D01*
X4664D01*
Y2331D01*
X4644D01*
X4642Y2337D01*
X4634Y2349D01*
X4556Y2428D01*
X4543Y2436D01*
X4528Y2439D01*
D02*
G37*
G36*
X457Y2947D02*
X457Y2947D01*
X201D01*
X194Y2944D01*
X140D01*
X130Y2940D01*
X129Y2937D01*
X129D01*
Y2937D01*
X126Y2931D01*
Y2260D01*
X126Y2260D01*
X129Y2253D01*
X130Y2250D01*
X130Y2250D01*
X316Y2064D01*
Y1916D01*
X301Y1923D01*
X284D01*
X240Y1967D01*
Y2010D01*
X167D01*
Y1930D01*
X203D01*
X249Y1884D01*
Y1871D01*
X255Y1855D01*
X266Y1844D01*
Y1727D01*
X226D01*
Y1637D01*
X357D01*
Y1727D01*
X318D01*
Y1844D01*
X329Y1855D01*
X329Y1857D01*
X332Y1856D01*
X335Y1853D01*
X337Y1854D01*
X338Y1853D01*
X824D01*
Y1360D01*
X686D01*
X676Y1356D01*
X672Y1346D01*
Y1130D01*
X676Y1121D01*
X676Y1120D01*
Y1119D01*
X681D01*
X686Y1117D01*
X1334D01*
X1338Y1119D01*
X1343D01*
Y1120D01*
X1343Y1121D01*
X1347Y1130D01*
Y1334D01*
X1343Y1343D01*
X1334Y1347D01*
X1157D01*
Y1413D01*
X1162D01*
Y1584D01*
X1157D01*
Y1667D01*
X1162D01*
Y1838D01*
X1157D01*
Y2045D01*
X1153Y2054D01*
X1153Y2054D01*
X1127Y2080D01*
X1118Y2084D01*
X1118Y2084D01*
X948D01*
X951Y2084D01*
X959Y2090D01*
X1021Y2152D01*
X1175D01*
Y2242D01*
X1153D01*
Y2310D01*
X1338Y2495D01*
X1380D01*
X1383Y2496D01*
X1459D01*
Y2597D01*
X1532D01*
X1584Y2545D01*
Y2255D01*
X1540D01*
Y2292D01*
X1556D01*
Y2407D01*
X1452D01*
Y2292D01*
X1489D01*
Y2255D01*
X1467D01*
Y2165D01*
X1489D01*
Y2148D01*
X1491Y2139D01*
X1496Y2130D01*
X1511Y2115D01*
X1520Y2110D01*
X1529Y2108D01*
X1637D01*
X1647Y2110D01*
X1655Y2115D01*
X1787Y2247D01*
X3035D01*
X3045Y2249D01*
X3054Y2255D01*
X3143Y2344D01*
X3148Y2352D01*
X3150Y2362D01*
Y2794D01*
X3148Y2804D01*
X3143Y2812D01*
X3054Y2901D01*
X3045Y2907D01*
X3035Y2909D01*
X2834D01*
X2824Y2907D01*
X2816Y2901D01*
X2735Y2820D01*
X2707D01*
X2705Y2819D01*
X2702D01*
X2696Y2817D01*
X2695Y2815D01*
X2692Y2814D01*
X2688Y2810D01*
X2687Y2807D01*
X2685Y2805D01*
X2683Y2800D01*
Y2797D01*
X2681Y2795D01*
Y2792D01*
Y2789D01*
X2683Y2786D01*
Y2783D01*
X2685Y2778D01*
X2687Y2776D01*
X2688Y2773D01*
X2692Y2769D01*
X2695Y2768D01*
X2696Y2767D01*
X2695Y2765D01*
X2692Y2764D01*
X2688Y2760D01*
X2687Y2757D01*
X2685Y2755D01*
X2683Y2750D01*
Y2747D01*
X2681Y2745D01*
Y2742D01*
Y2739D01*
X2683Y2736D01*
Y2733D01*
X2685Y2728D01*
X2687Y2726D01*
X2688Y2723D01*
X2692Y2719D01*
X2695Y2718D01*
X2696Y2717D01*
X2695Y2715D01*
X2692Y2714D01*
X2688Y2710D01*
X2687Y2707D01*
X2685Y2705D01*
X2683Y2700D01*
Y2697D01*
X2681Y2695D01*
Y2692D01*
Y2689D01*
X2683Y2686D01*
Y2683D01*
X2685Y2678D01*
X2687Y2676D01*
X2688Y2673D01*
X2692Y2669D01*
X2695Y2668D01*
X2696Y2667D01*
X2695Y2665D01*
X2692Y2664D01*
X2688Y2660D01*
X2687Y2657D01*
X2685Y2655D01*
X2683Y2650D01*
Y2647D01*
X2681Y2645D01*
Y2642D01*
Y2639D01*
X2683Y2636D01*
Y2633D01*
X2685Y2628D01*
X2687Y2626D01*
X2688Y2623D01*
X2692Y2619D01*
X2695Y2618D01*
X2696Y2617D01*
X2695Y2615D01*
X2692Y2614D01*
X2688Y2610D01*
X2687Y2607D01*
X2685Y2605D01*
X2683Y2600D01*
Y2597D01*
X2681Y2595D01*
Y2592D01*
Y2589D01*
X2683Y2586D01*
Y2583D01*
X2685Y2578D01*
X2687Y2576D01*
X2688Y2573D01*
X2692Y2569D01*
X2695Y2568D01*
X2696Y2567D01*
X2695Y2565D01*
X2692Y2564D01*
X2688Y2560D01*
X2687Y2557D01*
X2685Y2555D01*
X2683Y2550D01*
Y2547D01*
X2681Y2545D01*
Y2542D01*
Y2539D01*
X2683Y2536D01*
Y2533D01*
X2685Y2528D01*
X2687Y2526D01*
X2688Y2523D01*
X2692Y2519D01*
X2695Y2518D01*
X2696Y2517D01*
X2695Y2515D01*
X2692Y2514D01*
X2688Y2510D01*
X2687Y2507D01*
X2685Y2505D01*
X2683Y2500D01*
Y2497D01*
X2681Y2495D01*
Y2492D01*
Y2489D01*
X2683Y2486D01*
Y2483D01*
X2685Y2478D01*
X2687Y2476D01*
X2688Y2473D01*
X2692Y2469D01*
X2695Y2468D01*
X2696Y2466D01*
X2702Y2464D01*
X2705D01*
X2707Y2463D01*
X2790D01*
X2800Y2467D01*
X2803Y2474D01*
Y2337D01*
X2005D01*
X1663Y2679D01*
X1655Y2685D01*
X1645Y2687D01*
X743D01*
X733Y2685D01*
X725Y2679D01*
X617Y2571D01*
X611Y2563D01*
X609Y2553D01*
Y2350D01*
Y2123D01*
X611Y2113D01*
X617Y2105D01*
X632Y2090D01*
X640Y2084D01*
X642Y2084D01*
X484D01*
Y2791D01*
X751Y2790D01*
X756Y2792D01*
X761Y2794D01*
X761Y2794D01*
X761Y2794D01*
X762Y2796D01*
X763D01*
Y2799D01*
X763Y2799D01*
X765Y2804D01*
X766Y2902D01*
X766Y2902D01*
X766Y2902D01*
X764Y2907D01*
X763Y2908D01*
Y2916D01*
X757D01*
X744Y2929D01*
X744Y2929D01*
X744Y2929D01*
X739Y2931D01*
X734Y2934D01*
X734Y2934D01*
X734Y2934D01*
X479Y2935D01*
Y2939D01*
X471D01*
X467Y2943D01*
X457Y2947D01*
D02*
G37*
G36*
X1363Y2407D02*
X1259D01*
Y2292D01*
X1310D01*
Y2232D01*
X1300D01*
Y2162D01*
X1371D01*
Y2232D01*
X1361D01*
Y2292D01*
X1363D01*
Y2407D01*
D02*
G37*
G36*
X1291Y2232D02*
X1220D01*
Y2199D01*
X1191Y2170D01*
X1186Y2161D01*
X1184Y2151D01*
Y2133D01*
X1182Y2132D01*
X1170Y2120D01*
X1163Y2104D01*
Y2087D01*
X1170Y2071D01*
X1182Y2059D01*
X1198Y2052D01*
X1215D01*
X1231Y2059D01*
X1243Y2071D01*
X1250Y2087D01*
Y2104D01*
X1243Y2120D01*
X1236Y2127D01*
Y2141D01*
X1257Y2162D01*
X1291D01*
Y2232D01*
D02*
G37*
G36*
X3182Y2133D02*
X3068D01*
X3058Y2131D01*
X3050Y2125D01*
X2738Y1813D01*
X2732Y1805D01*
X2730Y1795D01*
Y1347D01*
X2628Y1245D01*
X1965D01*
X1956Y1243D01*
X1947Y1238D01*
X1798Y1088D01*
X1792Y1080D01*
X1790Y1070D01*
Y1013D01*
X1779Y1002D01*
X1773Y986D01*
Y969D01*
X1779Y953D01*
X1792Y941D01*
X1808Y935D01*
X1825D01*
X1841Y941D01*
X1853Y953D01*
X1854Y957D01*
X1856Y953D01*
X1868Y941D01*
X1884Y935D01*
X1901D01*
X1917Y941D01*
X1929Y953D01*
X1935Y969D01*
Y986D01*
X1929Y1002D01*
X1918Y1013D01*
Y1081D01*
X1992Y1155D01*
X2654D01*
X2664Y1157D01*
X2673Y1163D01*
X2812Y1302D01*
X2818Y1311D01*
X2820Y1321D01*
Y1768D01*
X2913Y1862D01*
Y1772D01*
X3089D01*
Y1803D01*
X3102D01*
X3112Y1792D01*
X3128Y1786D01*
X3145D01*
X3161Y1792D01*
X3174Y1804D01*
X3180Y1820D01*
Y1837D01*
X3174Y1853D01*
X3161Y1865D01*
X3145Y1872D01*
X3128D01*
X3112Y1865D01*
X3102Y1855D01*
X3089D01*
Y1888D01*
X2939D01*
X3032Y1981D01*
X3068D01*
Y1919D01*
X3183D01*
Y2069D01*
X3195Y2058D01*
Y1919D01*
X3310D01*
Y2094D01*
X3232D01*
X3201Y2125D01*
X3192Y2131D01*
X3182Y2133D01*
D02*
G37*
G36*
X1914Y2113D02*
X1896D01*
X1881Y2107D01*
X1868Y2095D01*
X1862Y2079D01*
Y2062D01*
X1868Y2046D01*
X1881Y2033D01*
X1896Y2027D01*
X1912D01*
X2051Y1887D01*
X2059Y1882D01*
X2069Y1880D01*
X2196D01*
Y1869D01*
X2271D01*
Y1880D01*
X2350D01*
Y1872D01*
X2420D01*
Y1881D01*
X2518D01*
Y1862D01*
X2635D01*
Y2000D01*
X2518D01*
Y1933D01*
X2420D01*
Y1942D01*
X2350D01*
Y1932D01*
X2271D01*
Y1942D01*
X2196D01*
Y1932D01*
X2080D01*
X1948Y2064D01*
Y2079D01*
X1942Y2095D01*
X1929Y2107D01*
X1914Y2113D01*
D02*
G37*
G36*
X4453Y2094D02*
X4338D01*
Y1919D01*
X4368D01*
Y1915D01*
X4358Y1904D01*
X4351Y1888D01*
Y1871D01*
X4358Y1855D01*
X4370Y1843D01*
X4386Y1836D01*
X4403D01*
X4419Y1843D01*
X4431Y1855D01*
X4437Y1871D01*
Y1888D01*
X4431Y1904D01*
X4420Y1915D01*
Y1919D01*
X4453D01*
Y2094D01*
D02*
G37*
G36*
X4326D02*
X4211D01*
Y1919D01*
X4241D01*
Y1915D01*
X4231Y1904D01*
X4224Y1888D01*
Y1871D01*
X4231Y1855D01*
X4243Y1843D01*
X4259Y1836D01*
X4276D01*
X4292Y1843D01*
X4304Y1855D01*
X4310Y1871D01*
Y1888D01*
X4304Y1904D01*
X4293Y1915D01*
Y1919D01*
X4326D01*
Y2094D01*
D02*
G37*
G36*
X4199D02*
X4084D01*
Y1919D01*
X4114D01*
Y1915D01*
X4104Y1904D01*
X4097Y1888D01*
Y1871D01*
X4104Y1855D01*
X4116Y1843D01*
X4132Y1836D01*
X4149D01*
X4165Y1843D01*
X4177Y1855D01*
X4183Y1871D01*
Y1888D01*
X4177Y1904D01*
X4166Y1915D01*
Y1919D01*
X4199D01*
Y2094D01*
D02*
G37*
G36*
X4072D02*
X3957D01*
Y1919D01*
X3987D01*
Y1915D01*
X3977Y1904D01*
X3970Y1888D01*
Y1871D01*
X3977Y1855D01*
X3989Y1843D01*
X4005Y1836D01*
X4022D01*
X4038Y1843D01*
X4050Y1855D01*
X4056Y1871D01*
Y1888D01*
X4050Y1904D01*
X4039Y1915D01*
Y1919D01*
X4072D01*
Y2094D01*
D02*
G37*
G36*
X3946D02*
X3830D01*
Y1919D01*
X3860D01*
Y1915D01*
X3850Y1904D01*
X3843Y1888D01*
Y1871D01*
X3850Y1855D01*
X3862Y1843D01*
X3878Y1836D01*
X3895D01*
X3911Y1843D01*
X3923Y1855D01*
X3929Y1871D01*
Y1888D01*
X3923Y1904D01*
X3912Y1915D01*
Y1919D01*
X3946D01*
Y2094D01*
D02*
G37*
G36*
X3819D02*
X3703D01*
Y1919D01*
X3733D01*
Y1915D01*
X3723Y1904D01*
X3716Y1888D01*
Y1871D01*
X3723Y1855D01*
X3735Y1843D01*
X3751Y1836D01*
X3768D01*
X3784Y1843D01*
X3796Y1855D01*
X3802Y1871D01*
Y1888D01*
X3796Y1904D01*
X3785Y1915D01*
Y1919D01*
X3819D01*
Y2094D01*
D02*
G37*
G36*
X3692D02*
X3576D01*
Y1919D01*
X3606D01*
Y1915D01*
X3596Y1904D01*
X3589Y1888D01*
Y1871D01*
X3596Y1855D01*
X3608Y1843D01*
X3624Y1836D01*
X3641D01*
X3657Y1843D01*
X3669Y1855D01*
X3675Y1871D01*
Y1888D01*
X3669Y1904D01*
X3658Y1915D01*
Y1919D01*
X3692D01*
Y2094D01*
D02*
G37*
G36*
X3565D02*
X3449D01*
Y1919D01*
X3479D01*
Y1915D01*
X3469Y1904D01*
X3462Y1888D01*
Y1871D01*
X3469Y1855D01*
X3481Y1843D01*
X3497Y1836D01*
X3514D01*
X3530Y1843D01*
X3542Y1855D01*
X3548Y1871D01*
Y1888D01*
X3542Y1904D01*
X3531Y1915D01*
Y1919D01*
X3565D01*
Y2094D01*
D02*
G37*
G36*
X3438D02*
X3322D01*
Y1919D01*
X3352D01*
Y1915D01*
X3342Y1904D01*
X3335Y1888D01*
Y1871D01*
X3342Y1855D01*
X3354Y1843D01*
X3370Y1836D01*
X3387D01*
X3403Y1843D01*
X3415Y1855D01*
X3421Y1871D01*
Y1888D01*
X3415Y1904D01*
X3404Y1915D01*
Y1919D01*
X3438D01*
Y2094D01*
D02*
G37*
G36*
X3089Y1761D02*
X2913D01*
Y1645D01*
X3089D01*
Y1761D01*
D02*
G37*
G36*
X2006Y1727D02*
X1875D01*
Y1637D01*
X2006D01*
Y1727D01*
D02*
G37*
G36*
X772D02*
X641D01*
Y1637D01*
X772D01*
Y1727D01*
D02*
G37*
G36*
X3089Y1634D02*
X2913D01*
Y1518D01*
X3089D01*
Y1549D01*
X3102D01*
X3112Y1538D01*
X3128Y1532D01*
X3145D01*
X3161Y1538D01*
X3174Y1550D01*
X3180Y1566D01*
Y1583D01*
X3174Y1599D01*
X3161Y1611D01*
X3145Y1618D01*
X3128D01*
X3112Y1611D01*
X3102Y1601D01*
X3089D01*
Y1634D01*
D02*
G37*
G36*
X1591Y1512D02*
X1460D01*
Y1422D01*
X1591D01*
Y1512D01*
D02*
G37*
G36*
X357D02*
X226D01*
Y1422D01*
X357D01*
Y1512D01*
D02*
G37*
G36*
X3089Y1507D02*
X2913D01*
Y1391D01*
X3089D01*
Y1507D01*
D02*
G37*
G36*
Y1380D02*
X2913D01*
Y1264D01*
X3089D01*
Y1295D01*
X3102D01*
X3112Y1284D01*
X3128Y1278D01*
X3145D01*
X3161Y1284D01*
X3174Y1296D01*
X3180Y1312D01*
Y1329D01*
X3174Y1345D01*
X3161Y1357D01*
X3145Y1364D01*
X3128D01*
X3112Y1357D01*
X3102Y1347D01*
X3089D01*
Y1380D01*
D02*
G37*
G36*
X2233Y1842D02*
X2221Y1839D01*
X2196D01*
Y1809D01*
X2194Y1803D01*
Y1637D01*
X1764Y1207D01*
X1665D01*
X1653Y1215D01*
X1633Y1219D01*
X1552D01*
X1532Y1215D01*
X1516Y1204D01*
X1505Y1188D01*
X1501Y1168D01*
X1505Y1149D01*
X1516Y1132D01*
X1532Y1121D01*
X1552Y1118D01*
X1554D01*
Y1098D01*
X1226Y771D01*
X1212D01*
Y754D01*
X1209Y749D01*
X1206Y734D01*
Y727D01*
X1209Y712D01*
X1212Y707D01*
Y697D01*
X1219D01*
X1443Y473D01*
Y450D01*
X1446Y435D01*
X1449Y430D01*
Y367D01*
X1645D01*
Y533D01*
X1631D01*
Y544D01*
X1688Y602D01*
X1694Y610D01*
X1696Y620D01*
Y729D01*
X1761D01*
Y795D01*
X1696D01*
Y859D01*
X1698D01*
X1714Y865D01*
X1726Y877D01*
X1732Y893D01*
Y910D01*
X1726Y926D01*
X1714Y938D01*
X1698Y945D01*
X1681D01*
X1665Y938D01*
X1652Y926D01*
X1646Y910D01*
Y893D01*
X1649Y887D01*
X1646Y883D01*
X1645Y876D01*
X1643Y883D01*
X1641Y887D01*
X1643Y893D01*
Y910D01*
X1637Y926D01*
X1625Y938D01*
X1609Y945D01*
X1592D01*
X1576Y938D01*
X1564Y926D01*
X1557Y910D01*
Y893D01*
X1564Y877D01*
X1576Y865D01*
X1592Y859D01*
X1593D01*
Y795D01*
X1528D01*
Y729D01*
X1593D01*
Y652D01*
X1536Y595D01*
X1530Y586D01*
X1528Y576D01*
Y533D01*
X1494D01*
X1296Y730D01*
X1620Y1054D01*
X1628Y1067D01*
X1631Y1082D01*
Y1118D01*
X1633D01*
X1653Y1121D01*
X1665Y1130D01*
X1780D01*
X1795Y1133D01*
X1808Y1141D01*
X2261Y1594D01*
X2269Y1606D01*
X2272Y1621D01*
Y1803D01*
X2271Y1809D01*
Y1839D01*
X2245D01*
X2233Y1842D01*
D02*
G37*
G36*
X3089Y1253D02*
X2913D01*
Y1137D01*
X3089D01*
Y1168D01*
X3102D01*
X3112Y1157D01*
X3128Y1151D01*
X3145D01*
X3161Y1157D01*
X3174Y1169D01*
X3180Y1185D01*
Y1202D01*
X3174Y1218D01*
X3161Y1230D01*
X3145Y1237D01*
X3128D01*
X3112Y1230D01*
X3102Y1220D01*
X3089D01*
Y1253D01*
D02*
G37*
G36*
Y1126D02*
X2913D01*
Y1010D01*
X3089D01*
Y1041D01*
X3102D01*
X3112Y1030D01*
X3128Y1024D01*
X3145D01*
X3161Y1030D01*
X3174Y1042D01*
X3180Y1058D01*
Y1075D01*
X3174Y1091D01*
X3161Y1103D01*
X3145Y1110D01*
X3128D01*
X3112Y1103D01*
X3102Y1093D01*
X3089D01*
Y1126D01*
D02*
G37*
G36*
Y999D02*
X2913D01*
Y883D01*
X3089D01*
Y914D01*
X3102D01*
X3112Y903D01*
X3128Y897D01*
X3145D01*
X3161Y903D01*
X3174Y915D01*
X3180Y931D01*
Y948D01*
X3174Y964D01*
X3161Y976D01*
X3145Y983D01*
X3128D01*
X3112Y976D01*
X3102Y966D01*
X3089D01*
Y999D01*
D02*
G37*
G36*
X2560Y989D02*
X2385D01*
Y864D01*
X2560D01*
Y901D01*
X2628D01*
Y892D01*
X2698D01*
Y962D01*
X2628D01*
Y953D01*
X2560D01*
Y989D01*
D02*
G37*
G36*
X468Y1219D02*
X386D01*
X367Y1215D01*
X350Y1204D01*
X339Y1188D01*
X336Y1174D01*
X176Y1013D01*
X167Y1000D01*
X164Y985D01*
Y823D01*
X167Y808D01*
X176Y795D01*
X253Y718D01*
Y665D01*
X256Y650D01*
X264Y637D01*
X428Y473D01*
Y450D01*
X431Y435D01*
X434Y430D01*
Y367D01*
X630D01*
Y533D01*
X623D01*
Y567D01*
X785Y729D01*
X822D01*
Y758D01*
X914Y850D01*
X1082D01*
X1093Y840D01*
X1109Y833D01*
X1126D01*
X1142Y840D01*
X1154Y852D01*
X1161Y868D01*
Y885D01*
X1154Y901D01*
X1142Y913D01*
X1138Y914D01*
X1142Y916D01*
X1154Y928D01*
X1161Y944D01*
Y961D01*
X1154Y977D01*
X1142Y989D01*
X1126Y996D01*
X1109D01*
X1093Y989D01*
X1082Y978D01*
X807D01*
X797Y976D01*
X788Y971D01*
X612Y795D01*
X575D01*
Y766D01*
X514Y704D01*
X508Y696D01*
X506Y686D01*
Y533D01*
X478D01*
X330Y681D01*
Y734D01*
X328Y749D01*
X324Y754D01*
Y771D01*
X310D01*
X242Y839D01*
Y969D01*
X390Y1118D01*
X468D01*
X487Y1121D01*
X504Y1132D01*
X515Y1149D01*
X518Y1168D01*
X515Y1188D01*
X504Y1204D01*
X487Y1215D01*
X468Y1219D01*
D02*
G37*
G36*
X3089Y872D02*
X2913D01*
Y756D01*
X3089D01*
Y872D01*
D02*
G37*
G36*
Y745D02*
X2913D01*
Y629D01*
X3089D01*
Y745D01*
D02*
G37*
G36*
X2480Y561D02*
X2374D01*
Y534D01*
X2338D01*
Y543D01*
X2268D01*
Y473D01*
X2338D01*
Y482D01*
X2374D01*
Y455D01*
X2480D01*
Y561D01*
D02*
G37*
G36*
X3089Y618D02*
X2913D01*
Y502D01*
X3089D01*
Y618D01*
D02*
G37*
G36*
Y491D02*
X2913D01*
Y375D01*
X3089D01*
Y491D01*
D02*
G37*
G36*
X4657Y424D02*
X4640D01*
X4624Y418D01*
X4612Y405D01*
X4605Y390D01*
Y372D01*
X4612Y357D01*
X4622Y346D01*
Y344D01*
X4592D01*
Y169D01*
X4708D01*
Y344D01*
X4674D01*
Y346D01*
X4685Y357D01*
X4691Y372D01*
Y390D01*
X4685Y405D01*
X4673Y418D01*
X4657Y424D01*
D02*
G37*
G36*
X4530D02*
X4513D01*
X4497Y418D01*
X4485Y405D01*
X4478Y390D01*
Y372D01*
X4485Y357D01*
X4495Y346D01*
Y344D01*
X4465D01*
Y169D01*
X4581D01*
Y344D01*
X4547D01*
Y346D01*
X4558Y357D01*
X4564Y372D01*
Y390D01*
X4558Y405D01*
X4546Y418D01*
X4530Y424D01*
D02*
G37*
G36*
X4403D02*
X4386D01*
X4370Y418D01*
X4358Y405D01*
X4351Y390D01*
Y372D01*
X4358Y357D01*
X4368Y346D01*
Y344D01*
X4338D01*
Y169D01*
X4453D01*
Y344D01*
X4420D01*
Y346D01*
X4431Y357D01*
X4437Y372D01*
Y390D01*
X4431Y405D01*
X4419Y418D01*
X4403Y424D01*
D02*
G37*
G36*
X4276D02*
X4259D01*
X4243Y418D01*
X4231Y405D01*
X4224Y390D01*
Y372D01*
X4231Y357D01*
X4241Y346D01*
Y344D01*
X4211D01*
Y169D01*
X4326D01*
Y344D01*
X4293D01*
Y346D01*
X4304Y357D01*
X4310Y372D01*
Y390D01*
X4304Y405D01*
X4292Y418D01*
X4276Y424D01*
D02*
G37*
G36*
X4199Y344D02*
X4084D01*
Y169D01*
X4199D01*
Y344D01*
D02*
G37*
G36*
X4072D02*
X3957D01*
Y169D01*
X4072D01*
Y344D01*
D02*
G37*
G36*
X3946D02*
X3830D01*
Y169D01*
X3946D01*
Y344D01*
D02*
G37*
G36*
X3565D02*
X3449D01*
Y169D01*
X3565D01*
Y344D01*
D02*
G37*
G36*
X3438D02*
X3322D01*
Y169D01*
X3438D01*
Y344D01*
D02*
G37*
G36*
X3310D02*
X3195D01*
Y169D01*
X3310D01*
Y344D01*
D02*
G37*
G36*
X2230Y989D02*
X2055D01*
Y864D01*
X2175D01*
X2217Y822D01*
Y809D01*
X2055D01*
Y684D01*
X2217D01*
Y656D01*
X2135Y574D01*
X2127Y561D01*
X2124Y546D01*
Y289D01*
X2127Y274D01*
X2135Y261D01*
X2212Y184D01*
X2210Y175D01*
Y155D01*
X2215Y136D01*
X2225Y118D01*
X2239Y104D01*
X2257Y94D01*
X2276Y89D01*
X2296D01*
X2315Y94D01*
X2333Y104D01*
X2347Y118D01*
X2357Y136D01*
X2362Y155D01*
Y175D01*
X2361Y179D01*
X2470Y71D01*
X2478Y65D01*
X2488Y63D01*
X3623D01*
X3633Y65D01*
X3641Y71D01*
X3740Y169D01*
X3819D01*
Y344D01*
X3703D01*
Y206D01*
X3692Y194D01*
Y344D01*
X3576D01*
Y169D01*
X3608D01*
Y165D01*
X3596Y153D01*
X2764D01*
X2757Y160D01*
X2764D01*
X2780Y167D01*
X2791Y177D01*
X3068D01*
Y169D01*
X3183D01*
Y344D01*
X3068D01*
Y229D01*
X2791D01*
X2780Y240D01*
X2764Y246D01*
X2747D01*
X2731Y240D01*
X2726Y234D01*
Y589D01*
X2724Y599D01*
X2718Y608D01*
X2689Y637D01*
Y812D01*
X2698D01*
Y882D01*
X2628D01*
Y812D01*
X2637D01*
Y626D01*
X2639Y616D01*
X2645Y608D01*
X2674Y579D01*
Y180D01*
X2676Y170D01*
X2682Y162D01*
X2729Y115D01*
X2499D01*
X2249Y365D01*
Y473D01*
X2258D01*
Y543D01*
X2214D01*
X2283Y612D01*
X2292Y625D01*
X2294Y640D01*
Y838D01*
X2292Y850D01*
X2292Y853D01*
X2283Y866D01*
X2230Y918D01*
Y989D01*
D02*
G37*
%LPD*%
G36*
X1927Y4735D02*
Y4632D01*
X1878Y4584D01*
Y4481D01*
X2008D01*
X2013Y4463D01*
X1996Y4442D01*
X1958D01*
Y4442D01*
X1799D01*
Y4732D01*
X1803Y4737D01*
X1926D01*
X1927Y4735D01*
D02*
G37*
G36*
X3404Y3479D02*
Y3479D01*
X3405D01*
X3406Y3342D01*
X3388Y3324D01*
X3338D01*
Y2835D01*
X3493D01*
X3516Y2830D01*
Y2783D01*
X3510Y2351D01*
X3211D01*
Y3129D01*
X2562D01*
X2561Y3129D01*
X2544D01*
X2544Y3129D01*
X2486D01*
X2485Y3129D01*
X2468D01*
X2467Y3129D01*
X2426D01*
Y2933D01*
X2424Y2929D01*
Y2849D01*
X2424Y2849D01*
Y2846D01*
X2417Y2832D01*
X2409Y2823D01*
X2335D01*
X2327Y2819D01*
X2300D01*
X2298Y2820D01*
X2247D01*
X2172Y2896D01*
X1867D01*
Y2921D01*
X1802D01*
Y2924D01*
X1729D01*
Y2921D01*
X813Y2921D01*
X749Y2984D01*
X507D01*
Y3200D01*
X1205Y3202D01*
X1209Y3353D01*
X1803Y3353D01*
X1805Y3201D01*
X2175Y3204D01*
X2173Y3245D01*
X2190Y3264D01*
X2982D01*
X2985Y3428D01*
X3003Y3445D01*
X3098Y3443D01*
Y3369D01*
X3327D01*
Y3462D01*
X3345Y3480D01*
X3404Y3479D01*
D02*
G37*
G36*
X2518Y2849D02*
Y2846D01*
X2515Y2841D01*
X2511Y2836D01*
X2506Y2834D01*
X2500D01*
X2494Y2836D01*
X2490Y2841D01*
X2488Y2846D01*
Y2849D01*
Y2929D01*
X2518D01*
Y2849D01*
D02*
G37*
G36*
X2468D02*
Y2846D01*
X2465Y2841D01*
X2461Y2836D01*
X2456Y2834D01*
X2450D01*
X2444Y2836D01*
X2440Y2841D01*
X2438Y2846D01*
Y2849D01*
X2438D01*
Y2929D01*
X2468D01*
Y2849D01*
D02*
G37*
G36*
X2304Y2804D02*
X2308Y2800D01*
X2310Y2795D01*
Y2792D01*
Y2789D01*
X2308Y2783D01*
X2304Y2779D01*
X2298Y2777D01*
X2215D01*
Y2807D01*
X2298D01*
X2304Y2804D01*
D02*
G37*
G36*
Y2754D02*
X2308Y2750D01*
X2310Y2745D01*
Y2742D01*
Y2739D01*
X2308Y2733D01*
X2304Y2729D01*
X2298Y2727D01*
X2215D01*
Y2757D01*
X2298D01*
X2304Y2754D01*
D02*
G37*
G36*
X2295Y2707D02*
X2298D01*
X2304Y2704D01*
X2308Y2700D01*
X2310Y2695D01*
Y2692D01*
Y2689D01*
X2308Y2683D01*
X2304Y2679D01*
X2298Y2677D01*
X2215D01*
Y2707D01*
X2295Y2707D01*
D02*
G37*
G36*
X2304Y2654D02*
X2308Y2650D01*
X2310Y2645D01*
Y2642D01*
Y2639D01*
X2308Y2633D01*
X2304Y2629D01*
X2298Y2627D01*
X2215D01*
Y2657D01*
X2298D01*
X2304Y2654D01*
D02*
G37*
G36*
Y2604D02*
X2308Y2600D01*
X2310Y2595D01*
Y2592D01*
Y2589D01*
X2308Y2583D01*
X2304Y2579D01*
X2298Y2577D01*
X2295D01*
Y2577D01*
X2215D01*
Y2607D01*
X2298D01*
X2304Y2604D01*
D02*
G37*
G36*
Y2554D02*
X2308Y2550D01*
X2310Y2545D01*
Y2542D01*
Y2539D01*
X2308Y2533D01*
X2304Y2529D01*
X2298Y2527D01*
X2215D01*
Y2557D01*
X2298D01*
X2304Y2554D01*
D02*
G37*
G36*
Y2504D02*
X2308Y2500D01*
X2310Y2495D01*
Y2492D01*
Y2489D01*
X2308Y2483D01*
X2304Y2479D01*
X2298Y2477D01*
X2215D01*
Y2507D01*
X2298D01*
X2304Y2504D01*
D02*
G37*
G36*
X2668Y2849D02*
Y2846D01*
X2665Y2841D01*
X2661Y2836D01*
X2656Y2834D01*
X2650D01*
X2644Y2836D01*
X2640Y2841D01*
X2638Y2846D01*
Y2849D01*
Y2929D01*
X2668D01*
Y2849D01*
D02*
G37*
G36*
X2618D02*
Y2846D01*
X2615Y2841D01*
X2611Y2836D01*
X2606Y2834D01*
X2600D01*
X2594Y2836D01*
X2590Y2841D01*
X2588Y2846D01*
Y2849D01*
Y2929D01*
X2618D01*
Y2849D01*
D02*
G37*
G36*
X2661Y2447D02*
X2665Y2443D01*
X2668Y2437D01*
Y2434D01*
Y2354D01*
X2638D01*
Y2434D01*
Y2437D01*
X2640Y2443D01*
X2644Y2447D01*
X2650Y2449D01*
X2656D01*
X2661Y2447D01*
D02*
G37*
G36*
X2611D02*
X2615Y2443D01*
X2618Y2437D01*
Y2434D01*
Y2354D01*
X2588D01*
Y2434D01*
Y2437D01*
X2590Y2443D01*
X2594Y2447D01*
X2600Y2449D01*
X2606D01*
X2611Y2447D01*
D02*
G37*
G36*
X2561D02*
X2565Y2443D01*
X2568Y2437D01*
Y2434D01*
X2568D01*
Y2354D01*
X2538D01*
Y2434D01*
Y2437D01*
X2540Y2443D01*
X2544Y2447D01*
X2550Y2449D01*
X2556D01*
X2561Y2447D01*
D02*
G37*
G36*
X2511D02*
X2515Y2443D01*
X2518Y2437D01*
Y2434D01*
Y2354D01*
X2488D01*
Y2434D01*
Y2437D01*
X2490Y2443D01*
X2494Y2447D01*
X2500Y2449D01*
X2506D01*
X2511Y2447D01*
D02*
G37*
G36*
X2461D02*
X2465Y2443D01*
X2468Y2437D01*
Y2434D01*
Y2354D01*
X2438D01*
X2438Y2434D01*
Y2437D01*
X2440Y2443D01*
X2444Y2447D01*
X2450Y2449D01*
X2456D01*
X2461Y2447D01*
D02*
G37*
G36*
X2411D02*
X2415Y2443D01*
X2418Y2437D01*
Y2434D01*
Y2354D01*
X2388D01*
Y2434D01*
Y2437D01*
X2390Y2443D01*
X2394Y2447D01*
X2400Y2449D01*
X2406D01*
X2411Y2447D01*
D02*
G37*
G36*
X2361D02*
X2365Y2443D01*
X2368Y2437D01*
Y2434D01*
Y2354D01*
X2338D01*
Y2434D01*
Y2437D01*
X2340Y2443D01*
X2344Y2447D01*
X2350Y2449D01*
X2356D01*
X2361Y2447D01*
D02*
G37*
G36*
X470Y2921D02*
X734Y2920D01*
X752Y2902D01*
X751Y2804D01*
X470Y2805D01*
Y2070D01*
X1118D01*
X1143Y2045D01*
Y1334D01*
X1334D01*
Y1130D01*
X686D01*
Y1346D01*
X838D01*
Y1867D01*
X338D01*
X335Y1871D01*
Y1888D01*
X330Y1900D01*
Y2070D01*
X140Y2260D01*
Y2931D01*
X201D01*
Y2934D01*
X457D01*
X470Y2921D01*
D02*
G37*
G36*
X2790Y2777D02*
X2707D01*
X2702Y2779D01*
X2697Y2783D01*
X2695Y2789D01*
Y2792D01*
Y2795D01*
X2697Y2800D01*
X2702Y2804D01*
X2707Y2807D01*
X2790D01*
Y2777D01*
D02*
G37*
G36*
X3098Y2783D02*
Y2753D01*
X3097Y2755D01*
X3085Y2767D01*
X3069Y2774D01*
X3052D01*
X3036Y2767D01*
X3026Y2756D01*
X3010D01*
Y2766D01*
X2939D01*
Y2695D01*
X3010D01*
Y2705D01*
X3026D01*
X3036Y2694D01*
X3052Y2687D01*
X3069D01*
X3085Y2694D01*
X3097Y2706D01*
X3098Y2708D01*
Y2664D01*
X3097Y2666D01*
X3085Y2678D01*
X3069Y2685D01*
X3052D01*
X3036Y2678D01*
X3026Y2667D01*
X3010D01*
Y2677D01*
X2939D01*
Y2606D01*
X3010D01*
Y2616D01*
X3026D01*
X3036Y2605D01*
X3052Y2598D01*
X3069D01*
X3085Y2605D01*
X3097Y2617D01*
X3098Y2620D01*
Y2373D01*
X3025Y2299D01*
X2838D01*
X2847Y2308D01*
X2853Y2316D01*
X2855Y2326D01*
Y2554D01*
X2853Y2564D01*
X2847Y2572D01*
X2810Y2610D01*
X2801Y2615D01*
X2800Y2615D01*
X2800Y2616D01*
X2859D01*
Y2606D01*
X2930D01*
Y2677D01*
X2877D01*
X2896Y2695D01*
X2930D01*
Y2766D01*
X2859D01*
Y2732D01*
X2845Y2717D01*
X2800D01*
X2804Y2727D01*
Y2757D01*
X2800Y2766D01*
X2799Y2767D01*
X2800Y2767D01*
X2804Y2777D01*
Y2807D01*
X2801Y2813D01*
X2845Y2857D01*
X3025D01*
X3098Y2783D01*
D02*
G37*
G36*
X2790Y2727D02*
X2707D01*
X2702Y2729D01*
X2697Y2733D01*
X2695Y2739D01*
Y2742D01*
Y2745D01*
X2697Y2750D01*
X2702Y2754D01*
X2707Y2757D01*
X2790D01*
Y2727D01*
D02*
G37*
G36*
Y2677D02*
X2707D01*
X2702Y2679D01*
X2697Y2683D01*
X2695Y2689D01*
Y2692D01*
Y2695D01*
X2697Y2700D01*
X2702Y2704D01*
X2707Y2707D01*
X2710D01*
Y2707D01*
X2790D01*
Y2677D01*
D02*
G37*
G36*
Y2627D02*
X2707D01*
X2702Y2629D01*
X2697Y2633D01*
X2695Y2639D01*
Y2642D01*
Y2645D01*
X2697Y2650D01*
X2702Y2654D01*
X2707Y2657D01*
X2790D01*
Y2627D01*
D02*
G37*
G36*
Y2577D02*
X2710Y2577D01*
X2707D01*
X2702Y2579D01*
X2697Y2583D01*
X2695Y2589D01*
Y2592D01*
Y2595D01*
X2697Y2600D01*
X2702Y2604D01*
X2707Y2607D01*
X2790D01*
Y2577D01*
D02*
G37*
G36*
Y2527D02*
X2707D01*
X2702Y2529D01*
X2697Y2533D01*
X2695Y2539D01*
Y2542D01*
Y2545D01*
X2697Y2550D01*
X2702Y2554D01*
X2707Y2557D01*
X2790D01*
Y2527D01*
D02*
G37*
G36*
Y2477D02*
X2707D01*
X2702Y2479D01*
X2697Y2483D01*
X2695Y2489D01*
Y2492D01*
Y2495D01*
X2697Y2500D01*
X2702Y2504D01*
X2707Y2507D01*
X2790D01*
Y2477D01*
D02*
G37*
G36*
X1969Y2299D02*
X1777D01*
X1767Y2297D01*
X1758Y2292D01*
X1657Y2191D01*
Y2255D01*
X1635D01*
Y2556D01*
X1634Y2566D01*
X1628Y2574D01*
X1567Y2635D01*
X1634D01*
X1969Y2299D01*
D02*
G37*
G36*
X927Y2610D02*
X860D01*
Y2496D01*
X964D01*
Y2573D01*
X987Y2597D01*
X1355D01*
Y2547D01*
X1327D01*
X1317Y2545D01*
X1309Y2539D01*
X1109Y2339D01*
X1103Y2331D01*
X1101Y2321D01*
Y2242D01*
X984D01*
Y2189D01*
X964Y2168D01*
Y2232D01*
X955D01*
Y2254D01*
X993Y2292D01*
X1060D01*
Y2407D01*
X956D01*
Y2329D01*
X911Y2283D01*
X905Y2275D01*
X903Y2265D01*
Y2232D01*
X894D01*
Y2162D01*
X958D01*
X930Y2134D01*
X661D01*
Y2324D01*
X763D01*
Y2292D01*
X867D01*
Y2407D01*
X763D01*
Y2375D01*
X661D01*
Y2542D01*
X754Y2635D01*
X952D01*
X927Y2610D01*
D02*
G37*
%LPC*%
G36*
X750Y2240D02*
X733D01*
X717Y2234D01*
X705Y2222D01*
X699Y2206D01*
Y2189D01*
X705Y2173D01*
X717Y2160D01*
X733Y2154D01*
X750D01*
X766Y2160D01*
X777Y2171D01*
X814D01*
Y2162D01*
X884D01*
Y2232D01*
X814D01*
Y2223D01*
X777D01*
X766Y2234D01*
X750Y2240D01*
D02*
G37*
%LPD*%
G36*
X1093Y916D02*
X1097Y914D01*
X1093Y913D01*
X1082Y902D01*
X903D01*
X893Y900D01*
X885Y895D01*
X785Y795D01*
X748D01*
Y766D01*
X579Y596D01*
X573Y588D01*
X571Y578D01*
Y533D01*
X558D01*
Y675D01*
X612Y729D01*
X649D01*
Y758D01*
X817Y927D01*
X1082D01*
X1093Y916D01*
D02*
G37*
D19*
X2143Y926D02*
D03*
Y746D02*
D03*
X2473D02*
D03*
Y926D02*
D03*
D20*
X815Y2350D02*
D03*
X1008D02*
D03*
X912Y2553D02*
D03*
X1407D02*
D03*
X1504Y2350D02*
D03*
X1311D02*
D03*
D21*
X3170Y3656D02*
D03*
Y3606D02*
D03*
Y3556D02*
D03*
Y3506D02*
D03*
X3460D02*
D03*
Y3556D02*
D03*
Y3606D02*
D03*
Y3656D02*
D03*
D22*
X3240Y3436D02*
D03*
X3290D02*
D03*
X3340D02*
D03*
X3390D02*
D03*
Y3726D02*
D03*
X3340D02*
D03*
X3290D02*
D03*
X3240D02*
D03*
D23*
X3315Y3581D02*
D03*
D24*
X4777Y2007D02*
D03*
X4650D02*
D03*
X4523D02*
D03*
X4396D02*
D03*
X4269D02*
D03*
X4142D02*
D03*
X4015D02*
D03*
X3888D02*
D03*
X3761D02*
D03*
X3634D02*
D03*
X3507D02*
D03*
X3380D02*
D03*
X3253D02*
D03*
X3126D02*
D03*
Y257D02*
D03*
X3253D02*
D03*
X3380D02*
D03*
X3507D02*
D03*
X3634D02*
D03*
X3761D02*
D03*
X3888D02*
D03*
X4015D02*
D03*
X4142D02*
D03*
X4269D02*
D03*
X4396D02*
D03*
X4523D02*
D03*
X4650D02*
D03*
X4777D02*
D03*
D25*
X3001Y1830D02*
D03*
Y1703D02*
D03*
Y1576D02*
D03*
Y1449D02*
D03*
Y1322D02*
D03*
Y1195D02*
D03*
Y1068D02*
D03*
Y941D02*
D03*
Y814D02*
D03*
Y687D02*
D03*
Y560D02*
D03*
Y433D02*
D03*
D26*
X4242Y1268D02*
D03*
X4392Y1418D02*
D03*
X4242D02*
D03*
X4092D02*
D03*
Y1268D02*
D03*
Y1118D02*
D03*
X4242D02*
D03*
X4392D02*
D03*
Y1268D02*
D03*
D27*
X1245Y866D02*
D03*
Y734D02*
D03*
X292Y866D02*
D03*
Y734D02*
D03*
D28*
X1433Y762D02*
D03*
X1565D02*
D03*
X1857D02*
D03*
X1725D02*
D03*
X480D02*
D03*
X612D02*
D03*
X917D02*
D03*
X785D02*
D03*
D29*
X663Y3316D02*
D03*
Y3086D02*
D03*
Y2856D02*
D03*
D30*
X1293Y3086D02*
D03*
D31*
X2233Y1905D02*
D03*
Y1803D02*
D03*
D32*
X707Y1467D02*
D03*
X292D02*
D03*
X707Y1682D02*
D03*
X292D02*
D03*
X1941Y1467D02*
D03*
X1526D02*
D03*
X1941Y1682D02*
D03*
X1526D02*
D03*
D33*
X150Y4451D02*
D03*
Y4946D02*
D03*
Y3640D02*
D03*
Y4135D02*
D03*
X4740Y4147D02*
D03*
Y3652D02*
D03*
Y4958D02*
D03*
Y4463D02*
D03*
D34*
X470Y4635D02*
D03*
Y4760D02*
D03*
Y3825D02*
D03*
Y3950D02*
D03*
X4420Y3962D02*
D03*
Y3837D02*
D03*
Y4773D02*
D03*
Y4648D02*
D03*
D35*
X965Y5563D02*
D03*
X1460D02*
D03*
X158Y5565D02*
D03*
X653D02*
D03*
X2596D02*
D03*
X3091D02*
D03*
X1778Y5563D02*
D03*
X2273D02*
D03*
X4222Y5565D02*
D03*
X4717D02*
D03*
X3409D02*
D03*
X3904D02*
D03*
D36*
X1150Y5243D02*
D03*
X1275D02*
D03*
X343Y5245D02*
D03*
X468D02*
D03*
X2781D02*
D03*
X2906D02*
D03*
X1963Y5243D02*
D03*
X2088D02*
D03*
X4407Y5245D02*
D03*
X4532D02*
D03*
X3594D02*
D03*
X3719D02*
D03*
D37*
X4133Y2884D02*
D03*
Y3084D02*
D03*
D38*
X4708Y2650D02*
D03*
Y3319D02*
D03*
D39*
X3613Y2578D02*
D03*
X3442Y3226D02*
D03*
X1252Y1753D02*
D03*
Y1499D02*
D03*
X1086Y1753D02*
D03*
Y1499D02*
D03*
X3448Y2578D02*
D03*
X3277Y3226D02*
D03*
D40*
X2019Y3454D02*
D03*
X2577Y508D02*
D03*
X1869Y3454D02*
D03*
X2427Y508D02*
D03*
D41*
X394Y3029D02*
D03*
X1549Y2826D02*
D03*
X2299Y3359D02*
D03*
X394Y2864D02*
D03*
X1549Y2991D02*
D03*
X2299Y3194D02*
D03*
D42*
X165Y2970D02*
D03*
X1765Y2884D02*
D03*
X203Y2043D02*
D03*
X165Y2897D02*
D03*
X1765Y2958D02*
D03*
X203Y1970D02*
D03*
D43*
X2553Y2882D02*
D03*
X2403D02*
D03*
X2353D02*
D03*
X2743Y2592D02*
D03*
Y2792D02*
D03*
Y2742D02*
D03*
Y2692D02*
D03*
X2770Y2642D02*
D03*
X2743Y2542D02*
D03*
Y2492D02*
D03*
X2263D02*
D03*
Y2542D02*
D03*
Y2592D02*
D03*
X2230Y2642D02*
D03*
X2263Y2692D02*
D03*
Y2742D02*
D03*
Y2792D02*
D03*
X2653Y2402D02*
D03*
X2603D02*
D03*
X2553D02*
D03*
X2503Y2374D02*
D03*
X2453Y2402D02*
D03*
X2403D02*
D03*
X2353D02*
D03*
X2453Y2882D02*
D03*
X2503Y2914D02*
D03*
X2603Y2882D02*
D03*
X2653D02*
D03*
D44*
X2385Y1827D02*
D03*
X2663Y927D02*
D03*
X2385Y1907D02*
D03*
X2663Y847D02*
D03*
D45*
X2576Y1803D02*
D03*
Y1931D02*
D03*
D46*
X3389Y3010D02*
D03*
X1974Y4706D02*
D03*
X1451Y4388D02*
D03*
X1740Y1930D02*
D03*
X3556Y2794D02*
D03*
X1667Y1930D02*
D03*
X3316Y3010D02*
D03*
X3483Y2794D02*
D03*
X1901Y4706D02*
D03*
X1524Y4388D02*
D03*
D47*
X3632Y3672D02*
D03*
Y3391D02*
D03*
Y3592D02*
D03*
Y3471D02*
D03*
D48*
X1727Y165D02*
D03*
X1497D02*
D03*
X712Y165D02*
D03*
X482D02*
D03*
D49*
X1987Y165D02*
D03*
X1237D02*
D03*
X972Y165D02*
D03*
X222D02*
D03*
D50*
X1742Y450D02*
D03*
X1677D02*
D03*
X727Y450D02*
D03*
X662D02*
D03*
X467D02*
D03*
X532D02*
D03*
X597D02*
D03*
X1612Y450D02*
D03*
X1547D02*
D03*
X1482D02*
D03*
D51*
X1642Y4762D02*
D03*
X1418Y4541D02*
D03*
X4521Y2286D02*
D03*
X1424Y4236D02*
D03*
X4616Y2286D02*
D03*
X1610Y2210D02*
D03*
X1127Y2197D02*
D03*
X1032D02*
D03*
X1515Y2210D02*
D03*
X1513Y4541D02*
D03*
X1519Y4236D02*
D03*
X1737Y4762D02*
D03*
D52*
X2070Y2505D02*
D03*
X1765Y3804D02*
D03*
X2210Y3801D02*
D03*
X1981D02*
D03*
Y3896D02*
D03*
X2210D02*
D03*
X1765Y3899D02*
D03*
X2070Y2600D02*
D03*
D53*
X1682Y4312D02*
D03*
Y4062D02*
D03*
X1995Y4312D02*
D03*
Y4462D02*
D03*
Y4412D02*
D03*
Y4362D02*
D03*
Y4512D02*
D03*
Y4262D02*
D03*
Y4212D02*
D03*
Y4162D02*
D03*
Y4112D02*
D03*
X1682Y4162D02*
D03*
Y4212D02*
D03*
Y4362D02*
D03*
Y4412D02*
D03*
Y4462D02*
D03*
Y4512D02*
D03*
X1995Y4062D02*
D03*
X1682Y4112D02*
D03*
Y4262D02*
D03*
D54*
X1914Y4518D02*
D03*
X1764Y4056D02*
D03*
X1864D02*
D03*
Y4518D02*
D03*
X1814D02*
D03*
Y4056D02*
D03*
X1764Y4518D02*
D03*
X1914Y4056D02*
D03*
D55*
X4203Y2286D02*
D03*
X4331D02*
D03*
D56*
X2204Y4210D02*
D03*
Y4554D02*
D03*
Y4452D02*
D03*
Y4312D02*
D03*
D57*
X849Y2197D02*
D03*
X3571Y2400D02*
D03*
X3491D02*
D03*
X929Y2197D02*
D03*
X2303Y508D02*
D03*
X2223D02*
D03*
X1255Y2197D02*
D03*
X1335D02*
D03*
X2894Y2731D02*
D03*
Y2642D02*
D03*
X2975D02*
D03*
Y2731D02*
D03*
D58*
X1252Y1168D02*
D03*
X767D02*
D03*
D59*
X1859Y3302D02*
D03*
X1774D02*
D03*
D60*
X1968Y2946D02*
D03*
Y2845D02*
D03*
D61*
X3048Y3412D02*
D03*
Y3497D02*
D03*
D62*
X427Y1168D02*
D03*
X1592D02*
D03*
D63*
X2434Y4262D02*
D03*
Y4512D02*
D03*
D69*
X2503Y2642D02*
D03*
D70*
X3070Y3683D02*
X3095Y3659D01*
X3167D01*
X3061Y3683D02*
X3070D01*
X3290Y3727D02*
X3290Y3726D01*
Y3606D02*
Y3726D01*
Y3606D02*
X3315Y3581D01*
X292Y1682D02*
X292Y1683D01*
Y1880D01*
X203Y1967D02*
X290Y1880D01*
X203Y1967D02*
Y1970D01*
X290Y1880D02*
X292D01*
X2223Y354D02*
X2488Y89D01*
X3623D01*
X2223Y354D02*
Y508D01*
X2663Y626D02*
Y847D01*
Y626D02*
X2700Y589D01*
Y180D02*
Y589D01*
Y180D02*
X2753Y127D01*
X1892Y978D02*
Y1092D01*
X1816Y978D02*
Y1070D01*
X1670Y873D02*
X1689Y892D01*
Y902D01*
X1670Y777D02*
Y873D01*
X1619Y777D02*
Y873D01*
X1600Y892D02*
X1619Y873D01*
X1600Y892D02*
Y902D01*
X1905Y2070D02*
X2069Y1906D01*
X1670Y1930D02*
X1681Y1941D01*
Y1958D01*
X1933Y2210D01*
X4265D01*
X4320Y2286D02*
X4521D01*
X4287Y2253D02*
X4320Y2286D01*
X4287Y2232D02*
Y2253D01*
X4265Y2210D02*
X4287Y2232D01*
X4521Y2008D02*
Y2286D01*
Y2008D02*
X4523Y2007D01*
X742Y2197D02*
X849D01*
X1524Y1930D02*
X1670D01*
X1524Y1684D02*
Y1930D01*
Y1684D02*
X1526Y1682D01*
X1965Y1219D02*
X2639D01*
X1981Y1181D02*
X2654D01*
X2794Y1321D01*
X2639Y1219D02*
X2756Y1337D01*
X1816Y1070D02*
X1965Y1219D01*
X1892Y1092D02*
X1981Y1181D01*
X1813Y4055D02*
X1814Y4056D01*
X1813Y4014D02*
Y4055D01*
X1765Y3966D02*
X1813Y4014D01*
X1765Y3899D02*
Y3966D01*
X2858Y3962D02*
X4420D01*
X4365Y4773D02*
X4420D01*
X4278Y4686D02*
X4365Y4773D01*
X2743Y4686D02*
X4278D01*
X4192Y5245D02*
X4407D01*
X3781Y4834D02*
X4192Y5245D01*
X3266Y4834D02*
X3781D01*
X3235Y4864D02*
X3266Y4834D01*
X3226Y4864D02*
X3235D01*
X3594Y5245D02*
X3600Y5239D01*
Y4896D02*
Y5239D01*
Y4896D02*
X3607Y4890D01*
X2781Y4877D02*
Y5245D01*
X3188Y3848D02*
X3240Y3796D01*
Y3726D02*
Y3796D01*
X3289Y3848D02*
X3290Y3848D01*
Y3727D02*
Y3848D01*
X3384Y3848D02*
X3391D01*
X3340Y3804D02*
X3384Y3848D01*
X3340Y3726D02*
Y3804D01*
X3167Y3659D02*
X3170Y3656D01*
X1956Y4915D02*
X1959Y4919D01*
Y5239D01*
X1963Y5243D01*
X1154Y4920D02*
X1157Y4916D01*
X1154Y4920D02*
Y5239D01*
X1150Y5243D02*
X1154Y5239D01*
X783Y4750D02*
X978D01*
X343Y5190D02*
X783Y4750D01*
X343Y5190D02*
Y5245D01*
X470Y4635D02*
X826D01*
X850Y3824D02*
X851Y3823D01*
X471Y3824D02*
X850D01*
X470Y3825D02*
X471Y3824D01*
X1737Y4762D02*
X1739D01*
X1764Y4738D01*
Y4518D02*
Y4738D01*
X2310Y3897D02*
X2311Y3899D01*
X2211Y3897D02*
X2310D01*
X2210Y3896D02*
X2211Y3897D01*
X2094D02*
X2095Y3899D01*
X1983Y3897D02*
X2094D01*
X1981Y3896D02*
X1983Y3897D01*
X1914Y3966D02*
Y4056D01*
Y3966D02*
X1981Y3898D01*
Y3896D02*
Y3898D01*
X1995Y4062D02*
X2000Y4057D01*
X2051D01*
X2210Y3898D01*
Y3896D02*
Y3898D01*
X2453Y2976D02*
X2492Y3015D01*
X2498Y2957D02*
X2537Y2996D01*
X2476Y3076D02*
X2492Y3061D01*
X2553Y3076D02*
Y3086D01*
X2492Y3015D02*
Y3061D01*
X2537Y2996D02*
Y3061D01*
X2553Y3076D01*
X2476D02*
Y3086D01*
X1519Y4135D02*
Y4236D01*
X1518Y4134D02*
X1519Y4135D01*
Y4236D02*
X1519Y4236D01*
X1528Y4065D02*
X1575Y4112D01*
X1469Y4065D02*
X1528D01*
X1462Y4058D02*
X1469Y4065D01*
X1575Y4112D02*
X1682D01*
X2756Y203D02*
X3093D01*
X2753Y127D02*
X3607D01*
X3126Y236D02*
Y257D01*
X3093Y203D02*
X3126Y236D01*
X3623Y89D02*
X3761Y227D01*
X3607Y127D02*
X3634Y154D01*
X4267Y258D02*
X4269Y257D01*
X4267Y258D02*
Y381D01*
X4394Y258D02*
X4396Y257D01*
X4394Y258D02*
Y381D01*
X2069Y1906D02*
X2233D01*
X2233Y1905D01*
X3604Y3506D02*
X3619Y3491D01*
X3520Y3506D02*
X3521Y3506D01*
X3619Y3484D02*
Y3491D01*
Y3484D02*
X3632Y3471D01*
X3521Y3506D02*
X3604D01*
X3460Y3506D02*
X3520D01*
X3460Y3557D02*
X3604D01*
X3460Y3556D02*
X3460Y3557D01*
X3619Y3579D02*
X3632Y3592D01*
X3619Y3572D02*
Y3579D01*
X3604Y3557D02*
X3619Y3572D01*
X3832Y3114D02*
X3936Y3010D01*
X3972Y3025D02*
Y3047D01*
X3936Y3010D02*
X3957D01*
X3832Y3114D02*
Y3430D01*
X3705Y3557D02*
X3832Y3430D01*
X3646Y3572D02*
X3660Y3557D01*
X4009Y3084D02*
X4133D01*
X3972Y3047D02*
X4009Y3084D01*
X3646Y3572D02*
Y3579D01*
X3632Y3592D02*
X3646Y3579D01*
X3957Y3010D02*
X3972Y3025D01*
X3660Y3557D02*
X3705D01*
X3632Y3471D02*
X3646Y3484D01*
X3781Y3093D02*
X3915Y2959D01*
X3684Y3506D02*
X3781Y3409D01*
X3972Y2922D02*
Y2944D01*
X3915Y2959D02*
X3957D01*
X3781Y3093D02*
Y3409D01*
X3646Y3491D02*
X3660Y3506D01*
X3972Y2922D02*
X4009Y2884D01*
X3957Y2959D02*
X3972Y2944D01*
X4009Y2884D02*
X4133D01*
X3660Y3506D02*
X3684D01*
X3646Y3484D02*
Y3491D01*
X4267Y2005D02*
X4269Y2007D01*
X4267Y1880D02*
Y2005D01*
X3378D02*
X3380Y2007D01*
X3378Y1880D02*
Y2005D01*
X3002Y1575D02*
X3137D01*
X3002Y1829D02*
X3137D01*
X3505Y2005D02*
X3507Y2007D01*
X3505Y1880D02*
Y2005D01*
X3632D02*
X3634Y2007D01*
X3632Y1880D02*
Y2005D01*
X3759D02*
X3761Y2007D01*
X3759Y1880D02*
Y2005D01*
X4394Y1880D02*
Y2005D01*
X4396Y2007D01*
X4140Y1880D02*
Y2005D01*
X4142Y2007D01*
X4013Y1880D02*
Y2005D01*
X4015Y2007D01*
X3886Y1880D02*
Y2005D01*
X3888Y2007D01*
X3001Y1830D02*
X3002Y1829D01*
X3001Y1576D02*
X3002Y1575D01*
Y1321D02*
X3137D01*
X3001Y1322D02*
X3002Y1321D01*
Y1194D02*
X3137D01*
X3001Y1195D02*
X3002Y1194D01*
Y1067D02*
X3137D01*
X3001Y1068D02*
X3002Y1067D01*
Y940D02*
X3137D01*
X3001Y941D02*
X3002Y940D01*
X4648Y258D02*
Y381D01*
Y258D02*
X4650Y257D01*
X4521Y258D02*
Y381D01*
Y258D02*
X4523Y257D01*
X3142Y3506D02*
X3170D01*
X3133Y3497D02*
X3142Y3506D01*
X3048Y3497D02*
X3133D01*
X1859Y3445D02*
X1869Y3454D01*
X1859Y3302D02*
Y3445D01*
X2552Y1907D02*
X2576Y1931D01*
X2385Y1907D02*
X2552D01*
X2384Y1906D02*
X2385Y1907D01*
X2234Y1906D02*
X2384D01*
X2233Y1905D02*
X2234Y1906D01*
X2794Y1321D02*
Y1779D01*
X2756Y1337D02*
Y1795D01*
X3253Y2007D02*
Y2037D01*
X3182Y2107D02*
X3253Y2037D01*
X3068Y2107D02*
X3182D01*
X2756Y1795D02*
X3068Y2107D01*
X2794Y1779D02*
X3021Y2007D01*
X3126D01*
X903Y876D02*
X1118D01*
X789Y762D02*
X903Y876D01*
X785Y762D02*
X789D01*
X807Y952D02*
X1118D01*
X616Y762D02*
X807Y952D01*
X612Y762D02*
X616D01*
X781D02*
X785D01*
X597Y578D02*
X781Y762D01*
X597Y450D02*
Y578D01*
X608Y762D02*
X612D01*
X532Y686D02*
X608Y762D01*
X532Y450D02*
Y686D01*
X1685Y762D02*
X1725D01*
X1670Y777D02*
X1685Y762D01*
X1565D02*
X1604D01*
X1619Y777D01*
X1670Y747D02*
X1685Y762D01*
X1605Y555D02*
X1670Y620D01*
X1605Y457D02*
Y555D01*
Y457D02*
X1612Y450D01*
X1670Y620D02*
Y747D01*
X1554Y576D02*
X1619Y641D01*
X1547Y450D02*
X1554Y457D01*
X1619Y641D02*
Y747D01*
X1604Y762D02*
X1619Y747D01*
X1554Y457D02*
Y576D01*
X2503Y2914D02*
Y2915D01*
X2498Y2920D02*
X2503Y2915D01*
X2498Y2920D02*
Y2957D01*
X2453Y2882D02*
Y2976D01*
Y2882D02*
X2453Y2882D01*
X2473Y926D02*
X2473Y927D01*
X2663D01*
X2975Y2642D02*
X3061D01*
X2975Y2731D02*
X3061D01*
X2856Y2692D02*
X2894Y2731D01*
X2743Y2692D02*
X2856D01*
X2770Y2642D02*
X2894D01*
X2427Y508D02*
X2427Y508D01*
X2303Y508D02*
X2427D01*
X1210Y2151D02*
X1255Y2197D01*
X1210Y2099D02*
Y2151D01*
X1206Y2095D02*
X1210Y2099D01*
X2834Y2883D02*
X3035D01*
X3124Y2362D02*
Y2794D01*
X3035Y2883D02*
X3124Y2794D01*
X3035Y2273D02*
X3124Y2362D01*
X2743Y2792D02*
X2834Y2883D01*
X2194Y2742D02*
X2263D01*
X2158Y2705D02*
X2194Y2742D01*
X2084Y2705D02*
X2158D01*
X2032Y2757D02*
X2084Y2705D01*
X2032Y2757D02*
Y2782D01*
X1969Y2845D02*
X2032Y2782D01*
X1968Y2845D02*
X1969D01*
X2111Y2642D02*
X2230D01*
X2121Y2794D02*
X2123Y2792D01*
X2262D01*
X2263Y2792D01*
X1681Y4261D02*
X1682Y4262D01*
X1620Y4261D02*
X1681D01*
X1596Y4236D02*
X1620Y4261D01*
X1519Y4236D02*
X1596D01*
X1682Y4362D02*
X1682Y4362D01*
X1620Y4362D02*
X1682D01*
X1594Y4388D02*
X1620Y4362D01*
X1524Y4388D02*
X1594D01*
X1676Y4512D02*
X1682D01*
X1647Y4541D02*
X1676Y4512D01*
X1513Y4541D02*
X1647D01*
X2092Y2623D02*
X2111Y2642D01*
X2090Y2623D02*
X2092D01*
X2070Y2603D02*
X2090Y2623D01*
X2070Y2600D02*
Y2603D01*
X1529Y2134D02*
X1637D01*
X1777Y2273D01*
X1515Y2148D02*
Y2339D01*
X1127Y2197D02*
Y2321D01*
X1327Y2521D02*
X1380D01*
X1127Y2321D02*
X1327Y2521D01*
X1380D02*
X1407Y2548D01*
Y2553D01*
X743Y2661D02*
X1645D01*
X977Y2623D02*
X1543D01*
X650Y2108D02*
X941D01*
X635Y2123D02*
Y2350D01*
Y2123D02*
X650Y2108D01*
X635Y2553D02*
X743Y2661D01*
X635Y2350D02*
Y2553D01*
Y2350D02*
X815D01*
X1030Y2197D02*
X1032D01*
X941Y2108D02*
X1030Y2197D01*
X1008Y2344D02*
Y2350D01*
X929Y2265D02*
X1008Y2344D01*
X929Y2197D02*
Y2265D01*
X1543Y2623D02*
X1610Y2556D01*
Y2210D02*
Y2556D01*
X912Y2558D02*
X977Y2623D01*
X912Y2553D02*
Y2558D01*
X1645Y2661D02*
X1994Y2311D01*
X2829Y2326D02*
Y2554D01*
X1994Y2311D02*
X2814D01*
X2829Y2326D01*
X2791Y2591D02*
X2829Y2554D01*
X2743Y2591D02*
X2791D01*
X2743Y2592D02*
X2743Y2591D01*
X1777Y2273D02*
X3035D01*
X3634Y154D02*
Y257D01*
X3761Y227D02*
Y257D01*
X1515Y2148D02*
X1529Y2134D01*
X1504Y2350D02*
X1515Y2339D01*
X1311Y2350D02*
X1335Y2325D01*
Y2197D02*
Y2325D01*
X2394Y4512D02*
X2434D01*
X2333Y4452D02*
X2394Y4512D01*
X2204Y4452D02*
X2333D01*
X2394Y4262D02*
X2434D01*
X2343Y4312D02*
X2394Y4262D01*
X2204Y4312D02*
X2343D01*
X2155Y4362D02*
X2204Y4312D01*
X1995Y4362D02*
X2155D01*
X2164Y4412D02*
X2204Y4452D01*
X1995Y4412D02*
X2164D01*
D71*
X1774Y3302D02*
Y3591D01*
X1981Y3798D01*
Y3801D01*
X2210D01*
X368Y3315D02*
X484Y3199D01*
X510D01*
X623Y3086D01*
X663D01*
X2162Y546D02*
X2256Y640D01*
X2162Y289D02*
Y546D01*
X2256Y640D02*
Y838D01*
X2162Y289D02*
X2286Y165D01*
X2143Y926D02*
X2168D01*
X2256Y838D01*
X2233Y1621D02*
Y1803D01*
X1780Y1168D02*
X2233Y1621D01*
X1592Y1168D02*
X1780D01*
X1592Y1082D02*
Y1168D01*
X1245Y734D02*
X1592Y1082D01*
X1245Y727D02*
Y734D01*
Y727D02*
X1482Y489D01*
Y450D02*
Y489D01*
X203Y823D02*
X292Y734D01*
X203Y823D02*
Y985D01*
X386Y1168D01*
X427D01*
X292Y665D02*
Y734D01*
Y665D02*
X467Y489D01*
Y450D02*
Y489D01*
X1283Y4375D02*
X1422Y4236D01*
X1283Y4648D02*
X1468Y4833D01*
X1283Y4375D02*
Y4648D01*
X1468Y4833D02*
X1787D01*
X4650Y2007D02*
Y2037D01*
X4616Y2070D02*
X4650Y2037D01*
X4616Y2070D02*
Y2286D01*
X4614D02*
X4616D01*
X4607Y2293D02*
X4614Y2286D01*
X4607Y2293D02*
Y2322D01*
X4528Y2400D02*
X4607Y2322D01*
X3571Y2400D02*
X4528D01*
X1931Y4768D02*
X2535D01*
X2680Y3551D02*
Y4623D01*
X2535Y4768D02*
X2680Y4623D01*
X2387Y3258D02*
X2680Y3551D01*
X1899Y4707D02*
X1901Y4706D01*
X1899Y4707D02*
Y4721D01*
X1787Y4833D02*
X1899Y4721D01*
X1422Y4236D02*
X1424D01*
X1901Y4706D02*
Y4706D01*
X1905Y4710D01*
Y4741D01*
X1931Y4768D01*
X2373Y3258D02*
X2387D01*
X2309Y3194D02*
X2373Y3258D01*
X2299Y3194D02*
X2309D01*
D72*
X3061Y3683D02*
D03*
X4547Y5524D02*
D03*
Y5017D02*
D03*
Y4508D02*
D03*
Y4254D02*
D03*
Y3747D02*
D03*
Y3492D02*
D03*
Y2984D02*
D03*
Y2476D02*
D03*
Y1715D02*
D03*
Y1460D02*
D03*
Y1206D02*
D03*
Y952D02*
D03*
Y699D02*
D03*
X4293Y5017D02*
D03*
Y4508D02*
D03*
Y4254D02*
D03*
Y3747D02*
D03*
Y3492D02*
D03*
Y3238D02*
D03*
Y1715D02*
D03*
Y952D02*
D03*
Y699D02*
D03*
X4039Y5524D02*
D03*
Y5271D02*
D03*
Y4762D02*
D03*
Y4508D02*
D03*
Y4254D02*
D03*
Y3747D02*
D03*
Y3492D02*
D03*
Y2984D02*
D03*
Y2731D02*
D03*
Y1715D02*
D03*
Y952D02*
D03*
Y699D02*
D03*
Y445D02*
D03*
X3785Y5524D02*
D03*
Y5017D02*
D03*
Y4762D02*
D03*
Y4508D02*
D03*
Y4254D02*
D03*
Y3747D02*
D03*
Y2984D02*
D03*
Y1715D02*
D03*
Y1460D02*
D03*
Y1206D02*
D03*
Y952D02*
D03*
Y699D02*
D03*
Y445D02*
D03*
X3531Y5524D02*
D03*
Y5017D02*
D03*
Y4508D02*
D03*
Y4254D02*
D03*
Y1715D02*
D03*
Y1460D02*
D03*
Y1206D02*
D03*
Y952D02*
D03*
Y699D02*
D03*
Y445D02*
D03*
X3277Y5524D02*
D03*
Y5271D02*
D03*
Y5017D02*
D03*
Y4254D02*
D03*
Y1206D02*
D03*
Y952D02*
D03*
Y699D02*
D03*
Y445D02*
D03*
X3023Y5271D02*
D03*
Y5017D02*
D03*
Y4762D02*
D03*
Y4508D02*
D03*
Y2984D02*
D03*
Y2476D02*
D03*
X2769Y5524D02*
D03*
Y4762D02*
D03*
Y3492D02*
D03*
Y1206D02*
D03*
Y952D02*
D03*
Y699D02*
D03*
X2515Y5271D02*
D03*
Y5017D02*
D03*
Y4001D02*
D03*
Y3747D02*
D03*
Y1460D02*
D03*
Y190D02*
D03*
X2261Y5271D02*
D03*
Y5017D02*
D03*
Y4001D02*
D03*
Y1460D02*
D03*
X2007Y5524D02*
D03*
Y4001D02*
D03*
Y952D02*
D03*
Y699D02*
D03*
Y445D02*
D03*
X1753Y5271D02*
D03*
Y5017D02*
D03*
Y4254D02*
D03*
Y2731D02*
D03*
Y1460D02*
D03*
Y699D02*
D03*
X1499Y5271D02*
D03*
Y5017D02*
D03*
Y4762D02*
D03*
Y2476D02*
D03*
Y699D02*
D03*
X1245Y5524D02*
D03*
Y5017D02*
D03*
Y4001D02*
D03*
Y2731D02*
D03*
Y445D02*
D03*
X991Y5271D02*
D03*
Y3492D02*
D03*
Y2731D02*
D03*
Y2476D02*
D03*
Y699D02*
D03*
Y445D02*
D03*
X737Y5271D02*
D03*
Y5017D02*
D03*
Y4508D02*
D03*
Y4254D02*
D03*
Y4001D02*
D03*
Y3747D02*
D03*
Y3492D02*
D03*
Y2731D02*
D03*
Y2476D02*
D03*
X483Y5524D02*
D03*
Y4508D02*
D03*
Y4254D02*
D03*
Y3747D02*
D03*
Y3492D02*
D03*
Y1715D02*
D03*
Y1460D02*
D03*
Y952D02*
D03*
X229Y5271D02*
D03*
Y4762D02*
D03*
Y4254D02*
D03*
Y4001D02*
D03*
Y3747D02*
D03*
Y3492D02*
D03*
Y3238D02*
D03*
Y1206D02*
D03*
Y445D02*
D03*
X292Y1880D02*
D03*
X1892Y978D02*
D03*
X1816D02*
D03*
X1689Y902D02*
D03*
X1905Y2070D02*
D03*
X742Y2197D02*
D03*
X1524Y1930D02*
D03*
X3607Y4890D02*
D03*
X2858Y3962D02*
D03*
X3226Y4864D02*
D03*
X3188Y3848D02*
D03*
X3289D02*
D03*
X2781Y4877D02*
D03*
X2743Y4686D02*
D03*
X2311Y3899D02*
D03*
X2553Y3086D02*
D03*
X2476D02*
D03*
X2095Y3899D02*
D03*
X826Y4635D02*
D03*
X851Y3823D02*
D03*
X978Y4750D02*
D03*
X1157Y4916D02*
D03*
X1518Y4134D02*
D03*
X1462Y4058D02*
D03*
X2756Y203D02*
D03*
X4267Y381D02*
D03*
X4394D02*
D03*
X3391Y3848D02*
D03*
X4267Y1880D02*
D03*
X3378D02*
D03*
X3137Y1575D02*
D03*
Y1829D02*
D03*
X3505Y1880D02*
D03*
X3632D02*
D03*
X3759D02*
D03*
X1956Y4915D02*
D03*
X1118Y876D02*
D03*
Y952D02*
D03*
X1600Y902D02*
D03*
X4394Y1880D02*
D03*
X4140D02*
D03*
X4013D02*
D03*
X3886D02*
D03*
X3137Y1321D02*
D03*
Y1194D02*
D03*
Y1067D02*
D03*
Y940D02*
D03*
X4521Y381D02*
D03*
X4648D02*
D03*
X3061Y2731D02*
D03*
Y2642D02*
D03*
X1206Y2095D02*
D03*
X2121Y2794D02*
D03*
D73*
X2286Y165D02*
D03*
X368Y3315D02*
D03*
M02*
