G04*
G04 #@! TF.GenerationSoftware,Altium Limited,Altium Designer,26.9.1 (10)*
G04*
G04 Layer_Physical_Order=4*
G04 Layer_Color=16711680*
G04 Board_Origin=29100000|24250000*
%FSLAX42Y42*%
%MOMM*%
G71*
G04*
G04 #@! TF.SameCoordinates,235BE614-6657-4A18-9899-98A75802AEB3*
G04*
G04*
G04 #@! TF.FilePolarity,Positive*
G04*
G01*
G75*
%ADD70C,0.25*%
%ADD71C,0.51*%
%ADD72C,0.61*%
%ADD73C,1.27*%
G36*
X4890Y25D02*
X4889Y0D01*
X0D01*
Y203D01*
Y5702D01*
X4890D01*
Y25D01*
D02*
G37*
%LPC*%
G36*
X1180Y4998D02*
X946D01*
X936Y4996D01*
X928Y4991D01*
X807Y4870D01*
X802Y4861D01*
X800Y4851D01*
Y4671D01*
X789Y4660D01*
X782Y4644D01*
Y4627D01*
X789Y4611D01*
X801Y4599D01*
X817Y4592D01*
X834D01*
X850Y4599D01*
X862Y4611D01*
X869Y4627D01*
Y4644D01*
X862Y4660D01*
X851Y4671D01*
Y4841D01*
X957Y4946D01*
X1095D01*
X1114Y4925D01*
Y4908D01*
X1121Y4892D01*
X1130Y4883D01*
Y4293D01*
X1132Y4283D01*
X1137Y4274D01*
X1239Y4173D01*
X1247Y4167D01*
X1257Y4165D01*
X1457D01*
X1475Y4143D01*
Y4126D01*
X1475Y4125D01*
X1458Y4101D01*
X1454D01*
X1438Y4095D01*
X1426Y4083D01*
X1419Y4067D01*
Y4050D01*
X1426Y4034D01*
X1437Y4023D01*
Y3583D01*
X1413Y3573D01*
X1216Y3770D01*
X1216Y3771D01*
X1211Y3779D01*
X1004Y3986D01*
Y4715D01*
X1015Y4725D01*
X1021Y4741D01*
Y4758D01*
X1015Y4774D01*
X1002Y4786D01*
X986Y4793D01*
X969D01*
X953Y4786D01*
X941Y4774D01*
X935Y4758D01*
Y4741D01*
X941Y4725D01*
X952Y4715D01*
Y3975D01*
X954Y3965D01*
X960Y3957D01*
X1168Y3748D01*
X1168Y3748D01*
X1174Y3739D01*
X1496Y3417D01*
X1485Y3392D01*
X1318D01*
X894Y3816D01*
Y3831D01*
X888Y3847D01*
X875Y3859D01*
X859Y3866D01*
X842D01*
X826Y3859D01*
X814Y3847D01*
X808Y3831D01*
Y3814D01*
X814Y3798D01*
X826Y3786D01*
X842Y3780D01*
X857D01*
X1289Y3348D01*
X1298Y3342D01*
X1308Y3340D01*
X2341D01*
X2525Y3156D01*
X2522Y3129D01*
X2504Y3120D01*
X2501Y3123D01*
X2485Y3129D01*
X2468D01*
X2452Y3123D01*
X2440Y3111D01*
X2433Y3095D01*
Y3078D01*
X2440Y3062D01*
X2452Y3049D01*
X2462Y3045D01*
X2463Y3044D01*
Y2563D01*
X1974Y2074D01*
X1962Y2076D01*
X1947Y2083D01*
X1942Y2095D01*
X1931Y2105D01*
Y2567D01*
X2114Y2751D01*
X2129D01*
X2145Y2757D01*
X2158Y2770D01*
X2164Y2785D01*
Y2803D01*
X2158Y2818D01*
X2145Y2831D01*
X2129Y2837D01*
X2112D01*
X2096Y2831D01*
X2084Y2818D01*
X2078Y2803D01*
Y2787D01*
X1887Y2596D01*
X1881Y2588D01*
X1879Y2578D01*
Y2105D01*
X1868Y2095D01*
X1862Y2079D01*
Y2062D01*
X1868Y2046D01*
X1881Y2033D01*
X1892Y2029D01*
X1899Y2013D01*
X1901Y2002D01*
X1601Y1701D01*
X1595Y1693D01*
X1593Y1683D01*
Y945D01*
X1592D01*
X1576Y938D01*
X1564Y926D01*
X1557Y910D01*
Y893D01*
X1538Y872D01*
X1484D01*
X1385Y971D01*
X1376Y976D01*
X1366Y978D01*
X1153D01*
X1142Y989D01*
X1126Y996D01*
X1109D01*
X1088Y1014D01*
Y1386D01*
X1225Y1524D01*
X1230Y1532D01*
X1232Y1542D01*
Y2060D01*
X1243Y2071D01*
X1250Y2087D01*
Y2104D01*
X1267Y2124D01*
X1293Y2125D01*
X1481Y1937D01*
Y1922D01*
X1487Y1906D01*
X1500Y1894D01*
X1515Y1887D01*
X1533D01*
X1548Y1894D01*
X1561Y1906D01*
X1567Y1922D01*
Y1939D01*
X1561Y1955D01*
X1548Y1967D01*
X1533Y1974D01*
X1517D01*
X1321Y2170D01*
X1313Y2175D01*
X1303Y2177D01*
X804D01*
X785Y2196D01*
Y2206D01*
X778Y2222D01*
X766Y2234D01*
X750Y2240D01*
X733D01*
X717Y2234D01*
X705Y2222D01*
X699Y2206D01*
Y2189D01*
X705Y2173D01*
X717Y2160D01*
X733Y2154D01*
X750D01*
X753Y2155D01*
X775Y2133D01*
X783Y2127D01*
X793Y2125D01*
X1145D01*
X1163Y2104D01*
Y2089D01*
X980Y1905D01*
X327D01*
X317Y1916D01*
X301Y1923D01*
X284D01*
X262Y1942D01*
Y2484D01*
X396Y2618D01*
X404Y2630D01*
X407Y2645D01*
Y3249D01*
X415Y3254D01*
X429Y3268D01*
X439Y3285D01*
X445Y3305D01*
Y3325D01*
X439Y3344D01*
X429Y3361D01*
X415Y3376D01*
X398Y3386D01*
X378Y3391D01*
X358D01*
X339Y3386D01*
X322Y3376D01*
X307Y3361D01*
X297Y3344D01*
X292Y3325D01*
Y3305D01*
X297Y3285D01*
X307Y3268D01*
X322Y3254D01*
X329Y3249D01*
Y2661D01*
X196Y2528D01*
X188Y2515D01*
X185Y2500D01*
Y1620D01*
X188Y1605D01*
X196Y1592D01*
X1650Y138D01*
X1663Y129D01*
X1678Y126D01*
X2220D01*
X2225Y118D01*
X2239Y104D01*
X2257Y94D01*
X2276Y89D01*
X2296D01*
X2315Y94D01*
X2333Y104D01*
X2347Y118D01*
X2357Y136D01*
X2362Y155D01*
Y175D01*
X2357Y195D01*
X2347Y212D01*
X2333Y226D01*
X2315Y236D01*
X2296Y241D01*
X2276D01*
X2257Y236D01*
X2239Y226D01*
X2225Y212D01*
X2220Y204D01*
X1694D01*
X1350Y548D01*
X1360Y571D01*
X2351D01*
X2713Y210D01*
Y195D01*
X2719Y179D01*
X2731Y167D01*
X2747Y160D01*
X2764D01*
X2780Y167D01*
X2793Y179D01*
X2799Y195D01*
Y212D01*
X2793Y228D01*
X2780Y240D01*
X2764Y246D01*
X2749D01*
X2381Y615D01*
X2372Y621D01*
X2362Y623D01*
X1329D01*
X1195Y756D01*
X1206Y782D01*
X1728D01*
X1738Y784D01*
X1746Y789D01*
X1892Y935D01*
X1901D01*
X1917Y941D01*
X1929Y953D01*
X1935Y969D01*
Y986D01*
X1929Y1002D01*
X1917Y1015D01*
X1901Y1021D01*
X1884D01*
X1868Y1015D01*
X1854Y1004D01*
X1841Y1015D01*
X1825Y1021D01*
X1808D01*
X1792Y1015D01*
X1779Y1002D01*
X1773Y986D01*
Y969D01*
X1779Y953D01*
X1781Y952D01*
X1754Y924D01*
X1726Y926D01*
X1714Y938D01*
X1698Y945D01*
X1696D01*
Y1651D01*
X2558Y2513D01*
X2564Y2522D01*
X2565Y2527D01*
X2590Y2524D01*
Y495D01*
X2592Y485D01*
X2598Y477D01*
X3004Y71D01*
X3013Y65D01*
X3023Y63D01*
X4610D01*
X4620Y65D01*
X4628Y71D01*
X4667Y109D01*
X4672Y117D01*
X4674Y127D01*
Y346D01*
X4685Y357D01*
X4691Y372D01*
Y390D01*
X4685Y405D01*
X4673Y418D01*
X4657Y424D01*
X4640D01*
X4624Y418D01*
X4612Y405D01*
X4605Y390D01*
Y372D01*
X4612Y357D01*
X4622Y346D01*
Y138D01*
X4599Y115D01*
X4328D01*
X4317Y140D01*
X4515Y338D01*
X4530D01*
X4546Y344D01*
X4558Y357D01*
X4564Y372D01*
Y390D01*
X4558Y405D01*
X4546Y418D01*
X4530Y424D01*
X4513D01*
X4497Y418D01*
X4485Y405D01*
X4478Y390D01*
Y374D01*
X4457Y353D01*
X4435Y368D01*
X4437Y372D01*
Y390D01*
X4431Y405D01*
X4419Y418D01*
X4403Y424D01*
X4386D01*
X4370Y418D01*
X4358Y405D01*
X4351Y390D01*
Y386D01*
X4329Y365D01*
X4316Y366D01*
X4310Y372D01*
Y390D01*
X4304Y405D01*
X4292Y418D01*
X4276Y424D01*
X4261D01*
X3290Y1395D01*
Y1819D01*
X3313Y1829D01*
X3337Y1805D01*
X3345Y1800D01*
X3355Y1798D01*
X3449D01*
X3459Y1800D01*
X3468Y1805D01*
X3499Y1836D01*
X3514D01*
X3530Y1843D01*
X3542Y1855D01*
X3548Y1871D01*
Y1888D01*
X3542Y1904D01*
X3530Y1916D01*
X3514Y1923D01*
X3497D01*
X3481Y1916D01*
X3469Y1904D01*
X3462Y1888D01*
Y1884D01*
X3440Y1864D01*
X3427Y1864D01*
X3421Y1871D01*
Y1888D01*
X3415Y1904D01*
X3404Y1915D01*
Y3011D01*
X3428Y3021D01*
X3606Y2842D01*
Y1915D01*
X3596Y1904D01*
X3589Y1888D01*
Y1871D01*
X3596Y1855D01*
X3608Y1843D01*
X3624Y1836D01*
X3641D01*
X3657Y1843D01*
X3669Y1855D01*
X3675Y1871D01*
Y1888D01*
X3669Y1904D01*
X3658Y1915D01*
Y2811D01*
X3682Y2821D01*
X3733Y2769D01*
Y1915D01*
X3723Y1904D01*
X3716Y1888D01*
Y1871D01*
X3723Y1855D01*
X3735Y1843D01*
X3751Y1836D01*
X3768D01*
X3784Y1843D01*
X3796Y1855D01*
X3802Y1871D01*
Y1888D01*
X3796Y1904D01*
X3785Y1915D01*
Y2738D01*
X3809Y2748D01*
X3860Y2696D01*
Y1915D01*
X3850Y1904D01*
X3843Y1888D01*
Y1871D01*
X3850Y1855D01*
X3862Y1843D01*
X3878Y1836D01*
X3895D01*
X3911Y1843D01*
X3923Y1855D01*
X3929Y1871D01*
Y1888D01*
X3923Y1904D01*
X3912Y1915D01*
Y2665D01*
X3936Y2674D01*
X3987Y2623D01*
Y1915D01*
X3977Y1904D01*
X3970Y1888D01*
Y1871D01*
X3977Y1855D01*
X3989Y1843D01*
X4005Y1836D01*
X4022D01*
X4038Y1843D01*
X4050Y1855D01*
X4056Y1871D01*
Y1888D01*
X4050Y1904D01*
X4039Y1915D01*
Y2633D01*
X4037Y2643D01*
X4032Y2652D01*
X3069Y3614D01*
X3069Y3622D01*
X3076Y3643D01*
X3085Y3646D01*
X3096Y3657D01*
X3469D01*
X4114Y3012D01*
Y1915D01*
X4104Y1904D01*
X4097Y1888D01*
Y1871D01*
X4104Y1855D01*
X4116Y1843D01*
X4132Y1836D01*
X4149D01*
X4165Y1843D01*
X4177Y1855D01*
X4183Y1871D01*
Y1888D01*
X4177Y1904D01*
X4166Y1915D01*
Y3000D01*
X4191Y3011D01*
X4241Y2961D01*
Y1915D01*
X4231Y1904D01*
X4224Y1888D01*
Y1871D01*
X4231Y1855D01*
X4243Y1843D01*
X4259Y1836D01*
X4276D01*
X4292Y1843D01*
X4304Y1855D01*
X4310Y1871D01*
Y1888D01*
X4304Y1904D01*
X4293Y1915D01*
Y2952D01*
X4318Y2963D01*
X4368Y2913D01*
Y1915D01*
X4358Y1904D01*
X4351Y1888D01*
Y1871D01*
X4358Y1855D01*
X4370Y1843D01*
X4386Y1836D01*
X4403D01*
X4419Y1843D01*
X4431Y1855D01*
X4437Y1871D01*
Y1888D01*
X4431Y1904D01*
X4420Y1915D01*
Y2924D01*
X4418Y2934D01*
X4413Y2942D01*
X3432Y3922D01*
X3424Y3928D01*
X3414Y3930D01*
X3244D01*
X3234Y3928D01*
X3225Y3922D01*
X3194Y3891D01*
X3179D01*
X3163Y3885D01*
X3151Y3873D01*
X3145Y3857D01*
Y3840D01*
X3151Y3824D01*
X3163Y3811D01*
X3179Y3805D01*
X3196D01*
X3212Y3811D01*
X3224Y3824D01*
X3225Y3825D01*
X3252D01*
X3253Y3824D01*
X3265Y3811D01*
X3281Y3805D01*
X3298D01*
X3314Y3811D01*
X3326Y3824D01*
X3326Y3825D01*
X3354D01*
X3354Y3824D01*
X3366Y3811D01*
X3382Y3805D01*
X3397D01*
X3468Y3734D01*
X3458Y3709D01*
X3096D01*
X3085Y3720D01*
X3069Y3726D01*
X3052D01*
X3031Y3745D01*
Y4277D01*
X3600Y4846D01*
X3615D01*
X3631Y4853D01*
X3643Y4865D01*
X3650Y4881D01*
Y4898D01*
X3643Y4914D01*
X3631Y4926D01*
X3615Y4933D01*
X3598D01*
X3582Y4926D01*
X3570Y4914D01*
X3564Y4898D01*
Y4883D01*
X3331Y4650D01*
X3308Y4660D01*
Y4887D01*
X3306Y4897D01*
X3300Y4906D01*
X3241Y4965D01*
X3232Y4971D01*
X3222Y4973D01*
X2858D01*
X2848Y4971D01*
X2840Y4965D01*
X2794Y4918D01*
X2790Y4920D01*
X2773D01*
X2757Y4913D01*
X2745Y4901D01*
X2738Y4885D01*
Y4868D01*
X2745Y4852D01*
X2757Y4840D01*
X2773Y4834D01*
X2790D01*
X2806Y4840D01*
X2818Y4852D01*
X2824Y4868D01*
Y4876D01*
X2869Y4921D01*
X3188D01*
X3189Y4920D01*
X3196Y4895D01*
X3189Y4889D01*
X3183Y4873D01*
Y4858D01*
X2910Y4585D01*
X2905Y4577D01*
X2903Y4567D01*
Y4014D01*
X2894Y4008D01*
X2877Y4001D01*
X2866Y4006D01*
X2849D01*
X2833Y3999D01*
X2821Y3987D01*
X2814Y3971D01*
Y3954D01*
X2821Y3938D01*
X2832Y3927D01*
Y3669D01*
X2808Y3660D01*
X2769Y3699D01*
Y4651D01*
X2780Y4662D01*
X2786Y4678D01*
Y4695D01*
X2780Y4711D01*
X2768Y4723D01*
X2752Y4729D01*
X2735D01*
X2719Y4723D01*
X2707Y4711D01*
X2700Y4695D01*
Y4678D01*
X2707Y4662D01*
X2717Y4651D01*
Y3728D01*
X2694Y3718D01*
X2495Y3917D01*
X2486Y3923D01*
X2476Y3925D01*
X2347D01*
X2336Y3936D01*
X2320Y3942D01*
X2303D01*
X2287Y3936D01*
X2275Y3923D01*
X2268Y3907D01*
Y3906D01*
X2243Y3896D01*
X1982Y4157D01*
Y4880D01*
X1992Y4890D01*
X1999Y4906D01*
Y4923D01*
X1992Y4939D01*
X1980Y4952D01*
X1964Y4958D01*
X1947D01*
X1931Y4952D01*
X1919Y4939D01*
X1913Y4923D01*
Y4906D01*
X1919Y4890D01*
X1930Y4880D01*
Y4146D01*
X1932Y4136D01*
X1937Y4128D01*
X2098Y3967D01*
X2088Y3942D01*
X2087D01*
X2071Y3936D01*
X2059Y3923D01*
X2052Y3907D01*
Y3890D01*
X2059Y3874D01*
X2071Y3862D01*
X2087Y3856D01*
X2102D01*
X2327Y3631D01*
X2317Y3607D01*
X1702D01*
Y4318D01*
X1700Y4328D01*
X1695Y4336D01*
X1239Y4792D01*
Y4939D01*
X1237Y4949D01*
X1231Y4958D01*
X1199Y4991D01*
X1190Y4996D01*
X1180Y4998D01*
D02*
G37*
%LPD*%
G36*
X3256Y4802D02*
Y4629D01*
X2978Y4351D01*
X2955Y4361D01*
Y4556D01*
X3219Y4821D01*
X3234D01*
X3256Y4802D01*
D02*
G37*
G36*
X1651Y4307D02*
Y3647D01*
X1625Y3633D01*
X1623Y3635D01*
Y4134D01*
X1621Y4144D01*
X1616Y4153D01*
X1559Y4209D01*
X1551Y4215D01*
X1541Y4217D01*
X1268D01*
X1182Y4303D01*
Y4740D01*
X1207Y4751D01*
X1651Y4307D01*
D02*
G37*
G36*
X3276Y3063D02*
Y2585D01*
X3253Y2575D01*
X3104Y2724D01*
Y2739D01*
X3097Y2755D01*
X3085Y2767D01*
X3069Y2774D01*
X3052D01*
X3036Y2767D01*
X3024Y2755D01*
X3018Y2739D01*
Y2722D01*
X3024Y2706D01*
X3028Y2702D01*
X3034Y2686D01*
X3028Y2670D01*
X3024Y2666D01*
X3018Y2650D01*
Y2633D01*
X3024Y2617D01*
X3036Y2605D01*
X3052Y2598D01*
X3067D01*
X3187Y2478D01*
Y1875D01*
X3162Y1865D01*
X3161Y1865D01*
X3145Y1872D01*
X3130D01*
X2909Y2094D01*
Y3219D01*
X2907Y3229D01*
X2901Y3238D01*
X2308Y3830D01*
X2319Y3856D01*
X2320D01*
X2336Y3862D01*
X2347Y3873D01*
X2466D01*
X3276Y3063D01*
D02*
G37*
G36*
X3094Y1835D02*
Y1820D01*
X3100Y1804D01*
X3112Y1792D01*
X3128Y1786D01*
X3145D01*
X3161Y1792D01*
X3162Y1793D01*
X3187Y1782D01*
Y1621D01*
X3162Y1611D01*
X3161Y1611D01*
X3145Y1618D01*
X3130D01*
X2871Y1878D01*
Y2025D01*
X2894Y2035D01*
X3094Y1835D01*
D02*
G37*
G36*
X3111Y1485D02*
Y1356D01*
X3100Y1345D01*
X3094Y1329D01*
Y1312D01*
X3096Y1308D01*
X3074Y1293D01*
X2794Y1573D01*
Y1768D01*
X2818Y1778D01*
X3111Y1485D01*
D02*
G37*
G36*
X3091Y1204D02*
X3090Y1186D01*
X3065Y1175D01*
X2759Y1481D01*
X2761Y1498D01*
X2786Y1508D01*
X3091Y1204D01*
D02*
G37*
G36*
Y1077D02*
X3090Y1059D01*
X3065Y1048D01*
X2721Y1392D01*
X2723Y1409D01*
X2748Y1419D01*
X3091Y1077D01*
D02*
G37*
G36*
X1181Y2000D02*
Y1553D01*
X1043Y1415D01*
X1038Y1407D01*
X1036Y1397D01*
Y895D01*
X1012Y886D01*
X262Y1636D01*
Y1818D01*
X284Y1836D01*
X301D01*
X317Y1843D01*
X327Y1854D01*
X991D01*
X1001Y1856D01*
X1009Y1861D01*
X1157Y2010D01*
X1181Y2000D01*
D02*
G37*
G36*
X1425Y857D02*
X1415Y834D01*
X1197D01*
X1161Y870D01*
Y885D01*
X1154Y901D01*
X1154Y901D01*
X1164Y927D01*
X1356D01*
X1425Y857D01*
D02*
G37*
G36*
X3094Y946D02*
Y931D01*
X3100Y915D01*
X3112Y903D01*
X3128Y897D01*
X3145D01*
X3161Y903D01*
X3174Y915D01*
X3180Y931D01*
Y948D01*
X3174Y964D01*
X3161Y976D01*
X3145Y983D01*
X3130D01*
X3109Y1004D01*
X3124Y1026D01*
X3128Y1024D01*
X3145D01*
X3161Y1030D01*
X3174Y1042D01*
X3180Y1058D01*
Y1075D01*
X3174Y1091D01*
X3161Y1103D01*
X3145Y1110D01*
X3130D01*
X3109Y1131D01*
X3124Y1153D01*
X3128Y1151D01*
X3145D01*
X3161Y1157D01*
X3174Y1169D01*
X3180Y1185D01*
Y1202D01*
X3174Y1218D01*
X3161Y1230D01*
X3145Y1237D01*
X3130D01*
X3109Y1258D01*
X3124Y1280D01*
X3128Y1278D01*
X3145D01*
X3161Y1284D01*
X3174Y1296D01*
X3180Y1312D01*
Y1317D01*
X3205Y1327D01*
X4226Y307D01*
X4234Y301D01*
X4244Y299D01*
X4338D01*
X4348Y301D01*
X4357Y307D01*
X4384Y335D01*
X4402Y334D01*
X4413Y309D01*
X4269Y166D01*
X3071D01*
X2680Y557D01*
Y1327D01*
X2704Y1336D01*
X3094Y946D01*
D02*
G37*
D70*
X3005Y3642D02*
Y4288D01*
X3061Y3683D02*
X3480D01*
X3005Y4288D02*
X3607Y4890D01*
X3005Y3642D02*
X4013Y2633D01*
X292Y1880D02*
X991D01*
X1318Y597D02*
X2362D01*
X1062Y853D02*
X1318Y597D01*
X2362D02*
X2756Y203D01*
X1728Y808D02*
X1892Y972D01*
Y978D01*
X1186Y808D02*
X1728D01*
X1809Y943D02*
Y971D01*
X1712Y846D02*
X1809Y943D01*
X1670Y930D02*
Y1662D01*
X2540Y2532D02*
Y3053D01*
X1619Y930D02*
Y1683D01*
X1809Y971D02*
X1816Y978D01*
X1619Y1683D02*
X2489Y2553D01*
X1670Y930D02*
X1689Y911D01*
X1670Y1662D02*
X2540Y2532D01*
X2489Y2553D02*
Y3053D01*
X1600Y911D02*
X1619Y930D01*
X1600Y902D02*
Y911D01*
X1689Y902D02*
Y911D01*
X1118Y876D02*
X1186Y808D01*
X1473Y846D02*
X1712D01*
X1366Y952D02*
X1473Y846D01*
X1905Y2070D02*
Y2578D01*
X2121Y2794D01*
X793Y2151D02*
X1303D01*
X742Y2197D02*
X747D01*
X793Y2151D01*
X1303D02*
X1524Y1930D01*
X1062Y853D02*
Y1397D01*
X1206Y1542D01*
Y2095D01*
X2858Y4947D02*
X3222D01*
X2789Y4877D02*
X2858Y4947D01*
X3222D02*
X3282Y4887D01*
X2781Y4877D02*
X2789D01*
X2858Y3627D02*
Y3962D01*
Y3627D02*
X3632Y2853D01*
X2967Y3626D02*
X3886Y2707D01*
X2967Y4303D02*
X3282Y4618D01*
X2929Y3610D02*
X3759Y2780D01*
X2929Y3610D02*
Y4567D01*
X2967Y3626D02*
Y4303D01*
X2929Y4567D02*
X3226Y4864D01*
X3282Y4618D02*
Y4887D01*
X3188Y3848D02*
X3244Y3904D01*
X3414D01*
X3480Y3683D02*
X4140Y3023D01*
X3886Y1880D02*
Y2707D01*
X3414Y3904D02*
X4394Y2924D01*
X4013Y1880D02*
Y2633D01*
X3759Y1880D02*
Y2780D01*
X3391Y3848D02*
X4267Y2972D01*
X2743Y3688D02*
X3378Y3053D01*
X2743Y3688D02*
Y4686D01*
X2476Y3899D02*
X3302Y3073D01*
X2311Y3899D02*
X2476D01*
X1956Y4146D02*
X2883Y3219D01*
Y2083D02*
Y3219D01*
X1956Y4146D02*
Y4915D01*
X2883Y2083D02*
X3137Y1829D01*
X2845Y1867D02*
X3137Y1575D01*
X2845Y1867D02*
Y3203D01*
X2429Y3619D02*
X2845Y3203D01*
X2375Y3619D02*
X2429D01*
X2095Y3899D02*
X2375Y3619D01*
X1213Y4781D02*
X1676Y4318D01*
Y3596D02*
Y4318D01*
Y3596D02*
X1691Y3581D01*
X2413D01*
X2807Y3188D01*
X2390Y3543D02*
X2769Y3165D01*
X1575Y3505D02*
X2374D01*
X2731Y3149D01*
X1653Y3543D02*
X2390D01*
X1597Y3599D02*
X1653Y3543D01*
X2352Y3366D02*
X2616Y3102D01*
X1308Y3366D02*
X2352D01*
X1549Y3454D02*
X2371D01*
X2692Y3133D01*
X1534Y3416D02*
X2355D01*
X2654Y3117D01*
X1180Y4972D02*
X1213Y4939D01*
X2807Y1826D02*
Y3188D01*
X1213Y4781D02*
Y4939D01*
X2692Y1384D02*
Y3133D01*
X2540Y3053D02*
X2546Y3059D01*
X2483D02*
X2489Y3053D01*
X2483Y3059D02*
Y3079D01*
X2731Y1473D02*
Y3149D01*
X2654Y546D02*
Y3117D01*
X2546Y3079D02*
X2553Y3086D01*
X2546Y3059D02*
Y3079D01*
X2476Y3086D02*
X2483Y3079D01*
X2769Y1562D02*
Y3165D01*
X2616Y495D02*
Y3102D01*
X946Y4972D02*
X1180D01*
X826Y4635D02*
Y4851D01*
X946Y4972D01*
X851Y3823D02*
X1308Y3366D01*
X978Y3975D02*
X1192Y3761D01*
X978Y3975D02*
Y4750D01*
X1156Y4915D02*
X1157Y4916D01*
X1156Y4293D02*
Y4915D01*
Y4293D02*
X1257Y4191D01*
X1541D01*
X1597Y4134D01*
Y3599D02*
Y4134D01*
X1518Y3562D02*
X1575Y3505D01*
X1518Y3562D02*
Y4134D01*
X1462Y3541D02*
Y4058D01*
Y3541D02*
X1549Y3454D01*
X1192Y3758D02*
X1534Y3416D01*
X1192Y3758D02*
Y3761D01*
X2807Y1826D02*
X3137Y1496D01*
Y1321D02*
Y1496D01*
X2769Y1562D02*
X3137Y1194D01*
X3213Y1356D02*
Y2489D01*
X3302Y1877D02*
Y3073D01*
X3378Y1880D02*
Y3053D01*
X3632Y1880D02*
Y2853D01*
X3449Y1824D02*
X3505Y1880D01*
X3355Y1824D02*
X3449D01*
X3302Y1877D02*
X3355Y1824D01*
X3264Y1384D02*
Y2527D01*
X3061Y2731D02*
X3264Y2527D01*
X2731Y1473D02*
X3137Y1067D01*
X2692Y1384D02*
X3137Y940D01*
X2654Y546D02*
X3061Y140D01*
X2616Y495D02*
X3023Y89D01*
X3061Y140D02*
X4280D01*
X3023Y89D02*
X4610D01*
X4280Y140D02*
X4521Y381D01*
X4610Y89D02*
X4648Y127D01*
Y381D01*
X4338Y325D02*
X4394Y381D01*
X4244Y325D02*
X4338D01*
X3213Y1356D02*
X4244Y325D01*
X3264Y1384D02*
X4267Y381D01*
X4140Y1880D02*
Y3023D01*
X4394Y1880D02*
Y2924D01*
X4267Y1880D02*
Y2972D01*
X3061Y2642D02*
X3213Y2489D01*
X991Y1880D02*
X1206Y2095D01*
X1118Y952D02*
X1366D01*
D71*
X1678Y165D02*
X2286D01*
X224Y1620D02*
X1678Y165D01*
X224Y1620D02*
Y2500D01*
X368Y2645D01*
Y3315D01*
D72*
X3061Y3683D02*
D03*
X4547Y5524D02*
D03*
Y5017D02*
D03*
Y4508D02*
D03*
Y4254D02*
D03*
Y3747D02*
D03*
Y3492D02*
D03*
Y2984D02*
D03*
Y2476D02*
D03*
Y1715D02*
D03*
Y1460D02*
D03*
Y1206D02*
D03*
Y952D02*
D03*
Y699D02*
D03*
X4293Y5017D02*
D03*
Y4508D02*
D03*
Y4254D02*
D03*
Y3747D02*
D03*
Y3492D02*
D03*
Y3238D02*
D03*
Y1715D02*
D03*
Y952D02*
D03*
Y699D02*
D03*
X4039Y5524D02*
D03*
Y5271D02*
D03*
Y4762D02*
D03*
Y4508D02*
D03*
Y4254D02*
D03*
Y3747D02*
D03*
Y3492D02*
D03*
Y2984D02*
D03*
Y2731D02*
D03*
Y1715D02*
D03*
Y952D02*
D03*
Y699D02*
D03*
Y445D02*
D03*
X3785Y5524D02*
D03*
Y5017D02*
D03*
Y4762D02*
D03*
Y4508D02*
D03*
Y4254D02*
D03*
Y3747D02*
D03*
Y2984D02*
D03*
Y1715D02*
D03*
Y1460D02*
D03*
Y1206D02*
D03*
Y952D02*
D03*
Y699D02*
D03*
Y445D02*
D03*
X3531Y5524D02*
D03*
Y5017D02*
D03*
Y4508D02*
D03*
Y4254D02*
D03*
Y1715D02*
D03*
Y1460D02*
D03*
Y1206D02*
D03*
Y952D02*
D03*
Y699D02*
D03*
Y445D02*
D03*
X3277Y5524D02*
D03*
Y5271D02*
D03*
Y5017D02*
D03*
Y4254D02*
D03*
Y1206D02*
D03*
Y952D02*
D03*
Y699D02*
D03*
Y445D02*
D03*
X3023Y5271D02*
D03*
Y5017D02*
D03*
Y4762D02*
D03*
Y4508D02*
D03*
Y2984D02*
D03*
Y2476D02*
D03*
X2769Y5524D02*
D03*
Y4762D02*
D03*
Y3492D02*
D03*
Y1206D02*
D03*
Y952D02*
D03*
Y699D02*
D03*
X2515Y5271D02*
D03*
Y5017D02*
D03*
Y4001D02*
D03*
Y3747D02*
D03*
Y1460D02*
D03*
Y190D02*
D03*
X2261Y5271D02*
D03*
Y5017D02*
D03*
Y4001D02*
D03*
Y1460D02*
D03*
X2007Y5524D02*
D03*
Y4001D02*
D03*
Y952D02*
D03*
Y699D02*
D03*
Y445D02*
D03*
X1753Y5271D02*
D03*
Y5017D02*
D03*
Y4254D02*
D03*
Y2731D02*
D03*
Y1460D02*
D03*
Y699D02*
D03*
X1499Y5271D02*
D03*
Y5017D02*
D03*
Y4762D02*
D03*
Y2476D02*
D03*
Y699D02*
D03*
X1245Y5524D02*
D03*
Y5017D02*
D03*
Y4001D02*
D03*
Y2731D02*
D03*
Y445D02*
D03*
X991Y5271D02*
D03*
Y3492D02*
D03*
Y2731D02*
D03*
Y2476D02*
D03*
Y699D02*
D03*
Y445D02*
D03*
X737Y5271D02*
D03*
Y5017D02*
D03*
Y4508D02*
D03*
Y4254D02*
D03*
Y4001D02*
D03*
Y3747D02*
D03*
Y3492D02*
D03*
Y2731D02*
D03*
Y2476D02*
D03*
X483Y5524D02*
D03*
Y4508D02*
D03*
Y4254D02*
D03*
Y3747D02*
D03*
Y3492D02*
D03*
Y1715D02*
D03*
Y1460D02*
D03*
Y952D02*
D03*
X229Y5271D02*
D03*
Y4762D02*
D03*
Y4254D02*
D03*
Y4001D02*
D03*
Y3747D02*
D03*
Y3492D02*
D03*
Y3238D02*
D03*
Y1206D02*
D03*
Y445D02*
D03*
X292Y1880D02*
D03*
X1892Y978D02*
D03*
X1816D02*
D03*
X1689Y902D02*
D03*
X1905Y2070D02*
D03*
X742Y2197D02*
D03*
X1524Y1930D02*
D03*
X3607Y4890D02*
D03*
X2858Y3962D02*
D03*
X3226Y4864D02*
D03*
X3188Y3848D02*
D03*
X3289D02*
D03*
X2781Y4877D02*
D03*
X2743Y4686D02*
D03*
X2311Y3899D02*
D03*
X2553Y3086D02*
D03*
X2476D02*
D03*
X2095Y3899D02*
D03*
X826Y4635D02*
D03*
X851Y3823D02*
D03*
X978Y4750D02*
D03*
X1157Y4916D02*
D03*
X1518Y4134D02*
D03*
X1462Y4058D02*
D03*
X2756Y203D02*
D03*
X4267Y381D02*
D03*
X4394D02*
D03*
X3391Y3848D02*
D03*
X4267Y1880D02*
D03*
X3378D02*
D03*
X3137Y1575D02*
D03*
Y1829D02*
D03*
X3505Y1880D02*
D03*
X3632D02*
D03*
X3759D02*
D03*
X1956Y4915D02*
D03*
X1118Y876D02*
D03*
Y952D02*
D03*
X1600Y902D02*
D03*
X4394Y1880D02*
D03*
X4140D02*
D03*
X4013D02*
D03*
X3886D02*
D03*
X3137Y1321D02*
D03*
Y1194D02*
D03*
Y1067D02*
D03*
Y940D02*
D03*
X4521Y381D02*
D03*
X4648D02*
D03*
X3061Y2731D02*
D03*
Y2642D02*
D03*
X1206Y2095D02*
D03*
X2121Y2794D02*
D03*
D73*
X2286Y165D02*
D03*
X368Y3315D02*
D03*
M02*
