G04*
G04 #@! TF.GenerationSoftware,Altium Limited,Altium Designer,26.9.1 (10)*
G04*
G04 Layer_Color=8421504*
G04 Board_Origin=29100000|24250000*
%FSLAX42Y42*%
%MOMM*%
G71*
G04*
G04 #@! TF.SameCoordinates,235BE614-6657-4A18-9899-98A75802AEB3*
G04*
G04*
G04 #@! TF.FilePolarity,Positive*
G04*
G01*
G75*
%ADD15R,1.20X1.20*%
%ADD16R,1.20X1.20*%
%ADD17R,1.20X1.20*%
%ADD18R,1.20X1.20*%
%ADD19R,1.50X1.00*%
%ADD20R,0.79X0.89*%
%ADD21R,0.85X0.30*%
%ADD22R,0.30X0.85*%
%ADD23R,1.25X1.25*%
%ADD24R,0.90X1.50*%
%ADD25R,1.50X0.90*%
%ADD26R,1.00X1.00*%
%ADD27R,0.40X0.48*%
%ADD28R,0.48X0.40*%
%ADD29R,1.75X0.95*%
%ADD30R,1.75X3.20*%
%ADD31R,0.50X0.48*%
%ADD32R,1.05X0.65*%
%ADD33R,2.70X1.00*%
%ADD34R,1.70X0.60*%
%ADD35R,1.00X2.70*%
%ADD36R,0.60X1.70*%
%ADD37R,3.50X1.00*%
%ADD38R,3.40X1.50*%
%ADD39R,1.25X1.46*%
%ADD40R,0.80X0.80*%
%ADD41R,1.46X1.25*%
%ADD42R,0.47X0.54*%
%ADD43C,0.27*%
%ADD44R,0.45X0.45*%
%ADD45R,0.91X1.13*%
%ADD46R,0.54X0.47*%
%ADD47R,0.52X0.52*%
%ADD48R,1.80X1.90*%
%ADD49R,2.30X1.90*%
%ADD50R,0.40X1.40*%
%ADD51R,0.70X0.65*%
%ADD52R,0.65X0.70*%
%ADD53R,0.48X0.35*%
%ADD54R,0.25X0.48*%
%ADD55R,1.13X0.91*%
%ADD56R,0.72X0.72*%
%ADD57R,0.45X0.45*%
%ADD58R,1.56X0.74*%
%ADD59R,0.60X0.55*%
%ADD60R,0.67X0.67*%
%ADD61R,0.55X0.60*%
G04:AMPARAMS|DCode=62|XSize=1.56mm|YSize=0.74mm|CornerRadius=0.37mm|HoleSize=0mm|Usage=FLASHONLY|Rotation=180.000|XOffset=0mm|YOffset=0mm|HoleType=Round|Shape=RoundedRectangle|*
%AMROUNDEDRECTD62*
21,1,1.56,0.00,0,0,180.0*
21,1,0.82,0.74,0,0,180.0*
1,1,0.74,-0.41,0.00*
1,1,0.74,0.41,0.00*
1,1,0.74,0.41,0.00*
1,1,0.74,-0.41,0.00*
%
%ADD62ROUNDEDRECTD62*%
%ADD63R,1.90X1.10*%
G36*
X2668Y2849D02*
Y2846D01*
X2665Y2841D01*
X2661Y2836D01*
X2656Y2834D01*
X2650D01*
X2644Y2836D01*
X2640Y2841D01*
X2638Y2846D01*
Y2849D01*
Y2929D01*
X2668D01*
Y2849D01*
D02*
G37*
G36*
X2618D02*
Y2846D01*
X2615Y2841D01*
X2611Y2836D01*
X2606Y2834D01*
X2600D01*
X2594Y2836D01*
X2590Y2841D01*
X2588Y2846D01*
Y2849D01*
Y2929D01*
X2618D01*
Y2849D01*
D02*
G37*
G36*
X2568D02*
Y2846D01*
X2565Y2841D01*
X2561Y2836D01*
X2556Y2834D01*
X2550D01*
X2544Y2836D01*
X2540Y2841D01*
X2538Y2846D01*
Y2849D01*
Y2929D01*
X2568D01*
X2568Y2849D01*
D02*
G37*
G36*
X2518D02*
Y2846D01*
X2515Y2841D01*
X2511Y2836D01*
X2506Y2834D01*
X2500D01*
X2494Y2836D01*
X2490Y2841D01*
X2488Y2846D01*
Y2849D01*
Y2929D01*
X2518D01*
Y2849D01*
D02*
G37*
G36*
X2468D02*
Y2846D01*
X2465Y2841D01*
X2461Y2836D01*
X2456Y2834D01*
X2450D01*
X2444Y2836D01*
X2440Y2841D01*
X2438Y2846D01*
Y2849D01*
X2438D01*
Y2929D01*
X2468D01*
Y2849D01*
D02*
G37*
G36*
X2418D02*
Y2846D01*
X2415Y2841D01*
X2411Y2836D01*
X2406Y2834D01*
X2400D01*
X2394Y2836D01*
X2390Y2841D01*
X2388Y2846D01*
Y2849D01*
Y2929D01*
X2418D01*
Y2849D01*
D02*
G37*
G36*
X2368D02*
Y2846D01*
X2365Y2841D01*
X2361Y2836D01*
X2356Y2834D01*
X2350D01*
X2344Y2836D01*
X2340Y2841D01*
X2338Y2846D01*
Y2849D01*
Y2929D01*
X2368D01*
Y2849D01*
D02*
G37*
G36*
X2790Y2777D02*
X2707D01*
X2702Y2779D01*
X2697Y2783D01*
X2695Y2789D01*
Y2792D01*
Y2795D01*
X2697Y2800D01*
X2702Y2804D01*
X2707Y2807D01*
X2790D01*
Y2777D01*
D02*
G37*
G36*
X2304Y2804D02*
X2308Y2800D01*
X2310Y2795D01*
Y2792D01*
Y2789D01*
X2308Y2783D01*
X2304Y2779D01*
X2298Y2777D01*
X2215D01*
Y2807D01*
X2298D01*
X2304Y2804D01*
D02*
G37*
G36*
X2790Y2727D02*
X2707D01*
X2702Y2729D01*
X2697Y2733D01*
X2695Y2739D01*
Y2742D01*
Y2745D01*
X2697Y2750D01*
X2702Y2754D01*
X2707Y2757D01*
X2790D01*
Y2727D01*
D02*
G37*
G36*
X2304Y2754D02*
X2308Y2750D01*
X2310Y2745D01*
Y2742D01*
Y2739D01*
X2308Y2733D01*
X2304Y2729D01*
X2298Y2727D01*
X2215D01*
Y2757D01*
X2298D01*
X2304Y2754D01*
D02*
G37*
G36*
X2790Y2677D02*
X2707D01*
X2702Y2679D01*
X2697Y2683D01*
X2695Y2689D01*
Y2692D01*
Y2695D01*
X2697Y2700D01*
X2702Y2704D01*
X2707Y2707D01*
X2710D01*
Y2707D01*
X2790D01*
Y2677D01*
D02*
G37*
G36*
X2295Y2707D02*
X2298D01*
X2304Y2704D01*
X2308Y2700D01*
X2310Y2695D01*
Y2692D01*
Y2689D01*
X2308Y2683D01*
X2304Y2679D01*
X2298Y2677D01*
X2215D01*
Y2707D01*
X2295Y2707D01*
D02*
G37*
G36*
X2790Y2627D02*
X2707D01*
X2702Y2629D01*
X2697Y2633D01*
X2695Y2639D01*
Y2642D01*
Y2645D01*
X2697Y2650D01*
X2702Y2654D01*
X2707Y2657D01*
X2790D01*
Y2627D01*
D02*
G37*
G36*
X2304Y2654D02*
X2308Y2650D01*
X2310Y2645D01*
Y2642D01*
Y2639D01*
X2308Y2633D01*
X2304Y2629D01*
X2298Y2627D01*
X2215D01*
Y2657D01*
X2298D01*
X2304Y2654D01*
D02*
G37*
G36*
X2790Y2577D02*
X2710Y2577D01*
X2707D01*
X2702Y2579D01*
X2697Y2583D01*
X2695Y2589D01*
Y2592D01*
Y2595D01*
X2697Y2600D01*
X2702Y2604D01*
X2707Y2607D01*
X2790D01*
Y2577D01*
D02*
G37*
G36*
X2304Y2604D02*
X2308Y2600D01*
X2310Y2595D01*
Y2592D01*
Y2589D01*
X2308Y2583D01*
X2304Y2579D01*
X2298Y2577D01*
X2295D01*
Y2577D01*
X2215D01*
Y2607D01*
X2298D01*
X2304Y2604D01*
D02*
G37*
G36*
X2790Y2527D02*
X2707D01*
X2702Y2529D01*
X2697Y2533D01*
X2695Y2539D01*
Y2542D01*
Y2545D01*
X2697Y2550D01*
X2702Y2554D01*
X2707Y2557D01*
X2790D01*
Y2527D01*
D02*
G37*
G36*
X2304Y2554D02*
X2308Y2550D01*
X2310Y2545D01*
Y2542D01*
Y2539D01*
X2308Y2533D01*
X2304Y2529D01*
X2298Y2527D01*
X2215D01*
Y2557D01*
X2298D01*
X2304Y2554D01*
D02*
G37*
G36*
X2790Y2477D02*
X2707D01*
X2702Y2479D01*
X2697Y2483D01*
X2695Y2489D01*
Y2492D01*
Y2495D01*
X2697Y2500D01*
X2702Y2504D01*
X2707Y2507D01*
X2790D01*
Y2477D01*
D02*
G37*
G36*
X2304Y2504D02*
X2308Y2500D01*
X2310Y2495D01*
Y2492D01*
Y2489D01*
X2308Y2483D01*
X2304Y2479D01*
X2298Y2477D01*
X2215D01*
Y2507D01*
X2298D01*
X2304Y2504D01*
D02*
G37*
G36*
X2661Y2447D02*
X2665Y2443D01*
X2668Y2437D01*
Y2434D01*
Y2354D01*
X2638D01*
Y2434D01*
Y2437D01*
X2640Y2443D01*
X2644Y2447D01*
X2650Y2449D01*
X2656D01*
X2661Y2447D01*
D02*
G37*
G36*
X2611D02*
X2615Y2443D01*
X2618Y2437D01*
Y2434D01*
Y2354D01*
X2588D01*
Y2434D01*
Y2437D01*
X2590Y2443D01*
X2594Y2447D01*
X2600Y2449D01*
X2606D01*
X2611Y2447D01*
D02*
G37*
G36*
X2561D02*
X2565Y2443D01*
X2568Y2437D01*
Y2434D01*
X2568D01*
Y2354D01*
X2538D01*
Y2434D01*
Y2437D01*
X2540Y2443D01*
X2544Y2447D01*
X2550Y2449D01*
X2556D01*
X2561Y2447D01*
D02*
G37*
G36*
X2511D02*
X2515Y2443D01*
X2518Y2437D01*
Y2434D01*
Y2354D01*
X2488D01*
Y2434D01*
Y2437D01*
X2490Y2443D01*
X2494Y2447D01*
X2500Y2449D01*
X2506D01*
X2511Y2447D01*
D02*
G37*
G36*
X2461D02*
X2465Y2443D01*
X2468Y2437D01*
Y2434D01*
Y2354D01*
X2438D01*
X2438Y2434D01*
Y2437D01*
X2440Y2443D01*
X2444Y2447D01*
X2450Y2449D01*
X2456D01*
X2461Y2447D01*
D02*
G37*
G36*
X2411D02*
X2415Y2443D01*
X2418Y2437D01*
Y2434D01*
Y2354D01*
X2388D01*
Y2434D01*
Y2437D01*
X2390Y2443D01*
X2394Y2447D01*
X2400Y2449D01*
X2406D01*
X2411Y2447D01*
D02*
G37*
G36*
X2361D02*
X2365Y2443D01*
X2368Y2437D01*
Y2434D01*
Y2354D01*
X2338D01*
Y2434D01*
Y2437D01*
X2340Y2443D01*
X2344Y2447D01*
X2350Y2449D01*
X2356D01*
X2361Y2447D01*
D02*
G37*
D15*
X2578Y2717D02*
D03*
D16*
Y2567D02*
D03*
D17*
X2428D02*
D03*
D18*
Y2717D02*
D03*
D19*
X2143Y926D02*
D03*
Y746D02*
D03*
X2473D02*
D03*
Y926D02*
D03*
D20*
X815Y2350D02*
D03*
X1008D02*
D03*
X912Y2553D02*
D03*
X1407D02*
D03*
X1504Y2350D02*
D03*
X1311D02*
D03*
D21*
X3170Y3656D02*
D03*
Y3606D02*
D03*
Y3556D02*
D03*
Y3506D02*
D03*
X3460D02*
D03*
Y3556D02*
D03*
Y3606D02*
D03*
Y3656D02*
D03*
D22*
X3240Y3436D02*
D03*
X3290D02*
D03*
X3340D02*
D03*
X3390D02*
D03*
Y3726D02*
D03*
X3340D02*
D03*
X3290D02*
D03*
X3240D02*
D03*
D23*
X3315Y3581D02*
D03*
D24*
X4777Y2007D02*
D03*
X4650D02*
D03*
X4523D02*
D03*
X4396D02*
D03*
X4269D02*
D03*
X4142D02*
D03*
X4015D02*
D03*
X3888D02*
D03*
X3761D02*
D03*
X3634D02*
D03*
X3507D02*
D03*
X3380D02*
D03*
X3253D02*
D03*
X3126D02*
D03*
Y257D02*
D03*
X3253D02*
D03*
X3380D02*
D03*
X3507D02*
D03*
X3634D02*
D03*
X3761D02*
D03*
X3888D02*
D03*
X4015D02*
D03*
X4142D02*
D03*
X4269D02*
D03*
X4396D02*
D03*
X4523D02*
D03*
X4650D02*
D03*
X4777D02*
D03*
D25*
X3001Y1830D02*
D03*
Y1703D02*
D03*
Y1576D02*
D03*
Y1449D02*
D03*
Y1322D02*
D03*
Y1195D02*
D03*
Y1068D02*
D03*
Y941D02*
D03*
Y814D02*
D03*
Y687D02*
D03*
Y560D02*
D03*
Y433D02*
D03*
D26*
X4242Y1268D02*
D03*
X4392Y1418D02*
D03*
X4242D02*
D03*
X4092D02*
D03*
Y1268D02*
D03*
Y1118D02*
D03*
X4242D02*
D03*
X4392D02*
D03*
Y1268D02*
D03*
D27*
X1245Y866D02*
D03*
Y734D02*
D03*
X292Y866D02*
D03*
Y734D02*
D03*
D28*
X1433Y762D02*
D03*
X1565D02*
D03*
X1857D02*
D03*
X1725D02*
D03*
X480D02*
D03*
X612D02*
D03*
X917D02*
D03*
X785D02*
D03*
D29*
X663Y3316D02*
D03*
Y3086D02*
D03*
Y2856D02*
D03*
D30*
X1293Y3086D02*
D03*
D31*
X2233Y1905D02*
D03*
Y1803D02*
D03*
D32*
X707Y1467D02*
D03*
X292D02*
D03*
X707Y1682D02*
D03*
X292D02*
D03*
X1941Y1467D02*
D03*
X1526D02*
D03*
X1941Y1682D02*
D03*
X1526D02*
D03*
D33*
X150Y4451D02*
D03*
Y4946D02*
D03*
Y3640D02*
D03*
Y4135D02*
D03*
X4740Y4147D02*
D03*
Y3652D02*
D03*
Y4958D02*
D03*
Y4463D02*
D03*
D34*
X470Y4635D02*
D03*
Y4760D02*
D03*
Y3825D02*
D03*
Y3950D02*
D03*
X4420Y3962D02*
D03*
Y3837D02*
D03*
Y4773D02*
D03*
Y4648D02*
D03*
D35*
X965Y5563D02*
D03*
X1460D02*
D03*
X158Y5565D02*
D03*
X653D02*
D03*
X2596D02*
D03*
X3091D02*
D03*
X1778Y5563D02*
D03*
X2273D02*
D03*
X4222Y5565D02*
D03*
X4717D02*
D03*
X3409D02*
D03*
X3904D02*
D03*
D36*
X1150Y5243D02*
D03*
X1275D02*
D03*
X343Y5245D02*
D03*
X468D02*
D03*
X2781D02*
D03*
X2906D02*
D03*
X1963Y5243D02*
D03*
X2088D02*
D03*
X4407Y5245D02*
D03*
X4532D02*
D03*
X3594D02*
D03*
X3719D02*
D03*
D37*
X4133Y2884D02*
D03*
Y3084D02*
D03*
D38*
X4708Y2650D02*
D03*
Y3319D02*
D03*
D39*
X3613Y2578D02*
D03*
X3442Y3226D02*
D03*
X1252Y1753D02*
D03*
X1086D02*
D03*
X3448Y2578D02*
D03*
X3277Y3226D02*
D03*
D40*
X2019Y3454D02*
D03*
X2577Y508D02*
D03*
X1869Y3454D02*
D03*
X2427Y508D02*
D03*
D41*
X394Y3029D02*
D03*
X1549Y2826D02*
D03*
X2299Y3359D02*
D03*
X394Y2864D02*
D03*
X1549Y2991D02*
D03*
X2299Y3194D02*
D03*
D42*
X165Y2970D02*
D03*
X1765Y2884D02*
D03*
X165Y2897D02*
D03*
X1765Y2958D02*
D03*
D43*
X2553Y2882D02*
D03*
X2403D02*
D03*
X2353D02*
D03*
X2743Y2592D02*
D03*
Y2792D02*
D03*
Y2742D02*
D03*
Y2692D02*
D03*
X2770Y2642D02*
D03*
X2743Y2542D02*
D03*
Y2492D02*
D03*
X2263D02*
D03*
Y2542D02*
D03*
Y2592D02*
D03*
X2230Y2642D02*
D03*
X2263Y2692D02*
D03*
Y2742D02*
D03*
Y2792D02*
D03*
X2653Y2402D02*
D03*
X2603D02*
D03*
X2553D02*
D03*
X2503Y2374D02*
D03*
X2453Y2402D02*
D03*
X2403D02*
D03*
X2353D02*
D03*
X2453Y2882D02*
D03*
X2503Y2914D02*
D03*
X2603Y2882D02*
D03*
X2653D02*
D03*
D44*
X2385Y1827D02*
D03*
X2663Y927D02*
D03*
X2385Y1907D02*
D03*
X2663Y847D02*
D03*
D45*
X2576Y1803D02*
D03*
Y1931D02*
D03*
D46*
X3389Y3010D02*
D03*
X1974Y4706D02*
D03*
X1451Y4388D02*
D03*
X3556Y2794D02*
D03*
X3316Y3010D02*
D03*
X3483Y2794D02*
D03*
X1901Y4706D02*
D03*
X1524Y4388D02*
D03*
D47*
X3632Y3672D02*
D03*
Y3391D02*
D03*
Y3592D02*
D03*
Y3471D02*
D03*
D48*
X1727Y165D02*
D03*
X1497D02*
D03*
X712Y165D02*
D03*
X482D02*
D03*
D49*
X1987Y165D02*
D03*
X1237D02*
D03*
X972Y165D02*
D03*
X222D02*
D03*
D50*
X1742Y450D02*
D03*
X1677D02*
D03*
X727Y450D02*
D03*
X662D02*
D03*
X467D02*
D03*
X532D02*
D03*
X597D02*
D03*
X1612Y450D02*
D03*
X1547D02*
D03*
X1482D02*
D03*
D51*
X1642Y4762D02*
D03*
X1418Y4541D02*
D03*
X4521Y2286D02*
D03*
X1424Y4236D02*
D03*
X4616Y2286D02*
D03*
X1610Y2210D02*
D03*
X1127Y2197D02*
D03*
X1032D02*
D03*
X1515Y2210D02*
D03*
X1513Y4541D02*
D03*
X1519Y4236D02*
D03*
X1737Y4762D02*
D03*
D52*
X1765Y3804D02*
D03*
X2210Y3801D02*
D03*
X1981D02*
D03*
Y3896D02*
D03*
X2210D02*
D03*
X1765Y3899D02*
D03*
D53*
X1682Y4312D02*
D03*
Y4062D02*
D03*
X1995Y4312D02*
D03*
Y4462D02*
D03*
Y4412D02*
D03*
Y4362D02*
D03*
Y4512D02*
D03*
Y4262D02*
D03*
Y4212D02*
D03*
Y4162D02*
D03*
Y4112D02*
D03*
X1682Y4162D02*
D03*
Y4212D02*
D03*
Y4362D02*
D03*
Y4412D02*
D03*
Y4462D02*
D03*
Y4512D02*
D03*
X1995Y4062D02*
D03*
X1682Y4112D02*
D03*
Y4262D02*
D03*
D54*
X1914Y4518D02*
D03*
X1764Y4056D02*
D03*
X1864D02*
D03*
Y4518D02*
D03*
X1814D02*
D03*
Y4056D02*
D03*
X1764Y4518D02*
D03*
X1914Y4056D02*
D03*
D55*
X4203Y2286D02*
D03*
X4331D02*
D03*
D56*
X2204Y4210D02*
D03*
Y4554D02*
D03*
Y4452D02*
D03*
Y4312D02*
D03*
D57*
X849Y2197D02*
D03*
X3571Y2400D02*
D03*
X3491D02*
D03*
X929Y2197D02*
D03*
X2303Y508D02*
D03*
X2223D02*
D03*
X1255Y2197D02*
D03*
X1335D02*
D03*
X2894Y2731D02*
D03*
Y2642D02*
D03*
X2975D02*
D03*
Y2731D02*
D03*
D58*
X1252Y1168D02*
D03*
X767D02*
D03*
D59*
X1859Y3302D02*
D03*
X1774D02*
D03*
D60*
X1968Y2946D02*
D03*
Y2845D02*
D03*
D61*
X3048Y3412D02*
D03*
Y3497D02*
D03*
D62*
X427Y1168D02*
D03*
X1592D02*
D03*
D63*
X2434Y4262D02*
D03*
Y4512D02*
D03*
M02*
